DBRep_DrawableShape

CASCADE Topology V3, (c) Open Cascade
Locations 0
Curve2ds 88
1 0 0 0 1 
1 0 0 1 0 
8 -5.9999999280080374e-07 41.550000600000004
1 -1 2.3677978870813465 1 0 
8 -5.9999999280080374e-07 41.550000600000004
1 6.1973657166736906 0 0 1 
8 1 41.550000000000011
1 6.1973657166736906 0 0 1 
1 0 0 1 0 
1 0 26.350000000000001 1 0 
8 7.5500000000000007 9.9499999999999993
1 39.949999999999989 -7.5500000000000007 0 1 
8 7.5500000000000007 9.9499999999999993
1 7.5500000000000007 0.099999999999994316 1 0 
1 55.251000000000005 0 0 1 
1 0 0 1 0 
8 -35.27600000000001 -19.974999999999994
1 19.974999999999994 2.3999999999999986 -1 0 
8 -35.27600000000001 -19.974999999999994
1 -19.974999999999994 -0.099999999999994316 -1 -0 
8 1.3949999999999996 2.8949999999999996
1 9 1.3949999999999996 0 1 
8 1.3949999999999996 2.8949999999999996
1 -1.3949999999999996 0.099999999999994316 1 0 
8 -6.375 -2.625
1 2.625 2.7899999999999991 -1 0 
8 -6.375 -2.625
1 -2.625 -0.099999999999994316 -1 -0 
8 -6.375 -2.625
1 2.625 4.2899999999999991 -1 0 
8 -6.375 -2.625
1 -2.625 -0.099999999999994316 -1 -0 
8 1.3949999999999996 2.8949999999999996
1 5.25 1.3949999999999996 0 1 
8 1.3949999999999996 2.8949999999999996
1 -1.3949999999999996 0.099999999999994316 1 0 
8 1.3949999999999996 2.8949999999999996
1 33 1.3949999999999996 0 1 
8 1.3949999999999996 2.8949999999999996
1 -1.3949999999999996 0.099999999999994316 1 0 
8 -18.375 -14.625
1 14.625 4.2899999999999991 -1 0 
8 -18.375 -14.625
1 -14.625 -0.099999999999994316 -1 -0 
8 1.3949999999999996 2.8949999999999996
1 29.25 1.3949999999999996 0 1 
8 1.3949999999999996 2.8949999999999996
1 -1.3949999999999996 0.099999999999994316 1 0 
8 -18.375 -14.625
1 14.625 2.7899999999999991 -1 0 
8 -18.375 -14.625
1 -14.625 -0.099999999999994316 -1 -0 
1 0 0 0 1 
1 0 6 1 0 
1 6.1973657166736897 1 1 0 
1 0 0 0 -1 
1 26.350000000000001 0 0 1 
8 -5.9999999280080374e-07 41.550000600000004
1 -1 0.64999999999999858 1 0 
8 -5.9999999280080374e-07 41.550000600000004
1 0.64350110879328437 0 0 1 
8 1 41.550000000000011
1 6.9266864159728705 0 0 1 
1 6.283185307179588 40.949999999999989 1 0 
1 1.7763568394002505e-15 40.949999999999989 1 0 
2 8.75 0.84999999999999432 1 0 -0 1 8.75
1 55.251000000000005 0 0 -1 
1 26.350000000000001 0 0 1 
1 0 -6 1 0 
1 0 26.350000000000001 1 0 
1 0 0 0 -1 
1 17.5 0 0 1 
1 55.251000000000005 0 0 1 
1 0 6 1 0 
8 -35.27600000000001 -19.974999999999994
1 19.974999999999994 2.3999999999999986 -1 0 
8 -35.27600000000001 -19.974999999999994
1 -19.974999999999994 -1 -1 -0 
1 -19.974999999999994 -6.0999999999999943 -1 -0 
8 39.409899999999993 41.550000600000004
1 6.2831853071795862 0 0 1 
8 39.409899999999993 41.550000600000004
1 -40.949999999999989 -0.84999999999999432 1 0 
1 3.75 0 0 -1 
1 0 0 0 1 
8 1.3949999999999996 2.8949999999999996
1 9 1.3949999999999996 0 1 
8 1.3949999999999996 2.8949999999999996
1 -1.3949999999999996 6.0999999999999943 1 0 
1 3.75 0 0 -1 
1 1.5 0 0 1 
8 -6.375 -2.625
1 2.625 2.7899999999999991 -1 0 
8 -6.375 -2.625
1 -2.625 -6.0999999999999943 -1 -0 
1 0 0 0 -1 
1 0 0 0 1 
8 -6.375 -2.625
1 2.625 4.2899999999999991 -1 0 
8 -6.375 -2.625
1 -2.625 -6.0999999999999943 -1 -0 
1 0 0 0 -1 
1 1.5 0 0 1 
8 1.3949999999999996 2.8949999999999996
1 5.25 1.3949999999999996 0 1 
8 1.3949999999999996 2.8949999999999996
1 -1.3949999999999996 6.0999999999999943 1 0 
1 3.75 0 0 -1 
1 0 0 0 1 
8 1.3949999999999996 2.8949999999999996
1 33 1.3949999999999996 0 1 
8 1.3949999999999996 2.8949999999999996
1 -1.3949999999999996 6.0999999999999943 1 0 
1 3.75 0 0 -1 
1 1.5 0 0 1 
8 -18.375 -14.625
1 14.625 4.2899999999999991 -1 0 
8 -18.375 -14.625
1 -14.625 -6.0999999999999943 -1 -0 
1 0 0 0 -1 
1 1.5 0 0 1 
1 0 0 0 -1 
1 0 0 0 1 
8 1.3949999999999996 2.8949999999999996
1 29.25 1.3949999999999996 0 1 
8 1.3949999999999996 2.8949999999999996
1 -1.3949999999999996 6.0999999999999943 1 0 
8 -18.375 -14.625
1 14.625 2.7899999999999991 -1 0 
8 -18.375 -14.625
1 -14.625 -6.0999999999999943 -1 -0 
8 7.5500000000000007 9.9499999999999993
1 39.949999999999989 -7.5500000000000007 0 1 
8 7.5500000000000007 9.9499999999999993
1 7.5500000000000007 1 1 0 
1 7.5500000000000007 6.0999999999999943 1 0 
Curves 45
1 -16 102.29000000000001 167.17400000000001 1 0 -0 
1 -13.632202112918653 102.29000000000001 166.17400000000001 0 0 1 
1 10.350000000000001 102.29000000000001 167.17400000000001 0 0 1 
1 -23.550000000000001 102.29000000000001 207.124 1 0 -0 
1 -16 102.29000000000001 222.42500000000001 1 0 -0 
1 -13.600000000000001 102.29000000000001 187.149 -0 0 -1 
1 -14.605 102.29000000000001 176.17400000000001 1 0 -0 
1 -13.210000000000001 102.29000000000001 169.79900000000001 -0 0 -1 
1 -11.710000000000001 102.29000000000001 169.79900000000001 -0 0 -1 
1 -14.605 102.29000000000001 172.42400000000001 1 0 -0 
1 -14.605 102.29000000000001 200.17400000000001 1 0 -0 
1 -11.710000000000001 102.29000000000001 181.79900000000001 -0 0 -1 
1 -14.605 102.29000000000001 196.42400000000001 1 0 -0 
1 -13.210000000000001 102.29000000000001 181.79900000000001 -0 0 -1 
1 -16 108.29000000000001 167.17400000000001 1 0 -0 
8 0 0.7293206992991732
2 -22.350000000000001 103.04000000000001 167.17400000000001 -0 0 1 0.99631975852358245 -0.085714285714286839 0 0.085714285714286839 0.99631975852358245 0 8.75
1 10.350000000000001 102.29000000000001 167.17400000000001 -0 1 0 
1 -15.350000000000001 108.29000000000001 166.17400000000001 0 0 1 
8 0 0.64350110879328437
2 -22.350000000000001 103.04000000000001 207.124 0 0 1 1 0 -0 -0 1 0 8.75
2 -22.350000000000001 103.04000000000001 207.124 0 0 1 1 0 -0 -0 1 0 8.75
1 10.350000000000001 102.29000000000001 222.42500000000001 -0 1 0 
1 10.350000000000001 108.29000000000001 167.17400000000001 0 0 1 
1 -13.600000000000001 102.19000000000001 207.124 -0 1 0 
8 0 6
1 -13.600000000000001 108.29000000000001 222.42500000000001 0 -1 0 
1 -16 108.29000000000001 222.42500000000001 1 0 -0 
8 0 5.25
1 -13.600000000000001 108.29000000000001 207.124 0 -1 0 
1 -13.600000000000001 108.29000000000001 187.149 -0 0 -1 
1 -13.600000000000001 103.04000000000001 166.17400000000001 0 0 1 
1 -13.210000000000001 102.19000000000001 176.17400000000001 -0 1 0 
1 -14.605 108.29000000000001 176.17400000000001 1 0 -0 
1 -11.710000000000001 102.19000000000001 176.17400000000001 -0 1 0 
1 -13.210000000000001 108.29000000000001 169.79900000000001 -0 0 -1 
1 -13.210000000000001 102.19000000000001 172.42400000000001 -0 1 0 
1 -11.710000000000001 108.29000000000001 169.79900000000001 -0 0 -1 
1 -11.710000000000001 102.19000000000001 172.42400000000001 -0 1 0 
1 -14.605 108.29000000000001 172.42400000000001 1 0 -0 
1 -13.210000000000001 102.19000000000001 200.17400000000001 -0 1 0 
1 -14.605 108.29000000000001 200.17400000000001 1 0 -0 
1 -11.710000000000001 102.19000000000001 200.17400000000001 -0 1 0 
1 -11.710000000000001 108.29000000000001 181.79900000000001 -0 0 -1 
1 -11.710000000000001 102.19000000000001 196.42400000000001 -0 1 0 
1 -13.210000000000001 102.19000000000001 196.42400000000001 -0 1 0 
1 -14.605 108.29000000000001 196.42400000000001 1 0 -0 
1 -13.210000000000001 108.29000000000001 181.79900000000001 -0 0 -1 
1 -23.550000000000001 108.29000000000001 207.124 1 0 -0 
Polygon3D 0
PolygonOnTriangulations 0
Surfaces 21
1 -16 102.29000000000001 167.17400000000001 -0 1 0 0 0 1 1 0 -0 
1 -16 102.29000000000001 167.17400000000001 0 0 1 1 0 -0 -0 1 0 
2 -22.350000000000001 103.04000000000001 166.17400000000001 0 0 1 1 0 -0 -0 1 0 8.75
10 3.420433412733487 9.7036187199130737 -2e+100 2e+100
2 -22.350000000000001 103.04000000000001 166.17400000000001 0 0 1 1 0 -0 -0 1 0 8.75
1 10.350000000000001 102.29000000000001 167.17400000000001 1 0 -0 0 0 1 0 -1 0 
1 -31.100000000000001 102.19000000000001 207.124 0 0 1 1 0 -0 -0 1 0 
1 -16 102.29000000000001 222.42500000000001 0 0 1 1 0 -0 -0 1 0 
1 -13.600000000000001 102.19000000000001 207.124 1 0 -0 0 0 1 0 -1 0 
1 -13.210000000000001 102.19000000000001 176.17400000000001 0 0 1 1 0 -0 -0 1 0 
1 -13.210000000000001 102.19000000000001 172.42400000000001 1 0 -0 0 0 1 0 -1 0 
1 -11.710000000000001 102.19000000000001 172.42400000000001 1 0 -0 0 0 1 0 -1 0 
1 -13.210000000000001 102.19000000000001 172.42400000000001 0 0 1 1 0 -0 -0 1 0 
1 -13.210000000000001 102.19000000000001 200.17400000000001 0 0 1 1 0 -0 -0 1 0 
1 -11.710000000000001 102.19000000000001 196.42400000000001 1 0 -0 0 0 1 0 -1 0 
1 -13.210000000000001 102.19000000000001 196.42400000000001 0 0 1 1 0 -0 -0 1 0 
1 -13.210000000000001 102.19000000000001 196.42400000000001 1 0 -0 0 0 1 0 -1 0 
1 -16 108.29000000000001 167.17400000000001 -0 1 0 0 0 1 1 0 -0 
1 -13.600000000000001 102.19000000000001 207.124 1 0 -0 0 0 1 0 -1 0 
1 -13.600000000000001 107.29000000000001 207.124 1 0 -0 0 0 1 0 -1 0 
1 -31.100000000000001 107.29000000000001 207.124 0 0 1 1 0 -0 -0 1 0 
1 -31.100000000000001 102.19000000000001 207.124 0 0 1 1 0 -0 -0 1 0 
Triangulations 0

TShapes 117
Ve
1.00000115463195e-07
-13.6322021129188 102.29 167.174
0 0

0101101
*
Ve
1e-07
10.35 102.29 167.174
0 0

0101101
*
Ed
 1e-07 1 1 0
1  1 0 2.36779788708123 26.35
2  1 1 0 2.36779788708123 26.35
2  2 2 0 2.36779788708123 26.35
0

0101000
+117 0 -116 0 *
Ve
1.5e-07
-13.6322021129187 102.29 207.124
0 0

0101101
*
Ed
 1e-07 1 1 0
1  2 0 1 40.95
2  3 1 0 1 40.95
2  4 3 0 1 40.95
2  5 4 0 1 40.95
0

0101000
+117 0 -114 0 *
Ve
1e-07
10.35 102.29 222.425
0 0

0101101
*
Ed
 1e-07 1 1 0
1  3 0 0 55.251
2  6 5 0 0 55.251
2  7 1 0 0 55.251
0

0101000
-112 0 +116 0 *
Ve
1.5e-07
-13.6 102.29 207.124
0 0

0101101
*
Ed
 1.5e-07 1 1 0
1  4 0 9.91779788708135 9.95
2  8 1 0 9.91779788708135 9.95
2  9 6 0 9.91779788708135 9.95
0

0101000
+114 0 -110 0 *
Ve
1.5e-07
-13.6 102.29 222.425
0 0

0101101
*
Ed
 1e-07 1 1 0
1  5 0 2.4 26.35
2  10 1 0 2.4 26.35
2  11 7 0 2.4 26.35
0

0101000
+108 0 -112 0 *
Ed
 1.5e-07 1 1 0
1  6 0 -35.276 -19.975
2  12 1 0 -35.276 -19.975
2  13 8 0 -35.276 -19.975
0

0101000
+108 0 -110 0 *
Wi

0101100
-115 0 +113 0 -111 0 +109 0 +107 0 -106 0 *
Ve
1.5e-07
-13.21 102.29 176.174
0 0

0101101
*
Ve
1.5e-07
-11.71 102.29 176.174
0 0

0101101
*
Ed
 1.5e-07 1 1 0
1  7 0 1.395 2.895
2  14 1 0 1.395 2.895
2  15 9 0 1.395 2.895
0

0101000
+104 0 -103 0 *
Ve
1.5e-07
-13.21 102.29 172.424
0 0

0101101
*
Ed
 1.5e-07 1 1 0
1  8 0 -6.375 -2.625
2  16 1 0 -6.375 -2.625
2  17 10 0 -6.375 -2.625
0

0101000
+104 0 -101 0 *
Ve
1.5e-07
-11.71 102.29 172.424
0 0

0101101
*
Ed
 1.5e-07 1 1 0
1  9 0 -6.375 -2.625
2  18 1 0 -6.375 -2.625
2  19 11 0 -6.375 -2.625
0

0101000
+103 0 -99 0 *
Ed
 1.5e-07 1 1 0
1  10 0 1.395 2.895
2  20 1 0 1.395 2.895
2  21 12 0 1.395 2.895
0

0101000
+101 0 -99 0 *
Wi

0101100
-102 0 +100 0 -98 0 +97 0 *
Ve
1.5e-07
-13.21 102.29 200.174
0 0

0101101
*
Ve
1.5e-07
-11.71 102.29 200.174
0 0

0101101
*
Ed
 1.5e-07 1 1 0
1  11 0 1.395 2.895
2  22 1 0 1.395 2.895
2  23 13 0 1.395 2.895
0

0101000
+95 0 -94 0 *
Ve
1.5e-07
-11.71 102.29 196.424
0 0

0101101
*
Ed
 1.5e-07 1 1 0
1  12 0 -18.375 -14.625
2  24 1 0 -18.375 -14.625
2  25 14 0 -18.375 -14.625
0

0101000
+94 0 -92 0 *
Ve
1.5e-07
-13.21 102.29 196.424
0 0

0101101
*
Ed
 1.5e-07 1 1 0
1  13 0 1.395 2.895
2  26 1 0 1.395 2.895
2  27 15 0 1.395 2.895
0

0101000
+90 0 -92 0 *
Ed
 1.5e-07 1 1 0
1  14 0 -18.375 -14.625
2  28 1 0 -18.375 -14.625
2  29 16 0 -18.375 -14.625
0

0101000
+95 0 -90 0 *
Wi

0101100
-93 0 -91 0 +89 0 +88 0 *
Fa
0  1e-07 1 0

0101000
+105 0 +96 0 +87 0 *
Ve
1.00000115463195e-07
-15.3499999999999 108.29 167.174
0 0

0101101
*
Ve
1e-07
10.35 108.29 167.174
0 0

0101101
*
Ed
 1e-07 1 1 0
1  15 0 0.650000000000114 26.35
2  30 17 0 0.650000000000114 26.35
2  31 2 0 0.650000000000114 26.35
0

0101000
+85 0 -84 0 *
Ed
 1e-07 1 1 0
1  16 0 0 0.729320699299173
2  32 4 0 0 0.729320699299173
0

0101000
+117 0 -85 0 *
Ed
 1e-07 1 1 0
1  17 0 0 6
2  33 5 0 0 6
2  34 2 0 0 6
0

0101000
-84 0 +116 0 *
Wi

0101100
-83 0 -82 0 +115 0 +81 0 *
Fa
0  1e-07 2 0

0111000
+80 0 *
Ve
1.5e-07
-15.35 108.29 207.124
0 0

0101101
*
Ed
 1e-07 1 1 0
1  18 0 1 40.95
2  35 17 0 1 40.95
2  36 3 0 1 40.95
2  37 4 0 1 40.95
0

0101000
+85 0 -78 0 *
Ve
1e-07
-13.6 103.04 207.124
0 0

0101101
*
Ed
 1e-07 1 1 0
1  19 0 0 0.643501108793284
2  38 4 0 0 0.643501108793284
0

0101000
+76 0 -78 0 *
Ed
 1e-07 1 1 0
1  20 0 6.19736571667369 6.28318530717959
2  39 4 0 6.19736571667369 6.28318530717959
2  40 6 0 6.19736571667369 6.28318530717959
0

0101000
+114 0 -76 0 *
Wi

0101100
-113 0 +82 0 +77 0 -75 0 -74 0 *
Fa
0  1e-07 4 0

0111000
+73 0 *
Ve
1e-07
10.35 108.29 222.425
0 0

0101101
*
Ed
 1e-07 1 1 0
1  21 0 0 6
2  41 5 0 0 6
2  42 7 0 0 6
0

0101000
-71 0 +112 0 *
Ed
 1e-07 1 1 0
1  22 0 0 55.251
2  43 5 0 0 55.251
2  44 17 0 0 55.251
0

0101000
-71 0 +84 0 *
Wi

0101100
-111 0 -70 0 +69 0 +81 0 *
Fa
0  1e-07 5 0

0111000
+68 0 *
Ed
 1e-07 1 1 0
1  23 0 0.0999999999999943 0.849999999999994
2  45 8 0 0.0999999999999943 0.849999999999994
2  46 6 0 0.0999999999999943 0.849999999999994
0

0101000
+110 0 -76 0 *
Wi

0101100
+109 0 -74 0 +66 0 *
Fa
0  1e-07 6 0

0101000
+65 0 *
Ve
1.5e-07
-13.6 108.29 222.425
0 0

0101101
*
Ed
 1e-07 1 1 0
1  24 0 0 6
0

0101000
+63 0 -108 0 *
Ed
 1e-07 1 1 0
1  25 0 2.4 26.35
2  47 17 0 2.4 26.35
2  48 7 0 2.4 26.35
0

0101000
+63 0 -71 0 *
Wi

0101100
+62 0 +107 0 +70 0 -61 0 *
Fa
0  1e-07 7 0

0111000
+60 0 *
Ve
1.5e-07
-13.6 108.29 207.124
0 0

0101101
*
Ed
 1e-07 1 1 0
1  26 0 0 5.25
0

0101000
+58 0 -76 0 *
Ed
 1.5e-07 1 1 0
1  27 0 -35.276 -19.975
2  49 17 0 -35.276 -19.975
2  50 19 0 -35.276 -19.975
2  51 8 0 -35.276 -19.975
0

0101000
+63 0 -58 0 *
Wi

0101100
+106 0 +66 0 -57 0 -56 0 +62 0 *
Ve
1e-07
-13.6 103.04 207.724
0 0

0101101
*
Ed
 1e-07 1 1 0
1  28 0 40.95 41.55
2  52 4 0 40.95 41.55
2  53 8 0 40.95 41.55
0

0101000
+76 0 -54 0 *
Wi

0101000
i53 0 *
Fa
0  0 18 0

0111000
+55 0 +52 0 *
Ve
1.5e-07
-13.21 108.29 176.174
0 0

0101101
*
Ed
 1e-07 1 1 0
1  29 0 0.0999999999999943 6.09999999999999
2  54 10 0 0.0999999999999943 6.09999999999999
2  55 9 0 0.0999999999999943 6.09999999999999
0

0101000
+104 0 -50 0 *
Ve
1.5e-07
-11.71 108.29 176.174
0 0

0101101
*
Ed
 1.5e-07 1 1 0
1  30 0 1.395 2.895
2  56 17 0 1.395 2.895
2  57 9 0 1.395 2.895
0

0101000
+50 0 -48 0 *
Ed
 1e-07 1 1 0
1  31 0 0.0999999999999943 6.09999999999999
2  58 11 0 0.0999999999999943 6.09999999999999
2  59 9 0 0.0999999999999943 6.09999999999999
0

0101000
+103 0 -48 0 *
Wi

0101100
-49 0 -47 0 +46 0 +102 0 *
Fa
0  1e-07 9 0

0101000
+45 0 *
Ve
1.5e-07
-13.21 108.29 172.424
0 0

0101101
*
Ed
 1.5e-07 1 1 0
1  32 0 -6.375 -2.625
2  60 17 0 -6.375 -2.625
2  61 10 0 -6.375 -2.625
0

0101000
+50 0 -43 0 *
Ed
 1e-07 1 1 0
1  33 0 0.0999999999999943 6.09999999999999
2  62 10 0 0.0999999999999943 6.09999999999999
2  63 12 0 0.0999999999999943 6.09999999999999
0

0101000
+101 0 -43 0 *
Wi

0101100
-49 0 -42 0 +41 0 +100 0 *
Fa
0  1e-07 10 0

0101000
+40 0 *
Ve
1.5e-07
-11.71 108.29 172.424
0 0

0101101
*
Ed
 1.5e-07 1 1 0
1  34 0 -6.375 -2.625
2  64 17 0 -6.375 -2.625
2  65 11 0 -6.375 -2.625
0

0101000
+48 0 -38 0 *
Ed
 1e-07 1 1 0
1  35 0 0.0999999999999943 6.09999999999999
2  66 11 0 0.0999999999999943 6.09999999999999
2  67 12 0 0.0999999999999943 6.09999999999999
0

0101000
+99 0 -38 0 *
Wi

0101100
-46 0 -37 0 +36 0 +98 0 *
Fa
0  1e-07 11 0

0101000
+35 0 *
Ed
 1.5e-07 1 1 0
1  36 0 1.395 2.895
2  68 17 0 1.395 2.895
2  69 12 0 1.395 2.895
0

0101000
+43 0 -38 0 *
Wi

0101100
-41 0 -33 0 +36 0 +97 0 *
Fa
0  1e-07 12 0

0101000
+32 0 *
Ve
1.5e-07
-13.21 108.29 200.174
0 0

0101101
*
Ed
 1e-07 1 1 0
1  37 0 0.0999999999999943 6.09999999999999
2  70 16 0 0.0999999999999943 6.09999999999999
2  71 13 0 0.0999999999999943 6.09999999999999
0

0101000
+95 0 -30 0 *
Ve
1.5e-07
-11.71 108.29 200.174
0 0

0101101
*
Ed
 1.5e-07 1 1 0
1  38 0 1.395 2.895
2  72 17 0 1.395 2.895
2  73 13 0 1.395 2.895
0

0101000
+30 0 -28 0 *
Ed
 1e-07 1 1 0
1  39 0 0.0999999999999943 6.09999999999999
2  74 14 0 0.0999999999999943 6.09999999999999
2  75 13 0 0.0999999999999943 6.09999999999999
0

0101000
+94 0 -28 0 *
Wi

0101100
-29 0 -27 0 +26 0 +93 0 *
Fa
0  1e-07 13 0

0101000
+25 0 *
Ve
1.5e-07
-11.71 108.29 196.424
0 0

0101101
*
Ed
 1.5e-07 1 1 0
1  40 0 -18.375 -14.625
2  76 17 0 -18.375 -14.625
2  77 14 0 -18.375 -14.625
0

0101000
+28 0 -23 0 *
Ed
 1e-07 1 1 0
1  41 0 0.0999999999999943 6.09999999999999
2  78 14 0 0.0999999999999943 6.09999999999999
2  79 15 0 0.0999999999999943 6.09999999999999
0

0101000
+92 0 -23 0 *
Wi

0101100
-26 0 -22 0 +21 0 +91 0 *
Fa
0  1e-07 14 0

0101000
+20 0 *
Ve
1.5e-07
-13.21 108.29 196.424
0 0

0101101
*
Ed
 1e-07 1 1 0
1  42 0 0.0999999999999943 6.09999999999999
2  80 16 0 0.0999999999999943 6.09999999999999
2  81 15 0 0.0999999999999943 6.09999999999999
0

0101000
+90 0 -18 0 *
Ed
 1.5e-07 1 1 0
1  43 0 1.395 2.895
2  82 17 0 1.395 2.895
2  83 15 0 1.395 2.895
0

0101000
+18 0 -23 0 *
Wi

0101100
-17 0 -16 0 +21 0 +89 0 *
Fa
0  1e-07 15 0

0101000
+15 0 *
Ed
 1.5e-07 1 1 0
1  44 0 -18.375 -14.625
2  84 17 0 -18.375 -14.625
2  85 16 0 -18.375 -14.625
0

0101000
+30 0 -18 0 *
Wi

0101100
-29 0 -13 0 +17 0 +88 0 *
Fa
0  1e-07 16 0

0101000
+12 0 *
Ed
 1.5e-07 1 1 0
1  45 0 8.2 9.95
2  86 17 0 8.2 9.95
2  87 20 0 8.2 9.95
2  88 6 0 8.2 9.95
0

0101000
+78 0 -58 0 *
Wi

0101100
-83 0 +77 0 -69 0 +10 0 +61 0 -56 0 *
Wi

0101100
-47 0 +42 0 -37 0 +33 0 *
Wi

0101100
-27 0 -22 0 +16 0 +13 0 *
Fa
0  1e-07 17 0

0101000
+9 0 +8 0 +7 0 *
Wi

0101100
-57 0 -10 0 -75 0 *
Fa
0  0 21 0

0111000
+5 0 *
Sh

0101100
-86 0 -79 0 -72 0 +67 0 +64 0 +59 0 -51 0 -44 0 +39 0 -34 0 
+31 0 -24 0 -19 0 +14 0 +11 0 +6 0 +4 0 *
So

0100000
+3 0 *
Co

1100000
+2 0 *

+1 0 