DBRep_DrawableShape

CASCADE Topology V3, (c) Open Cascade
Locations 4
1
              1               0               0               0 
              0               1               0               0 
              0               0               1               0 
1
              1               0               0               0 
              0               1               0               0 
              0               0               1               0 
2  1 1 2 1 0
2  2 -1 1 -1 0
Curve2ds 8
7 0 0  1 2 2  31.757359312881 0.52785714285700003  2.2219994000000001 0.52785714285700003 
 0 2 1 2
7 0 0  4 14 5  28.907101678315001 0  28.957655613981 0.062730266644310001  29.005834372420001 0.125479859271  29.051884387434999 0.188245440934  29.139722657080998 0.31326134239199999  29.181544828139 0.37551140608400002  29.221644893769 0.43777282091399999  29.298823113493999 0.562534415633  29.335890497364002 0.62503465376800005  29.371513608354999 0.68754331295100002  29.440077920966999 0.81253445331499996  29.473021115449001 0.87501691778400004  29.504751081350999 0.93750568300000003  29.535359312880999 1 
 0 5 0.251232106324 3 0.50029193294499996 3 0.750227767037 3 1 5
7 0 0  4 14 5  2.8502576345659998 0  2.7997036989000001 0.062730266644290003  2.751524940461 0.125479859271  2.705474925446 0.188245440934  2.6176366558000002 0.31326134239199999  2.5758144847420001 0.37551140608299999  2.5357144191119998 0.43777282091399999  2.4585361993860002 0.562534415633  2.421468815516 0.62503465376800005  2.385845704526 0.68754331295100002  2.3172813919139998 0.81253445331499996  2.2843381974320001 0.87501691778400004  2.25260823153 0.93750568300000003  2.222 1 
 0 5 0.251232106324 3 0.50029193294499996 3 0.750227767037 3 1 5
1 31.757359312881 0 0 1 
1 0 1 1 0 
7 0 0  1 2 2  29.535359912880999 0.52785714285700003  0 0.52785714285700003 
 0 2 1 2
1 0 1 1 0 
7 0 0  1 2 2  0 0  0 1 
 0 2 12.124355652982 2
Curves 68
1 -81.25 14.604000000000003 214.67400009999997 2.4492935982947064e-16 1 2.2204460492503131e-16 
1 -81.25 15.011493965392008 186.73400009999997 -4.0788932203406729e-32 -2.2204460492503131e-16 1 
1 -81.249999999999986 30.256500000000003 206.67400009999997 -2.4492935982947064e-16 -1 -2.2204460492503131e-16 
1 -81.249999999999986 46.45664068711902 164.93400009999999 -4.0788932203406729e-32 -2.2204460492503131e-16 1 
1 -81.249999999999986 46.456640687119013 179.14688279292 4.0788932203406729e-32 2.2204460492503131e-16 -1 
7 0 0  1 2 2  -81.249999999999986 46.456640687119013 177.97900009999998  -81.249999999999972 72.918244890328012 177.97900010000001 
 0 2 1 2
1 -81.249999999999972 72.687000000000012 164.93400009999999 -4.0788932203406729e-32 -2.2204460492503131e-16 1 
1 -81.249999999999986 30.256500000000003 206.67400009999997 -2.4492935982947064e-16 -1 -2.2204460492503131e-16 
1 -81.249999999999972 76.019000000000005 186.7340001 -4.0788932203406729e-32 -2.2204460492503131e-16 1 
1 -81.439408836907987 15.242289300941003 214.67400009999997 0.6343932841637282 -0.77301045336266927 -1.7164280071983321e-16 
1 -81.066320343559994 14.787679656440002 214.67400009999997 0.77301045336266883 -0.63439328416372864 -1.4086360614922822e-16 
1 -81.25 14.604000000000003 214.67400009999997 1 -2.4492935982947064e-16 -1.3596310734468911e-32 
1 -19.278289300940997 14.414591163091988 214.67400009999997 0.77301045336266927 0.6343932841637282 1.4086360614922817e-16 
1 -18.823679656439992 14.787679656439987 214.67400009999997 0.63439328416372864 0.77301045336266883 1.7164280071983316e-16 
1 -18.639999999999986 14.603999999999987 214.67400009999997 2.4492935982947064e-16 1 2.2204460492503131e-16 
1 -98.59499999999997 76.019000000000005 214.6740001 1 -2.4492935982947064e-16 -1.3596310734468911e-32 
1 -98.59499999999997 76.019000000000005 206.6740001 1 -2.4492935982947064e-16 -1.3596310734468911e-32 
1 -18.639999999999965 76.018999999999977 186.7340001 -4.0788932203406729e-32 -2.2204460492503131e-16 1 
1 -98.59499999999997 72.687000000000012 206.6740001 1 -2.4492935982947064e-16 -1.3596310734468911e-32 
1 -18.639999999999983 30.256499999999988 206.67400009999997 -2.4492935982947064e-16 -1 -2.2204460492503131e-16 
1 -18.639999999999965 72.686999999999998 164.93400009999999 -4.0788932203406729e-32 -2.2204460492503131e-16 1 
7 0 0  4 14 5  -14.944999999999972 72.686999999999998 181.6740001  -15.384111866509976 72.686999999999998 181.23488823348998  -15.823359014896972 72.686999999999998 180.79564108510999  -16.262718086535976 72.686999999999998 180.35628201346998  -17.137829396741971 72.686999999999998 179.48117070325998  -17.573579842584969 72.686999999999998 179.04542025742001  -18.009409746398966 72.686999999999998 178.60959035361  -18.882740909429977 72.686999999999998 177.73625919057  -19.320242576375968 72.686999999999998 177.29875752363  -19.757803190657974 72.686999999999998 176.86119690934999  -20.63274117320497 72.686999999999998 175.98625892679999  -21.070118424489976 72.686999999999998 175.54888167550999  -21.50753978099798 72.686999999999998 175.11146031901001  -21.944999999999979 72.686999999999998 174.6740001 
 0 5 0.251232106324 3 0.50029193294499996 3 0.750227767037 3 1 5
1 -21.944999999999979 72.686999999999998 175.49900009999999 7.0283739792050667e-31 2.2204460492503131e-16 -1 
1 -89.922499999999971 72.687000000000012 166.79400010000001 -1 2.4492935982947064e-16 1.3596310734468911e-32 
1 -77.944999999999965 72.687000000000012 175.49900009999999 -4.0788932203406729e-32 -2.2204460492503131e-16 1 
7 0 0  4 14 5  -84.944999999999965 72.687000000000012 181.6740001  -84.505888133489975 72.687000000000012 181.23488823348998  -84.066640985102978 72.687000000000012 180.79564108510999  -83.627281913464969 72.687000000000012 180.35628201346998  -82.752170603257966 72.687000000000012 179.48117070325998  -82.316420157415976 72.687000000000012 179.04542025742001  -81.880590253601966 72.687000000000012 178.60959035361  -81.007259090569974 72.687000000000012 177.73625919057  -80.569757423624978 72.687000000000012 177.29875752363  -80.132196809341977 72.687000000000012 176.86119690934999  -79.257258826795976 72.687000000000012 175.98625892679999  -78.819881575509967 72.687000000000012 175.54888167550999  -78.382460219002965 72.687000000000012 175.11146031901001  -77.944999999999965 72.687000000000012 174.6740001 
 0 5 0.251232106324 3 0.50029193294499996 3 0.750227767037 3 1 5
7 0 0  1 2 2  -84.944999999999993 50.151640687119013 181.6740001  -77.944999999999993 43.151640687119013 174.6740001 
 0 2 1 2
1 -77.944999999999965 74.909000000000006 174.6740001 -2.4492935982947064e-16 -1 -2.2204460492503131e-16 
1 -81.944999999999993 47.151640687118999 193.6740001 0.57735026918962562 -0.57735026918962584 -0.57735026918962606 
1 -77.944999999999993 43.151640687119013 174.6740001 -4.0788932203406729e-32 -2.2204460492503131e-16 1 
1 -84.944999999999993 50.151640687118999 206.6740001 0.70710678118654735 -0.70710678118654779 -1.5700924586837754e-16 
1 -77.944999999999993 43.151640687119013 163.07400009999998 -4.0788932203406729e-32 -2.2204460492503131e-16 1 
1 -18.639999999999983 30.256499999999988 206.67400009999997 -2.4492935982947064e-16 -1 -2.2204460492503131e-16 
1 -21.944999999999983 43.151640687118991 206.6740001 0.70710678118654779 0.70710678118654735 1.5700924586837749e-16 
1 -21.944999999999993 16.908999999999988 206.67400009999997 2.4492935982947064e-16 1 2.2204460492503131e-16 
1 -98.594999999999999 18.687000000000008 206.67400009999997 1 -2.4492935982947064e-16 -1.3596310734468911e-32 
1 -77.944999999999993 43.151640687119006 206.6740001 -2.4492935982947064e-16 -1 -2.2204460492503131e-16 
1 -81.439408836907987 15.242289300941005 206.67400009999997 0.6343932841637282 -0.77301045336266927 -1.7164280071983321e-16 
1 -81.066320343559994 14.787679656440003 206.67400009999997 0.77301045336266883 -0.63439328416372864 -1.4086360614922822e-16 
1 -65.597499999999997 14.604000000000001 206.67400009999997 1 -2.4492935982947064e-16 -1.3596310734468911e-32 
1 -19.278289300940997 14.414591163091989 206.67400009999997 0.77301045336266927 0.6343932841637282 1.4086360614922817e-16 
1 -18.823679656439992 14.787679656439989 206.67400009999997 0.63439328416372864 0.77301045336266883 1.7164280071983316e-16 
1 -81.066320343559994 14.787679656440003 206.67400009999997 -4.0788932203406729e-32 -2.2204460492503131e-16 1 
1 -18.639999999999986 15.011493965391994 186.73400009999997 -4.0788932203406729e-32 -2.2204460492503131e-16 1 
1 -18.639999999999983 46.456640687119005 164.93400009999999 -4.0788932203406729e-32 -2.2204460492503131e-16 1 
1 -18.639999999999983 46.456640687118998 179.14688279292 4.0788932203406729e-32 2.2204460492503131e-16 -1 
7 0 0  1 2 2  -18.639999999999965 72.918244890327998 177.97900010000001  -18.639999999999983 46.456640687118998 177.97900009999998 
 0 2 1 2
1 -18.823679656439992 14.787679656439989 206.67400009999997 -4.0788932203406729e-32 -2.2204460492503131e-16 1 
1 -19.047493965391993 14.603999999999994 186.73400009999997 -4.0788932203406729e-32 -2.2204460492503131e-16 1 
1 -80.842506034607993 14.604000000000008 186.73400009999997 4.0788932203406729e-32 2.2204460492503131e-16 -1 
1 -77.944999999999993 22.317160171780014 166.79400009999998 2.4492935982947064e-16 1 2.2204460492503131e-16 
1 -77.944999999999993 43.151640687119013 163.07400009999998 -4.0788932203406729e-32 -2.2204460492503131e-16 1 
1 -21.944999999999993 22.317160171779999 166.79400009999998 -1.9570047701227064e-16 -1 -2.2204460492503131e-16 
1 -77.944999999999993 22.317160171780014 166.79400009999998 2.4492935982947064e-16 1 2.2204460492503131e-16 
1 -89.922499999999985 18.687000000000015 166.79400009999998 -1 2.4492935982947064e-16 1.3596310734468911e-32 
1 -21.944999999999993 22.317160171779999 166.79400009999998 -1.9570047701227064e-16 -1 -2.2204460492503131e-16 
1 -21.944999999999983 43.151640687118999 163.07400009999998 -4.0788932203406729e-32 -2.2204460492503131e-16 1 
1 -21.944999999999983 43.151640687118999 174.6740001 2.4492935982947064e-16 1 2.2204460492503131e-16 
1 -14.94499999999999 50.151640687118999 181.6740001 -0.57735026918962606 -0.5773502691896254 -0.57735026918962606 
1 -77.944999999999993 43.151640687119006 189.67400009999997 -2.4492935982947064e-16 -1 -2.2204460492503131e-16 
1 -77.944999999999993 18.687000000000012 175.49900009999999 -4.0788932203406729e-32 -2.2204460492503131e-16 1 
1 -77.944999999999993 18.687000000000012 163.07400009999998 -4.0788932203406729e-32 -2.2204460492503131e-16 1 
1 -21.944999999999993 18.686999999999998 163.07400009999998 4.0788932203406729e-32 2.2204460492503131e-16 -1 
1 -21.944999999999993 18.686999999999998 175.49900009999999 7.0283739792050667e-31 2.2204460492503131e-16 -1 
1 -21.944999999999993 16.908999999999992 189.67400009999997 2.4492935982947064e-16 1 2.2204460492503131e-16 
1 -21.944999999999983 43.151640687118999 163.07400009999998 -4.0788932203406729e-32 -2.2204460492503131e-16 1 
1 -21.944999999999983 43.151640687118991 189.67400009999997 0.57735026918962606 0.5773502691896254 0.57735026918962606 
1 -21.944999999999983 43.151640687118991 189.67400009999997 4.0788932203406729e-32 2.2204460492503131e-16 -1 
Polygon3D 0
PolygonOnTriangulations 0
Surfaces 26
1 -81.25 14.604000000000013 166.79400009999998 1 -2.4492935982947064e-16 -1.3596310734468911e-32 -4.0788932203406729e-32 -2.2204460492503131e-16 1 -2.4492935982947064e-16 -1 -2.2204460492503131e-16 
9 0 0 0 0 1 1 2 2 2 2 -84.944999999999965 74.909000000000006 181.6740001  -77.944999999999965 74.909000000000006 174.6740001  
-84.944999999999993 50.151640687119013 181.6740001  -77.944999999999993 43.151640687119013 174.6740001  

0 2
31.757359312881 2

0 2
1 2

1 -81.25 14.604000000000003 214.67400009999997 -4.0788932203406729e-32 -2.2204460492503131e-16 1 1 -2.4492935982947064e-16 -1.3596310734468911e-32 2.4492935982947064e-16 1 2.2204460492503131e-16 
1 -98.59499999999997 76.019000000000005 206.6740001 2.4492935982947064e-16 1 2.2204460492503131e-16 -4.0788932203406729e-32 -2.2204460492503131e-16 1 1 -2.4492935982947064e-16 -1.3596310734468911e-32 
1 -49.944999999999979 45.908999999999992 206.6740001 -4.0788932203406729e-32 -2.2204460492503131e-16 1 1 -2.4492935982947064e-16 -1.3596310734468911e-32 2.4492935982947064e-16 1 2.2204460492503131e-16 
1 -98.59499999999997 72.687000000000012 163.07400009999998 2.4492935982947064e-16 1 2.2204460492503131e-16 -4.0788932203406729e-32 -2.2204460492503131e-16 1 1 -2.4492935982947064e-16 -1.3596310734468911e-32 
9 0 0 0 0 1 1 2 2 2 2 -14.94499999999999 50.151640687118999 181.6740001  -21.944999999999983 43.151640687118999 174.6740001  
-14.944999999999972 74.908999999999992 181.6740001  -21.944999999999979 74.908999999999992 174.6740001  

0 2
31.757359312881 2

0 2
1 2

1 -81.944999999999993 47.151640687118999 191.49976548582998 -0.70710678118654779 -0.70710678118654735 -1.5700924586837749e-16 -0.70710678118654735 0.70710678118654779 1.5700924586837754e-16 4.0788932203406729e-32 2.2204460492503131e-16 -1 
1 -84.944999999999993 50.151640687119013 163.07400009999998 0.70710678118654779 0.70710678118654735 1.5700924586837749e-16 0.70710678118654735 -0.70710678118654779 -1.5700924586837754e-16 4.0788932203406729e-32 2.2204460492503131e-16 -1 
1 -49.944999999999979 45.908999999999992 206.6740001 -4.0788932203406729e-32 -2.2204460492503131e-16 1 1 -2.4492935982947064e-16 -1.3596310734468911e-32 2.4492935982947064e-16 1 2.2204460492503131e-16 
1 -81.439408836907987 15.242289300941005 206.67400009999997 0.77301045336266927 0.6343932841637282 1.4086360614922817e-16 0.6343932841637282 -0.77301045336266927 -1.7164280071983321e-16 4.0788932203406729e-32 2.2204460492503131e-16 -1 
1 -18.639999999999986 14.603999999999997 166.79400009999998 1 -2.4492935982947064e-16 -1.3596310734468911e-32 -4.0788932203406729e-32 -2.2204460492503131e-16 1 -2.4492935982947064e-16 -1 -2.2204460492503131e-16 
1 -18.823679656439992 14.787679656439989 206.67400009999997 -0.77301045336266883 0.63439328416372864 1.4086360614922822e-16 0.63439328416372864 0.77301045336266883 1.7164280071983316e-16 4.0788932203406729e-32 2.2204460492503131e-16 -1 
1 -19.278289300940997 14.414591163091989 206.67400009999997 -0.6343932841637282 0.77301045336266927 1.7164280071983321e-16 0.77301045336266927 0.6343932841637282 1.4086360614922817e-16 4.0788932203406729e-32 2.2204460492503131e-16 -1 
1 -81.25 14.604000000000013 166.79400009999998 2.4492935982947064e-16 1 2.2204460492503131e-16 -4.0788932203406729e-32 -2.2204460492503131e-16 1 1 -2.4492935982947064e-16 -1.3596310734468911e-32 
1 -81.066320343559994 14.787679656440003 206.67400009999997 0.63439328416372864 0.77301045336266883 1.7164280071983316e-16 0.77301045336266883 -0.63439328416372864 -1.4086360614922822e-16 4.0788932203406729e-32 2.2204460492503131e-16 -1 
1 -77.944999999999993 30.030320343560007 187.92400009999997 1 -2.4492935982947064e-16 -1.3596310734468911e-32 -2.4492935982947064e-16 -1 -2.131462795026603e-16 3.8609471054151095e-32 2.131462795026603e-16 -1 
1 -77.944999999999993 30.030320343560007 187.92400009999997 1 -2.4492935982947064e-16 -1.3596310734468911e-32 -2.4492935982947064e-16 -1 -2.131462795026603e-16 3.8609471054151095e-32 2.131462795026603e-16 -1 
1 -81.25 14.604000000000013 166.79400009999998 -4.0788932203406729e-32 -2.2204460492503131e-16 1 1 -2.4492935982947064e-16 -1.3596310734468911e-32 2.4492935982947064e-16 1 2.2204460492503131e-16 
1 -21.94499999999999 30.030320343559996 187.92400009999997 -1 1.9570047701227064e-16 -6.5938316281867698e-31 1.9570047701227064e-16 1 2.290981555647153e-16 7.0421778114532318e-31 2.290981555647153e-16 -1 
1 -21.94499999999999 30.030320343559996 187.92400009999997 -1 1.9570047701227064e-16 -6.5938316281867698e-31 1.9570047701227064e-16 1 2.290981555647153e-16 7.0421778114532318e-31 2.290981555647153e-16 -1 
1 -77.944999999999993 43.151640687119013 163.07400009999998 1 -2.4492935982947064e-16 -1.3596310734468911e-32 -2.4492935982947064e-16 -1 -2.2204460492503131e-16 4.0788932203406729e-32 2.2204460492503131e-16 -1 
1 -98.594999999999999 18.687000000000019 163.07400009999998 2.4492935982947064e-16 1 2.2204460492503131e-16 -4.0788932203406729e-32 -2.2204460492503131e-16 1 1 -2.4492935982947064e-16 -1.3596310734468911e-32 
1 -21.944999999999993 16.908999999999999 163.07400009999998 -1 2.4492935982947064e-16 1.3596310734468911e-32 2.4492935982947064e-16 1 2.2204460492503131e-16 4.0788932203406729e-32 2.2204460492503131e-16 -1 
1 -21.944999999999983 43.151640687118999 163.07400009999998 -0.70710678118654735 0.70710678118654779 1.5700924586837754e-16 0.70710678118654779 0.70710678118654735 1.5700924586837749e-16 4.0788932203406729e-32 2.2204460492503131e-16 -1 
1 -17.94499999999999 47.151640687118984 191.49976548582998 0.70710678118654735 -0.70710678118654779 -1.5700924586837754e-16 0.70710678118654779 0.70710678118654735 1.5700924586837749e-16 -4.0788932203406729e-32 -2.2204460492503131e-16 1 
Triangulations 0

TShapes 166
Ve
1e-07
-81.25 15.011493965392 214.6740001
0 0

0101101
*
Ve
1e-07
-81.25 76.019 214.6740001
0 0

0101101
*
Ed
 1e-07 1 1 0
1  1 0 0.407493965392 61.415
0

0101000
+166 4 -165 4 *
Ve
1e-07
-81.25 15.011493965392 206.6740001
0 0

0101101
*
Ed
 1e-07 1 1 0
1  2 0 19.94 27.94
0

0101000
+163 4 -166 4 *
Ve
1e-07
-81.25 46.456640687119 206.6740001
0 0

0101101
*
Ed
 1e-07 1 1 0
1  3 0 -16.200140687119 15.245006034608
0

0101000
+161 4 -163 4 *
Ve
1e-07
-81.25 46.456640687119 192.9790001
0 0

0101101
*
Ed
 1e-07 1 1 0
1  4 0 28.045 41.74
0

0101000
+159 4 -161 4 *
Ve
1e-07
-81.25 46.456640687119 177.9790001
0 0

0101101
*
Ed
 1e-07 1 1 0
1  5 0 -13.83211730708 1.16788269292
0

0101000
+159 4 -157 4 *
Ve
1e-07
-81.25 72.687 177.9790001
0 0

0101101
*
Ed
 1e-07 1 1 0
1  6 0 0 0.99126111597195
2  1 2 0 0 0.99126111597195
0

0101000
+157 4 -155 4 *
Ve
1e-07
-81.25 72.687 206.6740001
0 0

0101101
*
Ed
 1e-07 1 1 0
1  7 0 13.045 41.74
0

0101000
+155 4 -153 4 *
Ve
1e-07
-81.25 76.019 206.6740001
0 0

0101101
*
Ed
 1e-07 1 1 0
1  8 0 -45.7625 -42.4305
0

0101000
+151 4 -153 4 *
Ed
 1e-07 1 1 0
1  9 0 19.94 27.94
0

0101000
+151 4 -165 4 *
Wi

0101100
-164 0 -162 0 -160 0 -158 0 +156 0 +154 0 +152 0 -150 0 +149 0 *
Fa
0  1e-07 1 0

0111000
+148 0 *
Ve
1e-07
-81.06632034356 14.78767965644 214.6740001
0 0

0101101
*
Ed
 1e-07 1 1 0
1  10 0 0.29856690106242 0.588102841977495
0

0101000
+166 4 -146 4 *
Ve
1e-07
-80.842506034608 14.604 214.6740001
0 0

0101101
*
Ed
 1e-07 1 1 0
1  11 0 0 0.289535940915075
0

0101000
+146 4 -144 4 *
Ve
1e-07
-19.047493965392 14.604 214.6740001
0 0

0101101
*
Ed
 1e-07 1 1 0
1  12 0 0.407493965392 62.202506034608
0

0101000
+144 4 -142 4 *
Ve
1e-07
-18.82367965644 14.78767965644 214.6740001
0 0

0101101
*
Ed
 1e-07 1 1 0
1  13 0 0.298566901062423 0.588102841977499
0

0101000
+142 4 -140 4 *
Ve
1e-07
-18.64 15.011493965392 214.6740001
0 0

0101101
*
Ed
 1e-07 1 1 0
1  14 0 0 0.289535940915079
0

0101000
+140 4 -138 4 *
Ve
1e-07
-18.64 76.019 214.6740001
0 0

0101101
*
Ed
 1e-07 1 1 0
1  15 0 0.407493965392 61.415
0

0101000
+138 4 -136 4 *
Ed
 1e-07 1 1 0
1  16 0 17.345 79.955
0

0101000
+165 4 -136 4 *
Wi

0101100
-164 0 +145 0 +143 0 +141 0 +139 0 +137 0 +135 0 -134 0 *
Fa
0  1e-07 3 0

0111000
+133 0 *
Ve
1e-07
-18.64 76.019 206.6740001
0 0

0101101
*
Ed
 1e-07 1 1 0
1  17 0 17.345 79.955
0

0101000
+151 4 -131 4 *
Ed
 1e-07 1 1 0
1  18 0 19.94 27.94
0

0101000
+131 4 -136 4 *
Wi

0101100
-130 0 +149 0 +134 0 -129 0 *
Fa
0  1e-07 4 0

0111000
+128 0 *
Ve
1e-07
-18.64 72.687 206.6740001
0 0

0101101
*
Ed
 1e-07 1 1 0
1  19 0 17.345 79.955
0

0101000
+153 4 -126 4 *
Ed
 1e-07 1 1 0
1  20 0 -45.7625 -42.4305
0

0101000
+131 4 -126 4 *
Wi

0101100
+150 0 +125 0 -124 0 -130 0 *
Fa
0  1e-07 5 0

0111000
+123 0 *
Ve
1e-07
-18.64 72.687 177.9790001
0 0

0101101
*
Ed
 1e-07 1 1 0
1  21 0 13.045 41.74
0

0101000
+121 4 -126 4 *
Ve
1e-07
-21.945 72.687 174.6740001
0 0

0101101
*
Ed
 1e-07 1 1 0
1  22 0 0.528101413741898 1
2  2 7 0 0.528101413741898 1
0

0101000
+121 4 -119 4 *
Ve
1e-07
-21.945 72.687 166.7940001
0 0

0101101
*
Ed
 1e-07 1 1 0
1  23 0 0.825000000000003 8.70500000000001
0

0101000
+119 4 -117 4 *
Ve
1e-07
-77.945 72.687 166.7940001
0 0

0101101
*
Ed
 1e-07 1 1 0
1  24 0 -67.9775 -11.9775
0

0101000
+117 4 -115 4 *
Ve
1e-07
-77.945 72.687 174.6740001
0 0

0101101
*
Ed
 1e-07 1 1 0
1  25 0 -8.70500000000001 -0.825000000000003
0

0101000
+115 4 -113 4 *
Ed
 1e-07 1 1 0
1  26 0 0.528101413741924 1
2  3 2 0 0.528101413741924 1
0

0101000
+155 4 -113 4 *
Wi

0101100
+152 0 +125 0 -120 0 +118 0 +116 0 +114 0 +112 0 -111 0 *
Fa
0  1e-07 6 0

0111000
+110 0 *
Ve
1e-07
-77.945 43.151640687119 174.6740001
0 0

0101101
*
Ed
 1e-07 1 1 0
1  27 0 0.527857142857143 1
2  4 2 0 0.527857142857143 1
0

0101000
+157 4 -108 4 *
Ed
 1e-07 1 1 0
1  28 0 2.222 31.757359312881
2  5 2 0 2.222 31.757359312881
0

0101000
+113 4 -108 4 *
Wi

0101100
-111 0 -154 0 +107 0 -106 0 *
Fa
0  1e-07 2 0

0111000
+105 0 *
Ve
1e-07
-77.945 43.151640687119 189.6740001
0 0

0101101
*
Ed
 1e-07 1 1 0
1  29 0 1.20377531126037 6.92820323027551
4 G2 8 0 9 0
0

0101000
+159 4 -103 4 *
Ed
 1e-07 1 1 0
1  30 0 0 15
0

0101000
+108 4 -103 4 *
Wi

0101100
-102 0 +156 0 +107 0 +101 0 *
Fa
0  1e-07 8 0

0111000
+100 0 *
Ve
1e-07
-77.945 43.151640687119 206.6740001
0 0

0101101
*
Ed
 1e-07 1 1 0
1  31 0 5.22551911296859 9.89949493661167
0

0101000
+161 4 -98 4 *
Ed
 1e-07 1 1 0
1  32 0 26.6 43.6
0

0101000
+103 4 -98 4 *
Wi

0101100
-102 0 +158 0 +97 0 -96 0 *
Fa
0  1e-07 9 0

0111000
+95 0 *
Ve
1e-07
-18.64 46.456640687119 206.6740001
0 0

0101101
*
Ve
1e-07
-18.64 15.011493965392 206.6740001
0 0

0101101
*
Ed
 1e-07 1 1 0
1  33 0 -16.200140687119 15.245006034608
0

0101000
+93 4 -92 4 *
Ve
1e-07
-21.945 43.151640687119 206.6740001
0 0

0101101
*
Ed
 1e-07 1 1 0
1  34 0 0 4.67397582364308
0

0101000
+90 4 -93 4 *
Ve
1e-07
-21.945 18.687 206.6740001
0 0

0101101
*
Ed
 1e-07 1 1 0
1  35 0 1.778 26.242640687119
0

0101000
+88 4 -90 4 *
Ve
1e-07
-77.945 18.687 206.6740001
0 0

0101101
*
Ed
 1e-07 1 1 0
1  36 0 20.65 76.65
0

0101000
+86 4 -88 4 *
Ed
 1e-07 1 1 0
1  37 0 0 24.464640687119
0

0101000
+98 4 -86 4 *
Ve
1e-07
-81.06632034356 14.78767965644 206.6740001
0 0

0101101
*
Ed
 1e-07 1 1 0
1  38 0 0.29856690106242 0.588102841977495
0

0101000
+163 4 -83 4 *
Ve
1e-07
-80.842506034608 14.604 206.6740001
0 0

0101101
*
Ed
 1e-07 1 1 0
1  39 0 0 0.289535940915075
0

0101000
+83 4 -81 4 *
Ve
1e-07
-19.047493965392 14.604 206.6740001
0 0

0101101
*
Ed
 1e-07 1 1 0
1  40 0 -15.245006034608 46.550006034608
0

0101000
+81 4 -79 4 *
Ve
1e-07
-18.82367965644 14.78767965644 206.6740001
0 0

0101101
*
Ed
 1e-07 1 1 0
1  41 0 0.298566901062423 0.588102841977499
0

0101000
+79 4 -77 4 *
Ed
 1e-07 1 1 0
1  42 0 0 0.289535940915079
0

0101000
+77 4 -92 4 *
Wi

0101100
-91 0 -89 0 -87 0 -85 0 -84 0 -97 0 +160 0 +82 0 +80 0 +78 0 
+76 0 +75 0 *
Fa
0  1e-07 10 0

0111000
+74 0 *
Ed
 1e-07 1 1 0
1  43 0 0 8
0

0101000
+83 4 -146 4 *
Wi

0101100
-82 0 +162 0 +145 0 -72 0 *
Fa
0  1e-07 11 0

0111000
+71 0 *
Ed
 1e-07 1 1 0
1  44 0 19.94 27.94
0

0101000
+92 4 -138 4 *
Ve
1e-07
-18.64 46.456640687119 192.9790001
0 0

0101101
*
Ed
 1e-07 1 1 0
1  45 0 28.045 41.74
0

0101000
+68 4 -93 4 *
Ve
1e-07
-18.64 46.456640687119 177.9790001
0 0

0101101
*
Ed
 1e-07 1 1 0
1  46 0 -13.83211730708 1.16788269292
0

0101000
+68 4 -66 4 *
Ed
 1e-07 1 1 0
1  47 0 0.00873888402804983 1
2  6 7 0 0.00873888402804983 1
0

0101000
+121 4 -66 4 *
Wi

0101100
-135 0 -69 0 -91 0 -67 0 +65 0 -64 0 +120 0 -124 0 +129 0 *
Fa
0  1e-07 12 0

0111000
+63 0 *
Ed
 1e-07 1 1 0
1  48 0 0 8
0

0101000
+77 4 -140 4 *
Wi

0101100
-75 0 +61 0 +137 0 -69 0 *
Fa
0  1e-07 13 0

0111000
+60 0 *
Ed
 1e-07 1 1 0
1  49 0 19.94 27.94
0

0101000
+79 4 -142 4 *
Wi

0101100
-76 0 +58 0 +139 0 -61 0 *
Fa
0  1e-07 14 0

0111000
+57 0 *
Ed
 1e-07 1 1 0
1  50 0 -27.94 -19.94
0

0101000
+144 4 -81 4 *
Wi

0101100
+141 0 -58 0 -78 0 -55 0 *
Fa
0  1e-07 15 0

0111000
+54 0 *
Wi

0101100
-80 0 +72 0 +143 0 +55 0 *
Fa
0  1e-07 16 0

0111000
+52 0 *
Ve
1e-07
-77.945 43.151640687119 166.7940001
0 0

0101101
*
Ed
 1e-07 1 1 0
1  51 0 20.834480515339 50.36983982822
0

0101000
+50 4 -115 4 *
Ed
 1e-07 1 1 0
1  52 0 3.72 11.6
4 CN 17 0 18 0
0

0101000
+50 4 -108 4 *
Wi

0101100
+49 0 +112 0 +106 0 -48 0 *
Fa
0  1e-07 17 0

0111000
+47 0 *
Ve
1e-07
-21.945 43.151640687119 166.7940001
0 0

0101101
*
Ed
 1e-07 1 1 0
1  53 0 -50.36983982822 -20.834480515339
0

0101000
+117 4 -45 4 *
Ve
1e-07
-77.945 18.687 166.7940001
0 0

0101101
*
Ed
 1e-07 1 1 0
1  54 0 -3.63016017178 20.834480515339
0

0101000
+43 4 -50 4 *
Ve
1e-07
-21.945 18.687 166.7940001
0 0

0101101
*
Ed
 1e-07 1 1 0
1  55 0 -67.9775 -11.9775
0

0101000
+41 4 -43 4 *
Ed
 1e-07 1 1 0
1  56 0 -20.834480515339 3.63016017178
0

0101000
+45 4 -41 4 *
Wi

0101100
-44 0 +114 0 -49 0 -42 0 -40 0 -39 0 *
Fa
0  1e-07 19 0

0111000
+38 0 *
Ve
1e-07
-21.945 43.151640687119 174.6740001
0 0

0101101
*
Ed
 1e-07 1 1 0
1  57 0 3.72 11.6
4 CN 20 0 21 0
0

0101000
+45 4 -36 4 *
Ed
 1e-07 1 1 0
1  58 0 0 29.535359312881
2  7 7 0 0 29.535359312881
0

0101000
+36 4 -119 4 *
Wi

0101100
+44 0 +35 0 +34 0 +116 0 *
Fa
0  1e-07 20 0

0111000
+33 0 *
Ed
 1e-07 1 1 0
1  59 0 6.399927733967 12.1243556529821
2  8 7 0 6.399927733967 12.1243556529821
0

0101000
+66 4 -36 4 *
Wi

0101100
-31 0 -64 0 +118 0 -34 0 *
Fa
0  1e-07 7 0

0111000
+30 0 *
Ve
1e-07
-77.945 18.687 189.6740001
0 0

0101101
*
Ed
 1e-07 1 1 0
1  60 0 0 24.464640687119
4 CN 18 0 22 0
0

0101000
+103 4 -28 4 *
Ed
 1e-07 1 1 0
1  61 0 -8.70500000000001 14.175
0

0101000
+43 4 -28 4 *
Wi

0101100
+42 0 +48 0 +101 0 +27 0 -26 0 *
Fa
0  1e-07 18 0

0111000
+25 0 *
Ed
 1e-07 1 1 0
1  62 0 26.6 43.6
0

0101000
+28 4 -86 4 *
Wi

0101100
-27 0 +96 0 +84 0 -23 0 *
Fa
0  1e-07 22 0

0111000
+22 0 *
Ve
1e-07
-21.945 18.687 189.6740001
0 0

0101101
*
Ed
 1e-07 1 1 0
1  63 0 -43.6 -26.6
0

0101000
+88 4 -20 4 *
Ed
 1e-07 1 1 0
1  64 0 -14.175 8.70500000000001
0

0101000
+20 4 -41 4 *
Wi

0101100
+23 0 +85 0 +19 0 +18 0 +40 0 +26 0 *
Fa
0  1e-07 23 0

0111000
+17 0 *
Ve
1e-07
-21.945 43.151640687119 189.6740001
0 0

0101101
*
Ed
 1e-07 1 1 0
1  65 0 1.778 26.242640687119
4 CN 24 0 21 0
0

0101000
+20 4 -15 4 *
Ed
 1e-07 1 1 0
1  66 0 26.6 43.6
0

0101000
+15 4 -90 4 *
Wi

0101100
-14 0 -19 0 +87 0 -13 0 *
Fa
0  1e-07 24 0

0111000
+12 0 *
Ed
 1e-07 1 1 0
1  67 0 0 5.72442791901514
4 G2 25 0 26 0
0

0101000
+15 4 -68 4 *
Wi

0101100
-10 0 +13 0 +89 0 -67 0 *
Fa
0  1e-07 25 0

0111000
+9 0 *
Ed
 1e-07 1 1 0
1  68 0 0 15
0

0101000
+15 4 -36 4 *
Wi

0101100
-10 0 +7 0 -31 0 -65 0 *
Fa
0  1e-07 26 0

0111000
+6 0 *
Wi

0101100
+39 0 -18 0 +14 0 +7 0 -35 0 *
Fa
0  1e-07 21 0

0111000
+4 0 *
Sh

0101100
-147 0 +132 0 +127 0 -122 0 +109 0 -104 0 +99 0 -94 0 -73 0 -70 0 
+62 0 -59 0 -56 0 -53 0 -51 0 -46 0 -37 0 -32 0 -29 0 -24 0 
-21 0 -16 0 -11 0 -8 0 +5 0 -3 0 *
So

0100000
+2 0 *

+1 3 