DBRep_DrawableShape

CASCADE Topology V3, (c) Open Cascade
Locations 2
1
              1               0               0               0 
              0               1               0               0 
              0               0               1               0 
2  1 -1 0
Curve2ds 4
1 0 17.626000000000012 1 0 
1 6.2831853071795862 -0 0 1 
1 0 -0 0 1 
1 0 0 1 0 
Curves 3
2 79.820000000000007 94.840000000000003 186.17400009999997 1.2246467991473532e-16 1 6.0632059656426656e-17 -7.4252857783954266e-33 -6.0632059656426656e-17 1 1 -1.2246467991473532e-16 0 3.1749999999999998
1 79.820000000000007 77.213999999999999 189.34900009999998 1.2246467991473532e-16 1 6.0632059656426656e-17 
2 79.820000000000007 77.213999999999999 186.17400009999997 1.2246467991473532e-16 1 6.0632059656426656e-17 -7.4252857783954266e-33 -6.0632059656426656e-17 1 1 -1.2246467991473532e-16 0 3.1749999999999998
Polygon3D 0
PolygonOnTriangulations 0
Surfaces 3
2 79.820000000000007 77.213999999999999 186.17400009999997 1.2246467991473532e-16 1 6.0632059656426656e-17 -7.4252857783954266e-33 -6.0632059656426656e-17 1 1 -1.2246467991473532e-16 0 3.1749999999999998
1 79.820000000000007 94.840000000000003 186.17400009999997 1.2246467991473532e-16 1 6.0632059656426656e-17 -7.4252857783954266e-33 -6.0632059656426656e-17 1 1 -1.2246467991473532e-16 0 
1 79.820000000000007 77.213999999999999 186.17400009999997 1.2246467991473532e-16 1 6.0632059656426656e-17 -7.4252857783954266e-33 -6.0632059656426656e-17 1 1 -1.2246467991473532e-16 0 
Triangulations 0

TShapes 13
Ve
1e-07
79.82 94.84 189.3490001
0 0

0101101
*
Ed
 1e-07 1 1 0
1  1 0 0 6.28318530717959
2  1 1 0 0 6.28318530717959
0

0101000
+13 2 -13 2 *
Ve
1e-07
79.82 77.214 189.3490001
0 0

0101101
*
Ed
 1e-07 1 1 0
1  2 0 0 17.626
3  2 3CN 1 0 0 17.626
0

0101000
-13 2 +11 2 *
Ed
 1e-07 1 1 0
1  3 0 0 6.28318530717959
2  4 1 0 0 6.28318530717959
0

0101000
+11 2 -11 2 *
Wi

0101100
-12 0 +10 0 +9 0 -10 0 *
Fa
0  1e-07 1 0

0111000
+8 0 *
Wi

0101100
+12 0 *
Fa
0  1e-07 2 0

0111000
+6 0 *
Wi

0101100
-9 0 *
Fa
0  1e-07 3 0

0111000
-4 0 *
Sh

0101100
+7 0 +5 0 -3 0 *
So

0100000
+2 0 *

+1 1 