DBRep_DrawableShape

CASCADE Topology V3, (c) Open Cascade
Locations 2
1
              1               0               0               0 
              0               1               0               0 
              0               0               1               0 
2  1 -1 0
Curve2ds 12
1 0 12.699999999999994 1 0 
1 0 6.3028536454133679 -0 -1 
7 0 0  8 16 3  1.555508585129262 12.699999999999996  1.7518581259786259 11.992684882823047  1.9482076668271164 11.285369597702289  2.1445572076744037 10.61960878411403  2.3409067485219781 10.036948752068053  2.5372562893739983 9.5738362184071537  2.7336058302241781 9.2563949815049948  2.9299553710748083 9.0976736888852585  3.3226544527735364 9.0976736888852585  3.5190039936217401 9.2563949815131945  3.7153535344617339 9.5738362183672283  3.9117030753228437 10.036948752127063  4.108052616163258 10.619608784086706  4.3044021570186111 11.285369597712728  4.5007516978697177 11.992684882823047  4.6971012387190818 12.699999999999996 
 1.5707963267948821 9 3.1415926535897931 7 4.7123889803847048 9
7 0 0  7 26 5  0.23975844536844562 0.019668338233781588  0.24003127423830459 0.082474379215064592  0.23954152762477834 0.1453593711362966  0.23828406811579025 0.20809272186246658  0.23626459355234894 0.27050814219894931  0.23349309477121677 0.3324640235220494  0.22998377406735943 0.39381585139267755  0.22385017815780817 0.48182436127579281  0.22179234400392553 0.50909788080276752  0.21958976759550408 0.53621045796143807  0.21724437896318757 0.5631529588625569  0.21475817660466978 0.58991756977192211  0.21213321160207443 0.61649749538202414  0.20447593914722911 0.68966742739633413  0.19915085597313695 0.7358481724303455  0.19340771934290021 0.78139819825369827  0.18725768487551062 0.82629864468005665  0.18071155889489812 0.87053813031653438  0.17377955073701082 0.91411097357267701  0.14879266817514092 1.0608015778804853  0.12893429279984608 1.1605515796596726  0.10699765727270968 1.2565246226534297  0.083065341448069249 1.3488699779182309  0.057220751702161544 1.4377296135893323  0.029533252116532654 1.5232779041425155  0 1.6057524066943021 
 0 8 0.23832329968607102 6 0.34620032044206195 6 0.53743679043872827 6 1 8
7 0 0  7 26 5  0.23975844536844537 6.3028536454133688  0.23951753575732884 6.2473955155006822  0.23868191088124252 6.1919663189931224  0.23725399486532556 6.136715753465408  0.23524193255515416 6.0817562087892352  0.23265640217259986 6.0271839600052255  0.22951035729052102 5.9730937647369862  0.22393159683290817 5.8921694607148796  0.22189870017183513 5.8649005822383691  0.21972510296346406 5.8377906878138006  0.21741295513490985 5.8108486358761429  0.21496444621832117 5.7840819859018122  0.21238178984919712 5.7574972991112316  0.20475949018683151 5.6833773029554973  0.19942063695500248 5.6362687226044281  0.19366354671114258 5.5898060406905117  0.18750058652244955 5.5440081226877238  0.18094350743648913 5.498886122891828  0.17400322805309548 5.4544454378450302  0.1489490104629104 5.304537573688938  0.12903551970201144 5.2025373634115528  0.10705816695354363 5.1044079782111682  0.083099872622897891 5.0099902009154071  0.057240198467338958 4.9191358158879952  0.029543438259997935 4.8316680698167254  0 4.7473450602840952 
 0 8 0.21340710814642028 6 0.32275878125137258 6 0.52045671967718632 6 1 8
1 0 0.019668338233781588 1 0 
1 0 6.3028536454133679 1 0 
7 0 0  7 26 5  1.696128026962554 4.6774329004852824  1.6665982630663871 4.7598976618396449  1.6389137957314153 4.8454355410147825  1.6130718158796347 4.9342839397313645  1.5891416563369671 5.0266171472292482  1.5672066803771105 5.1225771017652786  1.5473494243483492 5.2223130630539707  1.5223610046296476 5.3689958651513807  1.5154270700816341 5.412576130605026  1.5088791547489229 5.4568233017184564  1.5027274732478897 5.501731699493944  1.496982837747066 5.5472899419646344  1.4916564100489573 5.5934791641638286  1.4839975305584938 5.666660409086874  1.4813721692216208 5.6932429670654825  1.478885598249837 5.7200102538747641  1.4765398693894589 5.7469554727044621  1.4743369817935361 5.7740708079157717  1.4722788661309842 5.8013471231747271  1.4657673009038927 5.8947763255884977  1.4620126784650953 5.96170167122572  1.4591369015115749 6.0293243829675589  1.4571574775376466 6.0974574999137001  1.4560850666021006 6.1659142600974359  1.4559258918544835 6.2344836117392903  1.4566687078160436 6.3028536454133679 
 0 8 0.4528598110867853 6 0.64014290651432815 6 0.74578047402226844 6 1 8
1 1.696128026962554 0 0 1 
1 6.3028536454133679 0 -1 -0 
7 0 0  7 20 4  1.4566687078160432 0.019668338233781588  1.4575209078102853 0.098106262724540622  1.4595613783427588 0.1763792652905033  1.4627782485211482 0.25402751341530094  1.4671349209153115 0.33079636146294739  1.4725949303765966 0.40647056609364662  1.4791135458610107 0.48085279048304552  1.4915520634296189 0.60144876744442222  1.4969058483595818 0.64855912907913971  1.5026779257453249 0.69502245731837431  1.5088559263677122 0.74082005492225267  1.5154281014073965 0.78594091423850965  1.5223835393835878 0.83037977872072211  1.5474427600418679 0.97999778967841245  1.5673350825157408 1.0817304164589177  1.589281339407542 1.1796103542333729  1.6131992610665411 1.2737960851342831  1.639009954905166 1.3644351438024445  1.6666497469388721 1.4517032122833744  1.696128026962554 1.5358402468954939 
 0 8 0.30869772474384799 6 0.51088035680731037 6 1 8
7 0 0  8 16 3  1.6254207449280837 0  1.8217702857774458 0.70731511717694207  2.0181198266265001 1.4146304022913456  2.2144693674739746 2.0803912158747959  2.4108189083214913 2.6630512479278128  2.6071684491720526 3.1261637815887093  2.8035179900234386 3.4436050184905449  2.999867530873614 3.6023263111146662  3.3925666125723377 3.6023263111146662  3.588916153420092 3.4436050184909512  3.7852656942651661 3.1261637815867296  3.9816152351156067 2.6630512479235207  4.1779647759639547 2.0803912158760127  4.3743143168191176 1.4146304022918608  4.5706638576685146 0.70731511717694917  4.7670133985178769 7.1054273576010019e-15 
 4.7123889803846897 9 6.2831853071795862 7 7.8539816339744828 9
Curves 9
2 79.819999999999979 103.25999999999995 207.42400010000003 0.75000127954993701 -0.017342049549142983 0.66120899418481338 0.66130844482320439 -6.1042824506399105e-17 -0.75011408519338907 0.013008515632933853 0.9998496153509463 0.011468443817390652 3.1750000000000007
3 79.819999999999936 103.25999999999995 207.4240001 -1.335209448291927e-32 -1.1102230246251568e-16 1 0.99973277767749313 -0.023116514383534445 -2.5664486517678413e-18 0.023116514383534445 0.99973277767749313 1.1099263482500156e-16 4.8018100599408395 3.1750000000000007
7 0 0  7 26 5  84.043958311685756 103.19753557876888 207.4240001  84.042820743692275 102.99809640606331 207.4240001  84.023872556077421 102.79869344920748 207.4240001  83.987061822353709 102.60134827346856 207.4240001  83.932830761685736 102.40787293440221 207.42400009999997  83.861959948876049 102.21988989143409 207.42400009999997  83.775508733718283 102.03883412890107 207.42400009999997  83.629289549031782 101.78767583361095 207.42400009999997  83.580804825280907 101.71106592316383 207.42400009999997  83.529514933665766 101.63621053079434 207.42400009999997  83.475542430449863 101.56319797845926 207.42400009999997  83.419013522778684 101.49210321571374 207.42400009999997  83.360056398499736 101.42298890293719 207.42400009999997  83.190207918541091 101.23698772124359 207.42400009999997  83.074390618949693 101.12445573812685 207.42400009999997  82.952058345479728 101.01858914100045 207.42400009999997  82.823913360370895 100.91954651477009 207.42400009999997  82.690628617482545 100.82739024700227 207.42400009999997  82.55283198237133 100.74210570623971 207.42400009999997  82.06826316067739 100.47376418487553 207.42400009999997  81.70283685955873 100.32391806214456 207.42400009999997  81.322262437919662 100.21238195711614 207.42400009999997  80.93256150350895 100.1363832774872 207.42400009999997  80.5383096434431 100.09238684020913 207.42400009999997  80.142526135647117 100.07669366943534 207.42400009999997  79.746605066832274 100.08584843087397 207.42400009999997 
 0 8 0.23832329968607102 6 0.34620032044206195 6 0.53743679043872827 6 1 8
7 0 0  7 26 5  84.043958311685728 103.19753557876888 207.4240001  84.044962791391541 103.37364162488761 207.4240001  84.032081086773402 103.54988016873703 207.4240001  84.005323112079779 103.72488940415609 207.4240001  83.964988248408147 103.89742956705835 207.4240001  83.911582631943546 104.06637487531081 207.4240001  83.845782223923536 104.23071190486066 207.4240001  83.728811680541412 104.47093156614901 207.4240001  83.686144860740129 104.55088724790684 207.4240001  83.640549632081715 104.62929971645103 207.4240001  83.59214072526018 104.70607098225082 207.4240001  83.541037467596098 104.78111586552745 207.4240001  83.487362078125599 104.85436106460395 207.4240001  83.32977063619451 105.05479852311143 207.4240001  83.220300993118116 105.17776490690035 207.4240001  83.103553620735312 105.29428371515053 207.4240001  82.980254327771092 105.40412295751503 207.4240001  82.851106074587847 105.50715456658762 207.4240001  82.716770840680752 105.6033353047381 207.4240001  82.240904027650174 105.90943994986317 207.4240001  81.877476162283543 106.08574127349266 207.4240001  81.49562250690964 106.222670530082 207.4240001  81.10196267924951 106.32257821627496 207.4240001  80.701644170506327 106.38875167066396 207.4240001  80.298189809485805 106.42479162135828 207.4240001  79.893394933167741 106.43415156912604 207.4240001 
 0 8 0.21340710814642028 6 0.32275878125137258 6 0.52045671967718632 6 1 8
2 73.092654683877598 102.99757851831147 215.04786292259027 -3.9458028715143871e-15 -0.99965622890848282 -0.026218771986325631 0.66143637689006296 0.019664112537969729 -0.74974345079142968 0.75000127954993967 -0.017342049549144863 0.66120899418481027 13.345198324196803
7 0 0  7 26 5  79.746605066832302 106.03415156912598 222.67500009999998  80.142479372766786 106.04330524928085 222.67500009999998  80.538216417832828 106.02761687299011 222.67500009999998  80.932422233632934 105.98363225888465 222.67500009999998  81.322078686099033 105.90765383593659 222.67500009999998  81.702612272598728 105.79614770836044 222.67500009999998  82.068004316336911 105.6463420029574 222.67500009999998  82.55258326800417 105.37804736862216 222.67500009999998  82.690413367300678 105.29275674092092 222.67500009999998  82.823730593459757 105.2005917521644 222.67500009999998  82.951906760726118 105.10153769041887 222.67500009999998  83.07426855190036 104.99565690917655 222.67500009999998  83.190113310272366 104.88310802276816 222.67500009999998  83.359995459121606 104.69708226221478 222.67500009999998  83.418960882146848 104.62796241051274 222.67500009999998  83.475497668635072 104.55686164909503 222.67500009999998  83.529477589572622 104.48384265119213 222.67500009999998  83.580774396706843 104.40898038415091 222.67500009999998  83.629265493557298 104.33236319325459 222.67500009999998  83.784494443255142 104.06573678139409 222.67500009999998  83.877314949509 103.86766124503674 222.67500009999998  83.951486953669431 103.66149357076111 222.67500009999998  84.005666842459263 103.44913403253213 222.67500009999998  84.03893899997648 103.23272424194158 222.67500009999998  84.050846719901514 103.0146430853202 222.67500009999998  84.041676540256319 102.79753557876883 222.67500009999998 
 0 8 0.4528598110867853 6 0.64014290651432815 6 0.74578047402226844 6 1 8
2 79.820000000000007 102.85999999999994 222.67500009999998 0.75000127954993956 0.017342049549138948 -0.66120899418481061 0.66143637689006307 -0.01966411253797494 0.74974345079142934 -3.9492827417197835e-15 -0.99965622890848294 -0.026218771986325631 3.1749999999999998
7 0 0  7 20 4  84.041676540256319 102.79753557876883 222.67500009999998  84.031155997557661 102.54845771102293 222.67500009999998  83.992879461325373 102.30035163019834 222.67500009999998  83.92715861625841 102.0571793261667 222.67500009999998  83.835511786607569 101.82217057183345 222.67500009999998  83.719986819244966 101.59797674703479 222.67500009999998  83.58310246382554 101.38668683214686 222.67500009999998  83.326003665006922 101.06089707709599 222.67500009999998  83.216264348997228 100.93806690175911 222.67500009999998  83.09925905169176 100.82169654535225 222.67500009999998  82.97571416374187 100.71201604844609 222.67500009999998  82.846332868248723 100.60915165114636 222.67500009999998  82.711777059357431 100.51314490521867 222.67500009999998  82.236091872731819 100.208228561518 222.67500009999998  81.873262507345984 100.03274986051932 222.67500009999998  81.492148538301805 99.896449090439489 222.67500009999998  81.099314367305752 99.796984574680721 222.67500009999998  80.699865251079999 99.731089502450075 222.67500009999998  80.297297031875431 99.695187735218809 222.67500009999998  79.893394933167698 99.685848430873904 222.67500009999998 
 0 8 0.30869772474384799 6 0.51088035680731037 6 1 8
3 79.820000000000007 102.85999999999999 222.67500009999998 -1.3603719617883886e-32 -1.1102230246251568e-16 1 -0.99973277767749313 -0.023116514383534202 -2.5664486517678413e-18 0.023116514383534202 -0.99973277767749313 -1.1099263482500156e-16 4.8018100599408386 3.1749999999999998
Polygon3D 0
PolygonOnTriangulations 0
Surfaces 5
10 0 6.2831853071795862 0 12.699999999999994
2 70.294983749715783 103.48024402927406 199.02664587385289 0.75000127954993689 -0.017342049549142976 0.66120899418481327 0.66130844482320439 -6.1476503155727997e-17 -0.75011408519338907 0.013008515632933853 0.9998496153509463 0.011468443817390652 3.1750000000000007
10 0 1.696128026962554 0.019668338233781588 6.3028536454133679
5 73.092654683877598 103.06 215.04950009999999 -3.9501872586491358e-15 -0.99965622890848294 -0.026218771986325631 0.66143637689006307 0.019664112537969725 -0.74974345079142957 0.75000127954993956 -0.017342049549144867 0.66120899418481038 10.170812418501981 3.1749999999999998
10 0 6.2831853071795862 0 12.700000000000001
2 79.820000000000007 102.85999999999999 222.67500009999998 -0.75000127954993689 -0.017342049549142795 0.66120899418481327 0.66130844482320439 -0.039320618386474354 0.74908279233688191 0.013008515632929136 0.9990761443889753 0.040958957919941121 3.1749999999999998
1 109.771 72.908999999999978 207.42400009999997 -1.3596310734468911e-32 -1.1102230246251565e-16 1 1.2246467991473532e-16 1 1.1102230246251565e-16 -1 1.2246467991473532e-16 0 
1 109.771 72.908999999999978 222.67500009999998 -1.3596310734468911e-32 -1.1102230246251565e-16 1 1.2246467991473532e-16 1 1.1102230246251565e-16 -1 1.2246467991473532e-16 0 
Triangulations 0

TShapes 28
Ve
1.00000005870046e-06
79.8933949331677 106.434151569126 207.4240001
0 0

0101101
*
Ve
1.00000005870046e-06
79.7466050668323 100.085848430874 207.4240001
0 0

0101101
*
Ed
 1e-07 1 1 0
1  1 0 1.55550858512926 4.69710123871908
2  1 1 0 1.55550858512926 4.69710123871908
2  2 2 0 1.55550858512926 4.69710123871908
4 G1 1 0 2 0
0

0101000
+28 2 -27 2 *
Ed
 1e-07 1 1 0
1  2 0 1.57079632679488 4.7123889803847
2  3 1 0 1.57079632679488 4.7123889803847
0

0101000
+28 2 -27 2 *
Wi

0101100
-26 0 +25 0 *
Fa
0  1e-07 1 0

0101000
+24 0 *
Ve
1.000001e-06
84.0439583116858 103.197535578769 207.4240001
0 0

0101101
*
Ed
 1e-06 1 1 0
1  3 0 0 1
2  4 2 0 0 1
0

0101000
+22 2 -27 2 *
Ed
 1e-06 1 1 0
1  4 0 0 1
2  5 2 0 0 1
0

0101000
+22 2 -28 2 *
Ve
1.000001e-06
84.0416765402563 102.797535578769 222.6750001
0 0

0101101
*
Ed
 1e-07 1 1 0
1  5 0 0.239758445368446 1.45666870781604
3  6 7G1 2 0 0.239758445368446 1.45666870781604
0

0101000
+22 2 -19 2 *
Ve
1.00000000355271e-06
79.7466050668323 106.034151569126 222.6750001
0 0

0101101
*
Ed
 1e-06 1 1 0
1  6 0 0 1
2  8 2 0 0 1
0

0101000
+17 2 -19 2 *
Ve
1.00000001464821e-06
79.8933949331677 99.6858484308739 222.6750001
0 0

0101101
*
Ed
 1e-07 1 1 0
1  7 0 1.53584024689549 4.67743290048528
2  9 2 0 1.53584024689549 4.67743290048528
2  10 3 0 1.53584024689549 4.67743290048528
4 G1 2 0 3 0
0

0101000
+15 2 -17 2 *
Ed
 1e-06 1 1 0
1  8 0 0 1
2  11 2 0 0 1
0

0101000
+19 2 -15 2 *
Wi

0101100
-21 0 +26 0 +20 0 -18 0 +16 0 +14 0 +13 0 +18 0 *
Fa
0  1e-07 2 0

0101000
+12 0 *
Wi

0101100
+20 0 -21 0 +25 0 *
Fa
0  1e-07 4 0

0101000
+10 0 *
Ed
 1e-07 1 1 0
1  9 0 4.71238898038469 7.85398163397448
2  12 3 0 4.71238898038469 7.85398163397448
0

0101000
+17 2 -15 2 *
Wi

0101100
-13 0 +8 0 -16 0 *
Fa
0  1e-07 5 0

0101000
+7 0 *
Wi

0101100
-14 0 -8 0 *
Fa
0  1e-07 3 0

0101000
+5 0 *
Sh

0101100
+23 0 +11 0 -9 0 +6 0 +4 0 *
So

0100000
+3 0 *
Co

0100000
+2 0 *

+1 1 