DBRep_DrawableShape

CASCADE Topology V3, (c) Open Cascade
Locations 2
1
              1               0               0               0 
              0               1               0               0 
              0               0               1               0 
2  1 -1 0
Curve2ds 16
1 0 0 0 1 
1 6.2831853071795862 0 0 1 
1 0 12.699999999999994 1 0 
1 0 9.4051096225355977 -0 -1 
7 0 0  8 9 2  -4.4408920985006262e-15 9.098094639615006  0.19826050855756244 9.0871765743929345  0.39652101711534382 9.2380654383244778  0.59478152567020071 9.5514137312117331  0.79304203423124342 10.014313126001865  0.991302542786347 10.60018217374037  1.1895630513452606 11.271601725153777  1.3878235599029642 11.985800953568097  1.5860840684605311 12.699999999999996 
 3.1263049119241693 9 4.7123889803847039 9
7 0 0  8 9 2  4.7276767220502975 12.699999999999996  4.9221152951914586 11.999568812077998  5.1165538683329874 11.29913746931126  5.3109924414588567 10.63905901611551  5.5054310146062484 10.059678822656698  5.699869587738033 9.59648519461253  5.8943081608988619 9.2751384545659175  6.0887467340384207 9.1088022335714971  6.2831853071795818 9.098094639615006 
 1.5707963267948815 9 3.1263049119241693 9
7 0 0  7 62 11  0 7.8190255540750773  0.029683419044161174 7.7343030107815665  0.057502521529734688 7.6464061408871604  0.083467312874600352 7.5550888827108587  0.10751214772054474 7.4601722004461024  0.12955602045656392 7.3615064114958138  0.14951461087585227 7.2589306933768878  0.17455877245267729 7.1083922275834608  0.18146754463022327 7.063940432550786  0.18799312522483033 7.0188085752896381  0.19412457511164508 6.9730023587127024  0.19985013286819983 6.9265332607606966  0.20515743026642616 6.8794205218250637  0.21273116088123059 6.8052938511686065  0.21529676774761958 6.7787046710868628  0.21772818257747614 6.7519343701994972  0.22002319581084531 6.7249895854238186  0.22217962418085849 6.6978779503284827  0.22419532619136481 6.6706083980335231  0.22728289059412557 6.6254100757659469  0.22843750324771234 6.6075666094163727  0.22953148593240152 6.5896638907796774  0.23056429435182513 6.57170494271453  0.23153540953616925 6.5536929852202643  0.23244433784217305 6.5356314354368816  0.23511566013095958 6.4784737141777358  0.2366494886872488 6.4392061676895951  0.2378870927682451 6.39976307010655  0.23882473558178627 6.3601843771627866  0.23945954022360766 6.3205105303222382  0.23978954080056167 6.2807854804016019  0.23983247894492815 6.2115908172906984  0.23968272083807629 6.1821188062716388  0.23936467200432607 6.1526642594429299  0.23887843917147109 6.1232455705165192  0.23822447926828552 6.0938803300734303  0.23740359737184447 6.0645860183261533  0.23540402354120352 6.0053978222452802  0.23421634201793123 5.9755073707335695  0.2328551466281186 5.9457283943689232  0.23132196258900548 5.9160776547403673  0.22961857811561423 5.8865702602060299  0.22774702874438374 5.857220302096219  0.22379464036294933 5.8006171171626368  0.22173310192915174 5.7733431788795837  0.21952681469468208 5.7462304164487552  0.21717771092855012 5.7192879487220605  0.21468779092757687 5.6925235743210516  0.21205910711446815 5.6659440729360382  0.20439126270433985 5.5927733120167265  0.19905928113021451 5.546591752456651  0.19330920624533943 5.5010414282850366  0.18715219650216866 5.4561411252083616  0.18059905907087787 5.4119021590751553  0.17366000182038824 5.3683301485579369  0.14867065320289136 5.2217709859802639  0.12882195882692229 5.1221424053971445  0.10689964193912345 5.0262825844902705  0.082985992820125143 4.9340425565856876  0.057164098415914529 4.8452806486403013  0.029503023072061617 4.7598229854661414  0 4.677432900485285 
 0 8 0.23922149561080464 6 0.33729932699018095 6 0.39155781754123448 6 0.42674743043437602 6 0.50263637603279288 6 0.55893370555566169 6 0.61672988118339078 6 0.67105094012573219 6 0.7673524337668044 6 1 8
1 0 3.1219243153560114 1 0 
1 0 9.4051096225355977 1 0 
1 1.696128026962554 0 0 1 
1 9.4051096225355977 0 -1 -0 
7 0 0  7 62 11  1.696128026962554 4.747345060284097  1.666444607918381 4.8320676035776415  1.6386255054328638 4.9199644734718335  1.6126607140878797 5.0112817316486495  1.5886158792420793 5.106198413912761  1.5665720065059552 5.2048642028635257  1.54661341608671 5.3074399209822385  1.5215692545098793 5.4579783867756992  1.5146604823323249 5.5024301818084078  1.5081349017377257 5.547562039069545  1.5020034518509138 5.5933682556464648  1.4962778940943515 5.6398373535984794  1.4909705966961275 5.6869500925341185  1.4833968660813248 5.7610767631905633  1.4808312592149337 5.7876659432723256  1.4783998443850772 5.8144362441596877  1.47610483115171 5.8413810289353476  1.4739484027816967 5.8684926640306845  1.4719327007711882 5.8957622163256698  1.4688451363684283 5.9409605385932291  1.4676905237148417 5.9588040049428042  1.4665965410301529 5.9767067235795013  1.4655637326107294 5.9946656716446478  1.4645926174263855 6.0126776291389126  1.4636836891203815 6.0307391789222944  1.4610123668315969 6.0878969001814029  1.4594785382753031 6.1271644466696698  1.4582409341943101 6.1666075442525852  1.4573032913807697 6.2061862371963326  1.4566684867389452 6.2458600840370044  1.4563384861619932 6.2855851339575546  1.4562955480176265 6.3547797970695097  1.4564453061244886 6.3842518080896102  1.4567633549582621 6.4137063549193511  1.4572495877911522 6.4431250438467869  1.4579035476943842 6.4724902842908998  1.4587244295908834 6.5017845960392036  1.4607240034216304 6.5609727921210865  1.4619116849449405 6.5908632436328007  1.4632728803347899 6.6206422199974497  1.4648060643739398 6.6502929596260065  1.4665094488473682 6.679800354160343  1.4683809982186358 6.7091503122701486  1.4723333866001425 6.7657534972037237  1.4743949250339767 6.7930274354867963  1.4766012122684822 6.8201401979176213  1.4789503160346491 6.8470826656443018  1.481440236035658 6.8738470400453071  1.4840689198488042 6.9004265414303347  1.4917367642590389 6.97359730234969  1.4970687458332157 7.0197788619096437  1.5028188207181756 7.0653291860813914  1.5089758304614109 7.1102294891580602  1.5155289678927513 7.154468455291128  1.5224680251433298 7.1980404658084707  1.5474573737608401 7.3445996283848132  1.5673060681367157 7.4442282089667762  1.5892283850243918 7.5400880298725905  1.6131420341431797 7.6323280577760837  1.638963928547194 7.7210899657205694  1.6666250038907846 7.8065476288938465  1.696128026962554 7.8889377138738865 
 0 8 0.23922149561096753 6 0.33729932699032905 6 0.39155781754136298 6 0.4267474304345078 6 0.50263637603284828 6 0.55893370555760735 6 0.61672988118530625 6 0.67105094012764954 6 0.76735243376891116 6 1 8
1 0 0 0 1 
1 6.2831853071795862 0 0 1 
7 0 0  8 9 2  0 3.5969532879718216  0.18952148858271389 3.5596787443519182  0.37904297716597501 3.3747506152778843  0.56856446574514163 3.0442100552762485  0.7580859543322449 2.581407027203352  0.94760744291043364 2.0107868871828116  1.1371289314965616 1.365436614745575  1.3266504200789957 0.68271824484312915  1.5161719086617096 0 
 0.054624418133185783 9 1.570796326794897 9
7 0 0  8 9 2  4.6577645622515025 7.1054273576010019e-15  4.8609421553675123 0.73191198951076208  5.0641197484845026 1.4638242018208729  5.2672973415984616 2.1496939684923775  5.4704749347199622 2.743489700688778  5.6736525278298018 3.2052260027385504  5.8768301209485827 3.5071752210324623  6.0800077140635764 3.6369136751227717  6.2831853071795862 3.5969532879718216 
 4.7123889803846897 9 6.3378097253127716 9
Curves 13
1 -68.19532943740208 103.48024402927409 201.4082580943419 -0.75000127954993689 -0.017342049549142795 0.66120899418481327 
2 -79.819999999999951 103.25999999999998 207.42400010000003 -0.75000127954993701 -0.017342049549142799 0.66120899418481338 0.66130844482320439 -1.0093102953397115e-16 0.75011408519338907 -0.013008515632933607 0.9998496153509463 0.011468443817390652 3.1750000000000007
3 -79.819999999999908 103.25999999999998 207.4240001 -1.3603719617883886e-32 -1.1102230246251568e-16 1 -0.99973277767749313 -0.023116514383534202 -2.5664486517678413e-18 0.023116514383534202 -0.99973277767749313 -1.1099263482500156e-16 4.8018100599408395 3.1750000000000007
3 -79.819999999999908 103.25999999999998 207.4240001 -1.3603719617883886e-32 -1.1102230246251568e-16 1 -0.99973277767749313 -0.023116514383534202 -2.5664486517678413e-18 0.023116514383534202 -0.99973277767749313 -1.1099263482500156e-16 4.8018100599408395 3.1750000000000007
2 -79.819999999999951 103.25999999999998 207.42400010000003 -0.75000127954993701 -0.017342049549142799 0.66120899418481338 0.66130844482320439 -1.0093102953397115e-16 0.75011408519338907 -0.013008515632933607 0.9998496153509463 0.011468443817390652 3.1750000000000007
7 0 0  7 62 11  -79.893394933167713 106.43415156912607 207.4240001  -80.300107782055974 106.42474727266683 207.4240001  -80.705466050335872 106.3884095764797 207.4240001  -81.107652244596252 106.32163591235087 207.4240001  -81.503084911037305 106.22077237960301 207.4240001  -81.886524982963223 106.08248735427986 207.4240001  -82.251233229644825 105.90441155365205 207.4240001  -82.72750189698958 105.59573176103768 207.4240001  -82.861382741300446 105.4991612683033 207.4240001  -82.99004804902178 105.39575239951324 207.4240001  -83.11283534653937 105.28555205825472 207.4240001  -83.229041822239097 105.16869233536167 207.4240001  -83.337942584106329 105.04540957535173 207.4240001  -83.494619406983858 104.84451401964998 207.4240001  -83.547966364938119 104.77110615475306 207.4240001  -83.598732675644513 104.69590769957914 207.4240001  -83.646796506201369 104.61899276217187 207.4240001  -83.692039031033673 104.54044731404697 207.4240001  -83.734346138275555 104.4603701123783 207.4240001  -83.799074996525434 104.32601866965966 207.4240001  -83.823260133550789 104.27256642388525 207.4240001  -83.846135956045103 104.2185474932252 207.4240001  -83.867674594684345 104.16399450119171 207.4240001  -83.887849902003794 104.10894208644451 207.4240001  -83.90663745239813 104.05342690279082 207.4240001  -83.961489493058636 103.87685050779567 207.4240001  -83.992408676696371 103.75422986535189 207.4240001  -84.016539891291188 103.63002913783342 207.4240001  -84.033708653735644 103.50467381160739 207.4240001  -84.043796631854505 103.37861032315847 207.4240001  -84.046746889973448 103.25230556684603 207.4240001  -84.039481782906606 103.03273192306894 207.4240001  -84.032468318198909 102.93934465507427 207.4240001  -84.02154142049379 102.84628105388815 207.4240001  -84.006727363579941 102.75373135348917 207.4240001  -83.988071982983953 102.66187999976475 207.4240001  -83.965639830776539 102.57090548562478 207.4240001  -83.912691244529782 102.38866073778817 207.42400009999997  -83.881974245751778 102.2974428762756 207.42400009999997  -83.847451189327259 102.20751187422118 207.42400009999997  -83.809227757288923 102.11903701949163 207.42400009999997  -83.767424160276022 102.03217231010832 207.42400009999997  -83.722172839390524 101.94705714917892 207.42400009999997  -83.62797906876294 101.78558191722337 207.42400009999997  -83.579420938610724 101.70900100953261 207.42400009999997  -83.528059162145169 101.6341769339943 207.42400009999997  -83.474016419889125 101.56119784574149 207.42400009999997  -83.417419018377799 101.49013852316948 207.42400009999997  -83.358395220196385 101.42106145330271 207.42400009999997  -83.188361294940179 101.23516175354706 207.42400009999997  -83.072428486105551 101.12269819811964 207.42400009999997  -82.949986210672151 101.01690490936136 207.42400009999997  -82.821736917525627 100.91793959868588 207.42400009999997  -82.688353594655538 100.82586384503895 207.42400009999997  -82.550464011234467 100.74066228007578 207.42400009999997  -82.066018158129864 100.47284404741779 207.42400009999997  -81.700888255240827 100.3233474299374 207.42400009999997  -81.320666648520756 100.21207106423971 207.42400009999997  -80.931351201667937 100.13624834813781 207.42400009999997  -80.5374998051186 100.09235473125028 207.42400009999997  -80.142120886826248 100.07670303987956 207.42400009999997  -79.746605066832245 100.08584843087399 207.42400009999997 
 0 8 0.23922149561080464 6 0.33729932699018095 6 0.39155781754123448 6 0.42674743043437602 6 0.50263637603279288 6 0.55893370555566169 6 0.61672988118339078 6 0.67105094012573219 6 0.7673524337668044 6 1 8
2 -73.092654683877569 103.12242148168856 215.05113727740968 -3.7049690820321713e-15 0.99965622890848282 0.026218771986325631 -0.66143637689006296 0.019664112537969888 -0.74974345079142968 -0.75000127954993967 -0.017342049549144683 0.66120899418481027 6.996426512807159
2 -79.819999999999979 102.85999999999997 222.67500009999998 -0.75000127954993956 0.017342049549139128 -0.66120899418481061 -0.66143637689006307 -0.01966411253797478 0.74974345079142934 -3.704437581523686e-15 0.99965622890848294 0.026218771986325631 3.1749999999999998
7 0 0  7 62 11  -79.893394933167684 99.685848430873932 222.67500009999998  -80.300107782056116 99.69525272733317 222.67500009999998  -80.705466050335247 99.731590423519791 222.67500009999998  -81.107652244597261 99.798364087650469 222.67500009999998  -81.503084911036296 99.899227620395564 222.67500009999998  -81.886524982963735 100.03751264572085 222.67500009999998  -82.251233229644654 100.21558844634782 222.67500009999998  -82.727501896989509 100.52426823896228 222.67500009999998  -82.861382741300517 100.62083873169674 222.67500009999998  -82.990048049021752 100.72424760048679 222.67500009999998  -83.112835346539299 100.83444794174522 222.67500009999998  -83.229041822239125 100.95130766463829 222.67500009999998  -83.337942584106329 101.07459042464831 222.67500009999998  -83.494619406983801 101.27548598035001 222.67500009999998  -83.547966364938134 101.34889384524698 222.67500009999998  -83.598732675644527 101.42409230042087 222.67500009999998  -83.646796506201341 101.50100723782811 222.67500009999998  -83.692039031033644 101.57955268595299 222.67500009999998  -83.734346138275569 101.65962988762173 222.67500009999998  -83.799074996525434 101.79398133034033 222.67500009999998  -83.823260133550789 101.84743357611474 222.67500009999998  -83.846135956045103 101.9014525067748 222.67500009999998  -83.867674594684345 101.9560054988083 222.67500009999998  -83.887849902003794 102.01105791355548 222.67500009999998  -83.906637452398115 102.06657309720916 222.67500009999998  -83.961489493058579 102.24314949220421 222.67500009999998  -83.992408676696513 102.36577013464833 222.67500009999998  -84.016539891291103 102.4899708621665 222.67500009999998  -84.03370865373553 102.61532618839247 222.67500009999998  -84.043796631854619 102.74138967684168 222.67500009999998  -84.046746889973448 102.8676944331539 222.67500009999998  -84.039481782906492 103.08726807693432 222.67500009999998  -84.032468318198411 103.1806553449323 222.67500009999998  -84.021541420492639 103.27371894612165 222.67500009999998  -84.006727363577838 103.36626864652381 222.67500009999998  -83.988071982980657 103.45812000025136 222.67500009999998  -83.965639830771821 103.5490945143944 222.67500009999998  -83.912691244522534 103.73133926223379 222.67500009999998  -83.881974245743706 103.82255712374619 222.67500009999998  -83.847451189318363 103.91248812580042 222.67500009999998  -83.80922775727926 104.00096298052971 222.67500009999998  -83.767424160265577 104.08782768991274 222.67500009999998  -83.72217283937934 104.17294285084189 222.67500009999998  -83.627979068750292 104.33441808279684 222.67500009999998  -83.579420938597323 104.41099899048734 222.67500009999998  -83.528059162131072 104.48582306602535 222.67500009999998  -83.474016419874388 104.55880215427781 222.67500009999998  -83.417419018362423 104.62986147684948 222.67500009999998  -83.358395220180313 104.69893854671592 222.67500009999998  -83.188361294922217 104.88483824647071 222.67500009999998  -83.072428486086864 104.99730180189707 222.67500009999998  -82.949986210651943 105.10309509065502 222.67500009999998  -82.821736917504438 105.20206040132979 222.67500009999998  -82.688353594633853 105.29413615497556 222.67500009999998  -82.550464011211446 105.37933771993822 222.67500009999998  -82.06601815810825 105.64715595259105 222.67500009999998  -81.700888255221898 105.79665257006812 222.67500009999998  -81.320666648505423 105.90792893576329 222.67500009999998  -80.931351201656341 105.98375165186351 222.67500009999998  -80.537499805110755 106.02764526874998 222.67500009999998  -80.142120886822354 106.04329696012036 222.67500009999998  -79.746605066832274 106.03415156912602 222.67500009999998 
 0 8 0.23922149561096753 6 0.33729932699032905 6 0.39155781754136298 6 0.4267474304345078 6 0.50263637603284828 6 0.55893370555760735 6 0.61672988118530625 6 0.67105094012764954 6 0.76735243376891116 6 1 8
2 -79.819999999999979 102.85999999999997 222.67500009999998 -0.75000127954993956 0.017342049549139128 -0.66120899418481061 -0.66143637689006307 -0.01966411253797478 0.74974345079142934 -3.704437581523686e-15 0.99965622890848294 0.026218771986325631 3.1749999999999998
1 -77.720345687686304 102.98484296337706 220.2966622343304 0.75000127954993689 -0.017342049549142976 0.66120899418481327 
3 -79.819999999999979 102.86000000000001 222.67500009999998 -1.335209448291927e-32 -1.1102230246251568e-16 1 0.99973277767749313 -0.023116514383534445 -2.5664486517678413e-18 0.023116514383534445 0.99973277767749313 1.1099263482500156e-16 4.8018100599408386 3.1749999999999998
3 -79.819999999999979 102.86000000000001 222.67500009999998 -1.335209448291927e-32 -1.1102230246251568e-16 1 0.99973277767749313 -0.023116514383534445 -2.5664486517678413e-18 0.023116514383534445 0.99973277767749313 1.1099263482500156e-16 4.8018100599408386 3.1749999999999998
Polygon3D 0
PolygonOnTriangulations 0
Surfaces 7
10 0 6.2831853071795862 0 12.699999999999994
2 -70.294983749715755 103.48024402927409 199.02664587385289 -0.75000127954993689 -0.017342049549142795 0.66120899418481327 0.66130844482320439 -1.0049735088464225e-16 0.75011408519338907 -0.013008515632933607 0.9998496153509463 0.011468443817390652 3.1750000000000007
10 0 6.2831853071795862 0 12.699999999999994
2 -70.294983749715755 103.48024402927409 199.02664587385289 -0.75000127954993689 -0.017342049549142795 0.66120899418481327 0.66130844482320439 -1.0049735088464225e-16 0.75011408519338907 -0.013008515632933607 0.9998496153509463 0.011468443817390652 3.1750000000000007
10 0 1.696128026962554 3.1219243153560114 9.4051096225355977
5 -73.092654683877569 103.06000000000003 215.04950009999999 -3.7053420984530382e-15 0.99965622890848294 0.026218771986325631 -0.66143637689006307 0.019664112537969885 -0.74974345079142957 -0.75000127954993956 -0.017342049549144686 0.66120899418481038 10.170812418501981 3.1749999999999998
10 0 6.2831853071795862 0 12.700000000000001
2 -79.819999999999979 102.86000000000001 222.67500009999998 0.75000127954993689 -0.017342049549142976 0.66120899418481327 0.66130844482320439 0.039320618386474188 -0.74908279233688191 -0.01300851563292889 0.9990761443889753 0.040958957919941121 3.1749999999999998
10 0 6.2831853071795862 0 12.700000000000001
2 -79.819999999999979 102.86000000000001 222.67500009999998 0.75000127954993689 -0.017342049549142976 0.66120899418481327 0.66130844482320439 0.039320618386474188 -0.74908279233688191 -0.01300851563292889 0.9990761443889753 0.040958957919941121 3.1749999999999998
1 -49.868999999999986 72.909000000000006 207.42400009999997 -1.3596310734468911e-32 -1.1102230246251565e-16 1 1.2246467991473532e-16 1 1.1102230246251565e-16 -1 1.2246467991473532e-16 0 
1 -49.868999999999986 72.909000000000006 222.67500009999998 -1.3596310734468911e-32 -1.1102230246251565e-16 1 1.2246467991473532e-16 1 1.1102230246251565e-16 -1 1.2246467991473532e-16 0 
Triangulations 0

TShapes 38
Ve
1e-07
-75.0189120585798 103.322464421231 207.4240001
0 0

0101101
*
Ve
1.00000205040488e-07
-77.7203456876863 103.26 209.805612320489
0 0

0101101
*
Ed
 1e-07 1 1 0
1  1 0 9.09809463961501 12.7
2  1 1 0 9.09809463961501 12.7
2  2 2 0 9.09809463961501 12.7
4 G1 1 0 2 0
0

0101000
+38 2 -37 2 *
Ve
1.00000005870046e-06
-79.8933949331677 106.434151569126 207.4240001
0 0

0101101
*
Ed
 1e-07 1 1 0
1  2 0 0 1.58608406846053
2  3 1 0 0 1.58608406846053
2  4 3 0 0 1.58608406846053
4 G1 1 0 3 0
0

0101000
+37 2 -35 2 *
Ed
 1e-07 1 1 0
1  3 0 3.12630491192417 4.7123889803847
2  5 1 0 3.12630491192417 4.7123889803847
0

0101000
+38 2 -35 2 *
Wi

0101100
-36 0 -34 0 +33 0 *
Fa
0  1e-07 1 0

0101000
+32 0 *
Ve
1.00000005861978e-06
-79.7466050668323 100.085848430874 207.4240001
0 0

0101101
*
Ed
 1e-07 1 1 0
1  4 0 1.57079632679488 3.12630491192417
2  6 2 0 1.57079632679488 3.12630491192417
0

0101000
+30 2 -38 2 *
Ed
 1e-07 1 1 0
1  5 0 4.7276767220503 6.28318530717959
2  3 2 0 4.7276767220503 6.28318530717959
2  4 3 0 4.7276767220503 6.28318530717959
4 G1 2 0 3 0
0

0101000
+30 2 -37 2 *
Wi

0101100
+29 0 -28 0 +36 0 *
Fa
0  1e-07 2 0

0101000
+27 0 *
Ed
 1e-06 1 1 0
1  6 0 0 1
2  7 3 0 0 1
0

0101000
+35 2 -30 2 *
Ve
1.00000024015218e-07
-77.7203456876863 102.984842963377 220.29666223433
0 0

0101101
*
Ed
 1e-07 1 1 0
1  7 0 0 1.69612802696255
3  8 9G1 3 0 0 1.69612802696255
0

0101000
+37 2 -24 2 *
Ve
1.00000002040879e-06
-79.7466050668323 106.034151569126 222.6750001
0 0

0101101
*
Ed
 1e-07 1 1 0
1  8 0 7.88893771387388 9.4051096225356
2  10 3 0 7.88893771387388 9.4051096225356
2  11 4 0 7.88893771387388 9.4051096225356
4 G1 3 0 4 0
0

0101000
+22 2 -24 2 *
Ve
1e-06
-79.8933949331677 99.6858484308739 222.6750001
0 0

0101101
*
Ed
 1e-06 1 1 0
1  9 0 0 1
2  12 3 0 0 1
0

0101000
+20 2 -22 2 *
Ed
 1e-07 1 1 0
1  10 0 3.12192431535601 4.7473450602841
2  10 3 0 3.12192431535601 4.7473450602841
2  11 5 0 3.12192431535601 4.7473450602841
4 G1 3 0 5 0
0

0101000
+24 2 -20 2 *
Wi

0101100
+28 0 +25 0 +34 0 -23 0 +21 0 +19 0 +18 0 +23 0 *
Fa
0  1e-07 3 0

0101000
+17 0 *
Wi

0101100
+25 0 +33 0 +29 0 *
Fa
0  1e-07 6 0

0101000
+15 0 *
Ve
1.00000014210855e-07
-75.0226261192261 102.922464421231 222.6750001
0 0

0101101
*
Ed
 1e-07 1 1 0
1  11 0 0 3.59695328797181
2  13 4 0 0 3.59695328797181
2  14 5 0 0 3.59695328797181
4 G1 4 0 5 0
0

0101000
+24 2 -13 2 *
Ed
 1e-07 1 1 0
1  12 0 0.0546244181331858 1.5707963267949
2  15 4 0 0.0546244181331858 1.5707963267949
0

0101000
+13 2 -22 2 *
Wi

0101100
-12 0 -11 0 -21 0 *
Fa
0  1e-07 4 0

0101000
+10 0 *
Ed
 1e-07 1 1 0
1  13 0 4.71238898038469 6.33780972531277
2  16 5 0 4.71238898038469 6.33780972531277
0

0101000
+20 2 -13 2 *
Wi

0101100
-19 0 +11 0 +8 0 *
Fa
0  1e-07 7 0

0101000
+7 0 *
Wi

0101100
-18 0 -8 0 +12 0 *
Fa
0  1e-07 5 0

0101000
+5 0 *
Sh

0101100
+31 0 +26 0 +16 0 -14 0 +9 0 +6 0 +4 0 *
So

0100000
+3 0 *
Co

0100000
+2 0 *

+1 1 