<svg xmlns="http://www.w3.org/2000/svg" width="1000" height="735" viewBox="0 0 1000 735" font-family="Helvetica, Arial, sans-serif"><defs><marker id="arr" markerWidth="8" markerHeight="8" refX="7" refY="4" orient="auto"><path d="M0,0 L8,4 L0,8 z" fill="#333"/></marker></defs><rect width="1000" height="735" fill="#fff"/><text x="10" y="22" font-size="15" font-weight="bold">E  table-opening station: section along the tangent (looking from +X; gun toward the right)</text><text x="10" y="694" font-size="12" fill="#111">Above the collar: Y rails, X beam and carriage (gun side: X, Y, roll, tilt). Below: four posts, a shelf on four belt-linked Tr8x2 screws, one motor (work side: Z).</text><text x="10" y="709" font-size="12" fill="#111">WELD height is set per tube from the work (camera triangulation or a centre plunger); LOAD drops the shelf ~70 mm so the tube slides out the front.</text><text x="10" y="724" font-size="12" fill="#111">Stylus reaches down the gap between tube OD and the opening, touching the OD at the dot's angle 9 mm below the joint; it lifts clear before LOAD.</text><polygon points="0.0,347.8 213.3,347.8 213.3,318.8 0.0,318.8" fill="#e8d2a8" fill-opacity="1.0" stroke="#a07a40" stroke-width="1"/><polygon points="368.5,347.8 969.7,347.8 969.7,318.8 368.5,318.8" fill="#e8d2a8" fill-opacity="1.0" stroke="#a07a40" stroke-width="1"/><polygon points="38.8,318.8 213.3,318.8 213.3,306.4 38.8,306.4" fill="#dfe3e8" fill-opacity="1.0" stroke="#556" stroke-width="1"/><polygon points="368.5,318.8 737.0,318.8 737.0,306.4 368.5,306.4" fill="#dfe3e8" fill-opacity="1.0" stroke="#556" stroke-width="1"/><text x="378.2" y="338.1" font-size="9" text-anchor="start" fill="#111">bench top</text><text x="581.8" y="302.6" font-size="9" text-anchor="start" fill="#111">collar</text><polygon points="58.2,306.4 698.2,306.4 698.2,294.8 58.2,294.8" fill="#9aa" fill-opacity="1.0" stroke="#344" stroke-width="1"/><text x="610.9" y="285.1" font-size="9" text-anchor="start" fill="#111">Y rail (+X side shown)</text><polygon points="465.5,294.8 484.8,294.8 484.8,275.4 465.5,275.4" fill="#8a9" fill-opacity="1.0" stroke="#243" stroke-width="1"/><text x="489.7" y="277.3" font-size="9" text-anchor="start" fill="#111">X beam</text><polygon points="455.8,275.4 543.0,275.4 543.0,256.0 455.8,256.0" fill="#b8d8a0" fill-opacity="1.0" stroke="#361" stroke-width="1"/><polyline points="480.6,284.6 479.8,281.0 479.0,277.5 478.0,274.0 477.1,270.5 476.0,267.0 474.9,263.5 473.7,260.1 472.4,256.7 471.1,253.3 469.8,249.9 468.3,246.6 466.8,243.3 465.3,240.0 463.6,236.7 461.9,233.5 460.2,230.3 458.4,227.1 456.5,224.0 454.6,220.9 452.6,217.9 450.6,214.9 448.5,211.9 446.4,208.9 444.2,206.0 441.9,203.2 439.6,200.4 437.2,197.6 434.8,194.9 432.3,192.2 429.8,189.6 427.3,187.0 424.7,184.5 422.0,182.0 419.3,179.5 416.5,177.2 413.7,174.8 410.9,172.6 408.0,170.3 405.1,168.2 402.1,166.0" fill="none" stroke="#6a4" stroke-width="4"/><polyline points="499.4,256.0 466.7,242.9" fill="none" stroke="#6a4" stroke-width="3"/><text x="436.4" y="140.7" font-size="9" text-anchor="start" fill="#361">tilt arc about the hole axis</text><polygon points="297.5,313.1 297.9,313.9 298.6,314.6 299.6,315.2 300.4,315.4 300.9,315.2 317.8,303.0 360.5,251.9 369.9,239.4 370.3,236.4 368.0,232.3 363.8,228.2 358.8,225.3 354.2,224.2 351.3,225.4 342.0,237.8 304.6,293.0 297.5,312.6" fill="#9bb7d4" fill-opacity="0.9" stroke="#234" stroke-width="1"/><polygon points="344.3,216.6 349.6,236.8 376.9,248.2 447.1,155.0 441.9,134.8 414.6,123.4" fill="#9bb7d4" fill-opacity="0.9" stroke="#234" stroke-width="1"/><polygon points="398.4,184.9 399.3,206.1 403.9,223.9 519.6,209.2 518.6,188.0 514.0,170.2" fill="#7f9fc4" fill-opacity="0.9" stroke="#234" stroke-width="1"/><circle cx="290.9" cy="324.9" r="4" fill="#d00"/><polygon points="229.3,466.5 352.5,466.5 352.5,318.8 229.3,318.8" fill="#eee" fill-opacity="1.0" stroke="#555" stroke-width="1"/><line x1="229.3" y1="324.9" x2="352.5" y2="324.9" stroke="#555" stroke-width="1" stroke-dasharray="4,3"/><polygon points="116.4,549.9 407.3,549.9 407.3,515.0 116.4,515.0" fill="#e8d9b5" fill-opacity="1.0" stroke="#865" stroke-width="1"/><polygon points="118.3,515.0 184.2,515.0 184.2,400.6 118.3,400.6" fill="#e8d9b5" fill-opacity="1.0" stroke="#865" stroke-width="1"/><polygon points="97.0,561.6 484.8,561.6 484.8,549.9 97.0,549.9" fill="#c9c9c9" fill-opacity="1.0" stroke="#444" stroke-width="1"/><text x="101.8" y="575.1" font-size="9" text-anchor="start" fill="#111">shelf (WELD height)</text><polygon points="105.7,561.6 117.3,561.6 117.3,318.8 105.7,318.8" fill="#aaa" fill-opacity="1.0" stroke="#444" stroke-width="1"/><polygon points="464.5,561.6 476.1,561.6 476.1,318.8 464.5,318.8" fill="#aaa" fill-opacity="1.0" stroke="#444" stroke-width="1"/><polygon points="97.0,629.4 484.8,629.4 484.8,617.8 97.0,617.8" fill="none" fill-opacity="1.0" stroke="#888" stroke-width="1" stroke-dasharray="5,4"/><text x="101.8" y="643.0" font-size="9" text-anchor="start" fill="#666">shelf at LOAD (-70 mm): tube slides out toward -X</text><polygon points="504.2,584.8 545.0,584.8 545.0,544.1 504.2,544.1" fill="#555" fill-opacity="1.0" stroke="#000" stroke-width="1"/><text x="548.8" y="565.4" font-size="9" text-anchor="start" fill="#111">Z motor + belt to 4 screws</text><circle cx="290.9" cy="333.6" r="2.9" fill="#fff" stroke="#000" stroke-width="1"/><polyline points="290.9,333.6 296.7,333.6 296.7,298.7" fill="none" stroke="#333" stroke-width="2"/><text x="302.5" y="344.3" font-size="9" text-anchor="start" fill="#111">stylus (in the gap, +X side)</text><polygon points="211.4,250.2 234.7,250.2 234.7,234.7 211.4,234.7" fill="#333" fill-opacity="1.0" stroke="#000" stroke-width="1"/><line x1="223.0" y1="242.5" x2="290.9" y2="324.9" stroke="#b00" stroke-width="1" stroke-dasharray="3,3"/><text x="38.8" y="227.9" font-size="9" text-anchor="start" fill="#111">joint camera (+Y, inboard)</text><line x1="517.3" y1="189.5" x2="610.9" y2="179.5" stroke="#222" stroke-width="5"/><polyline points="921.2,179.5 925.7,179.5 930.1,179.6 934.5,179.7 939.0,179.9 943.4,180.2 947.8,180.5 952.3,180.9 956.7,181.3 961.1,181.8 965.5,182.4 969.9,183.0 974.3,183.6 978.7,184.4 983.1,185.1 987.4,186.0 991.8,186.9 996.1,187.8 1000.4,188.8 1004.8,189.9 1009.1,191.0 1013.3,192.2 1017.6,193.4 1021.9,194.7 1026.1,196.1 1030.3,197.5 1034.5,198.9 1038.7,200.4 1042.8,202.0 1047.0,203.6 1051.1,205.3 1055.2,207.0 1059.3,208.8 1063.3,210.6 1067.3,212.5 1071.3,214.5 1075.3,216.4 1079.2,218.5 1083.2,220.6 1087.0,222.7 1090.9,224.9" fill="none" stroke="#222" stroke-width="5"/><line x1="610.9" y1="179.5" x2="921.2" y2="179.5" stroke="#222" stroke-width="5"/><text x="620.6" y="164.9" font-size="9" text-anchor="start" fill="#111">cable clamped on the carriage, then along the bench</text></svg>
