<?xml version='1.0' encoding='ascii'?>
<svg xmlns="http://www.w3.org/2000/svg" version="1.1" width="752" height="800"><defs><clipPath id="co2-coupler-clip-front" clipPathUnits="userSpaceOnUse"><path clip-rule="evenodd" d="M-100000,-100000 L100000,-100000 L100000,100000 L-100000,100000 Z M439.212,409.575 L439.215,409.580 L445.005,417.817 L445.009,417.822 L445.014,417.826 L450.274,420.862 L450.279,420.865 L450.284,420.862 L451.755,420.013 L451.776,420.002 L451.798,419.993 L451.821,419.987 L451.844,419.982 L451.868,419.980 L451.892,419.980 L451.916,419.982 L451.939,419.987 L451.962,419.993 L451.984,420.002 L452.005,420.013 L461.170,425.303 L461.177,425.307 L461.537,425.485 L461.547,425.489 L461.922,425.635 L461.932,425.639 L462.323,425.754 L462.333,425.757 L462.738,425.842 L462.748,425.843 L463.167,425.896 L463.177,425.897 L463.609,425.919 L463.618,425.919 L464.062,425.909 L464.070,425.909 L464.525,425.867 L464.533,425.866 L464.998,425.792 L465.005,425.791 L465.478,425.686 L465.485,425.684 L465.965,425.547 L465.972,425.545 L466.458,425.377 L466.464,425.375 L466.955,425.176 L466.961,425.174 L467.455,424.945 L467.460,424.942 L467.957,424.683 L467.962,424.681 L468.460,424.393 L468.464,424.390 L468.961,424.074 L468.966,424.071 L469.461,423.726 L469.465,423.724 L469.958,423.353 L469.962,423.350 L470.450,422.953 L470.454,422.950 L470.937,422.528 L470.940,422.525 L471.059,422.414 L471.072,422.402 L471.273,422.240 L471.276,422.237 L471.758,421.817 L471.761,421.815 L472.237,421.372 L472.240,421.369 L472.707,420.903 L472.710,420.900 L473.169,420.413 L473.171,420.410 L473.620,419.902 L473.622,419.899 L474.060,419.373 L474.062,419.370 L474.487,418.826 L474.489,418.823 L474.901,418.262 L474.903,418.259 L475.301,417.683 L475.303,417.680 L475.685,417.091 L475.687,417.088 L476.052,416.487 L476.054,416.484 L476.403,415.872 L476.405,415.869 L476.735,415.248 L476.737,415.245 L477.048,414.617 L477.050,414.613 L477.341,413.979 L477.343,413.976 L477.614,413.337 L477.616,413.334 L477.866,412.693 L477.867,412.689 L478.096,412.047 L478.097,412.043 L478.303,411.401 L478.304,411.397 L478.488,410.758 L478.489,410.754 L478.649,410.118 L478.650,410.113 L478.786,409.483 L478.787,409.478 L478.900,408.855 L478.900,408.850 L478.989,408.235 L478.989,408.230 L479.053,407.625 L479.054,407.620 L479.093,407.026 L479.093,407.021 L479.108,406.440 L479.108,406.434 L479.098,405.868 L479.098,405.862 L479.063,405.312 L479.063,405.306 L479.004,404.773 L479.003,404.767 L478.920,404.252 L478.919,404.245 L478.811,403.751 L478.810,403.744 L478.679,403.271 L478.677,403.263 L478.522,402.812 L478.520,402.805 L478.343,402.377 L478.339,402.370 L478.140,401.966 L478.136,401.959 L477.915,401.581 L477.910,401.573 L477.668,401.221 L477.662,401.214 L477.400,400.889 L477.393,400.882 L477.111,400.585 L477.103,400.577 L476.802,400.309 L476.794,400.302 L476.474,400.062 L476.465,400.056 L476.124,399.844 L476.121,399.842 L475.278,399.355 L475.272,399.352 L474.916,399.171 L474.906,399.166 L474.535,399.016 L474.525,399.012 L474.139,398.893 L474.129,398.890 L473.729,398.801 L473.719,398.799 L473.473,398.764 L473.450,398.760 L473.427,398.753 L473.405,398.745 L473.383,398.734 L473.363,398.721 L473.345,398.706 L473.327,398.690 L473.312,398.672 L473.298,398.652 L473.286,398.632 L473.276,398.610 L473.268,398.587 L473.262,398.564 L473.259,398.541 L473.258,398.517 L473.258,398.136 L473.258,398.133 L473.257,398.089 L473.257,398.084 L473.254,398.040 L473.254,398.035 L473.249,397.989 L473.249,397.985 L473.242,397.938 L473.241,397.934 L473.233,397.887 L473.232,397.882 L473.222,397.834 L473.221,397.830 L473.209,397.781 L473.208,397.777 L473.195,397.728 L473.194,397.725 L473.178,397.675 L473.177,397.671 L473.163,397.632 L473.156,397.609 L473.152,397.584 L473.150,397.560 L473.150,397.535 L473.153,397.511 L473.158,397.486 L473.165,397.463 L473.175,397.440 L473.222,397.345 L473.225,397.337 L473.301,397.147 L473.305,397.138 L473.364,396.947 L473.367,396.937 L473.410,396.745 L473.412,396.735 L473.439,396.542 L473.440,396.532 L473.450,396.337 L473.450,396.330 L473.450,395.353 L473.450,395.348 L473.443,395.152 L473.442,395.142 L473.419,394.949 L473.417,394.939 L473.377,394.747 L473.375,394.737 L473.318,394.546 L473.315,394.537 L473.243,394.347 L473.239,394.338 L473.150,394.150 L473.146,394.142 L473.041,393.957 L473.036,393.949 L472.915,393.766 L472.910,393.759 L472.773,393.580 L472.768,393.573 L472.616,393.397 L472.611,393.392 L472.443,393.220 L472.438,393.215 L472.255,393.047 L472.250,393.043 L472.053,392.880 L472.048,392.876 L471.837,392.719 L471.832,392.716 L471.607,392.564 L471.602,392.561 L471.365,392.416 L471.360,392.414 L471.110,392.276 L471.105,392.273 L470.844,392.142 L470.839,392.140 L470.566,392.017 L470.562,392.015 L470.278,391.899 L470.274,391.897 L469.981,391.790 L469.977,391.788 L469.674,391.689 L469.670,391.687 L469.360,391.597 L469.356,391.596 L469.038,391.514 L469.034,391.513 L468.709,391.440 L468.705,391.439 L468.375,391.376 L468.371,391.375 L468.035,391.321 L468.031,391.321 L467.691,391.276 L467.688,391.276 L467.344,391.241 L467.340,391.241 L466.994,391.216 L466.991,391.216 L466.643,391.201 L466.639,391.201 L466.290,391.195 L466.287,391.195 L465.938,391.200 L465.934,391.200 L465.586,391.215 L465.583,391.215 L465.236,391.239 L465.233,391.240 L464.889,391.274 L464.885,391.274 L464.545,391.318 L464.541,391.319 L464.205,391.372 L464.202,391.373 L463.871,391.436 L463.867,391.437 L463.542,391.509 L463.538,391.510 L463.219,391.591 L463.215,391.592 L462.905,391.683 L462.901,391.684 L462.640,391.769 L462.617,391.775 L462.593,391.779 L462.568,391.781 L462.544,391.781 L462.519,391.777 L462.496,391.772 L462.472,391.764 L462.450,391.754 L462.429,391.742 L462.409,391.728 L462.390,391.712 L462.373,391.694 L462.358,391.675 L461.877,390.990 L461.872,390.985 L461.867,390.981 L456.607,387.944 L456.602,387.942 L456.597,387.944 L445.014,394.632 L445.009,394.635 L445.006,394.641 L439.214,409.570 L439.212,409.575 Z"/></clipPath></defs>
    <g id="ViewLayer_LineSet">
        <g id="strokes" stroke="rgb(0,0,0)" fill="none">
            <path fill="none" stroke-width="1.5" stroke-linecap="round" stroke-opacity="1.0" stroke="rgb(0, 0, 0)" stroke-linejoin="round" d=" M 403.897, 30.728 395.237, 35.728 386.577, 40.728 377.917, 45.728 369.256, 50.728 360.596, 55.728 351.936, 60.728 343.276, 65.728 334.615, 70.728 325.955, 75.728 317.295, 80.728 308.635, 85.728 299.974, 90.728 291.314, 95.728 282.654, 100.728 273.994, 105.728 265.333, 110.728 256.673, 115.728 248.013, 120.728 239.353, 125.728 230.692, 130.728 222.032, 135.728 213.372, 140.728 204.712, 145.728 196.051, 150.728 187.391, 155.728 178.731, 160.728 170.070, 165.728 161.410, 170.728 152.750, 175.728 144.090, 180.728 135.429, 185.728 126.769, 190.728 118.109, 195.728 109.449, 200.728 100.788, 205.728 92.128, 210.728 83.468, 215.728 74.808, 220.728 66.147, 225.728 54.986, 232.172 54.986, 242.172 54.986, 252.172 54.986, 262.172 54.986, 272.172 54.986, 282.172 54.986, 292.172 54.986, 302.172 54.986, 312.172 54.986, 322.172 54.986, 332.172 54.986, 342.172 54.986, 352.172 54.986, 362.172 54.986, 372.172 54.986, 382.172 54.986, 392.172 54.986, 402.172 54.986, 412.172 54.986, 422.172 54.986, 432.172 54.986, 442.172 54.986, 452.172 54.986, 462.172 54.986, 472.172 54.986, 482.172 54.986, 492.172 54.986, 502.172 54.986, 512.172 54.986, 522.172 54.986, 532.172 54.986, 542.172 54.986, 552.172 54.986, 562.172 54.986, 572.983 63.646, 577.983 72.307, 582.983 80.967, 587.983 89.627, 592.983 98.287, 597.983 106.948, 602.983 115.608, 607.983 124.268, 612.983 132.929, 617.983 141.589, 622.983 150.249, 627.983 158.909, 632.983 167.570, 637.983 176.230, 642.983 184.890, 647.983 193.550, 652.983 202.211, 657.983 210.871, 662.983 219.531, 667.983 228.191, 672.983 236.852, 677.983 245.512, 682.983 254.172, 687.983 262.832, 692.983 271.493, 697.983 280.153, 702.983 288.813, 707.983 297.473, 712.983 306.134, 717.983 314.794, 722.983 323.454, 727.983 332.114, 732.983 340.775, 737.983 349.435, 742.983 353.300, 745.215 361.960, 740.215 370.620, 735.215 379.281, 730.215 387.941, 725.215 396.601, 720.215 405.262, 715.215 413.922, 710.215 422.582, 705.215 431.242, 700.215 439.903, 695.215 448.563, 690.215 457.223, 685.215 465.883, 680.215 474.544, 675.215 483.204, 670.215 491.864, 665.215 500.524, 660.215 509.185, 655.215 517.845, 650.215 526.505, 645.215 535.165, 640.215 543.826, 635.215 552.486, 630.215 561.146, 625.215 569.806, 620.215 578.467, 615.215 587.127, 610.215 595.787, 605.215 604.447, 600.215 613.108, 595.215 621.768, 590.215 630.428, 585.215 639.088, 580.215 647.749, 575.215 656.409, 570.215 665.069, 565.215 673.729, 560.215 682.390, 555.215 691.050, 550.215 702.211, 543.771 702.211, 533.771 702.211, 523.771 702.211, 513.771 702.211, 503.771 702.211, 493.771 702.211, 483.771 702.211, 473.771 702.211, 463.771 702.211, 453.771 702.211, 443.771 702.211, 433.771 702.211, 423.771 702.211, 413.771 702.211, 403.771 702.211, 393.771 702.211, 383.771 702.211, 373.771 702.211, 363.771 702.211, 353.771 702.211, 343.771 702.211, 333.771 702.211, 323.771 702.211, 313.771 702.211, 303.771 702.211, 293.771 702.211, 283.771 702.211, 273.771 702.211, 263.771 702.211, 253.771 702.211, 243.771 702.211, 233.771 702.211, 223.771 702.211, 213.771 702.211, 202.959 693.551, 197.959 684.891, 192.959 676.230, 187.959 667.570, 182.959 658.910, 177.959 650.250, 172.959 641.589, 167.959 632.929, 162.959 624.269, 157.959 615.609, 152.959 606.948, 147.959 598.288, 142.959 589.628, 137.959 580.968, 132.959 572.307, 127.959 563.647, 122.959 554.987, 117.959 546.327, 112.959 537.666, 107.959 529.006, 102.959 520.346, 97.959 511.686, 92.959 503.025, 87.959 494.365, 82.959 485.705, 77.959 477.045, 72.959 468.384, 67.959 459.724, 62.959 451.064, 57.959 442.404, 52.959 433.743, 47.959 425.083, 42.959 416.423, 37.959 407.762, 32.959 403.897, 30.728 " />
            <path fill="none" stroke-width="1.5" stroke-linecap="round" stroke-opacity="1.0" stroke="rgb(0, 0, 0)" stroke-linejoin="round" d=" M 265.356, 433.708 265.624, 434.084 265.888, 434.472 266.148, 434.871 266.404, 435.281 266.656, 435.700 266.903, 436.130 267.146, 436.570 267.384, 437.019 267.618, 437.477 267.846, 437.943 268.142, 438.578 268.463, 439.309 268.771, 440.055 269.066, 440.817 269.347, 441.592 269.613, 442.380 269.864, 443.178 270.099, 443.986 270.319, 444.801 270.523, 445.624 270.709, 446.451 270.879, 447.282 271.032, 448.115 271.167, 448.949 271.284, 449.782 271.384, 450.613 271.488, 451.715 271.566, 452.942 271.603, 454.152 271.598, 455.340 271.552, 456.501 271.464, 457.631 271.335, 458.724 271.165, 459.777 270.956, 460.786 270.707, 461.746 270.420, 462.654 270.096, 463.506 269.737, 464.298 " />
            <path fill="none" stroke-width="1.5" stroke-linecap="round" stroke-opacity="1.0" stroke="rgb(0, 0, 0)" stroke-linejoin="round" d=" M 249.289, 385.184 249.905, 384.880 250.549, 384.627 251.220, 384.428 251.915, 384.282 252.632, 384.190 253.371, 384.152 254.128, 384.168 254.903, 384.239 255.694, 384.363 256.497, 384.540 257.312, 384.771 258.136, 385.055 258.968, 385.390 259.805, 385.777 260.645, 386.213 261.486, 386.699 262.326, 387.232 263.162, 387.812 263.994, 388.437 264.818, 389.105 265.633, 389.815 266.437, 390.565 267.227, 391.354 268.002, 392.178 268.760, 393.037 269.498, 393.928 270.216, 394.848 270.910, 395.796 271.581, 396.770 272.225, 397.766 272.841, 398.782 273.429, 399.816 273.985, 400.866 274.509, 401.928 275.000, 403.000 275.457, 404.079 275.877, 405.162 276.261, 406.248 276.607, 407.333 276.914, 408.414 277.182, 409.489 277.409, 410.556 277.597, 411.610 277.743, 412.651 277.847, 413.675 277.910, 414.679 277.931, 415.662 277.910, 416.621 277.847, 417.553 277.743, 418.456 277.597, 419.328 277.409, 420.167 277.182, 420.970 276.914, 421.736 276.607, 422.462 276.261, 423.148 275.877, 423.790 275.457, 424.389 275.000, 424.941 274.509, 425.446 273.985, 425.902 273.429, 426.309 272.841, 426.665 " />
            <path fill="none" stroke-width="1.5" stroke-linecap="round" stroke-opacity="1.0" stroke="rgb(0, 0, 0)" stroke-linejoin="round" d=" M 353.300, 404.403 344.640, 399.403 335.979, 394.403 327.319, 389.403 318.659, 384.403 309.999, 379.403 301.338, 374.403 292.678, 369.403 284.018, 364.403 275.358, 359.403 266.697, 354.403 258.037, 349.403 249.377, 344.403 240.717, 339.403 232.056, 334.403 223.396, 329.403 214.736, 324.403 206.076, 319.403 197.415, 314.403 188.755, 309.403 180.095, 304.403 171.435, 299.403 162.774, 294.403 154.114, 289.403 145.454, 284.403 136.794, 279.403 128.133, 274.403 119.473, 269.403 110.813, 264.403 102.153, 259.403 93.492, 254.403 84.832, 249.403 76.172, 244.403 67.512, 239.403 58.851, 234.403 54.986, 232.172 " />
            <path fill="none" stroke-width="1.5" stroke-linecap="round" stroke-opacity="1.0" stroke="rgb(0, 0, 0)" stroke-linejoin="round" d=" M 303.230, 497.214 303.230, 507.214 303.230, 517.214 303.230, 521.557 294.569, 526.557 292.689, 527.643 284.028, 522.643 275.368, 517.643 266.708, 512.643 258.048, 507.643 249.387, 502.643 240.727, 497.643 232.067, 492.643 223.406, 487.643 214.746, 482.643 213.103, 481.694 208.360, 478.956 208.360, 468.956 208.360, 458.956 208.360, 454.612 217.020, 449.612 218.901, 448.526 " />
            <path fill="none" stroke-width="1.5" stroke-linecap="round" stroke-opacity="1.0" stroke="rgb(0, 0, 0)" stroke-linejoin="round" d=" M 353.300, 745.215 353.300, 735.215 353.300, 725.215 353.300, 715.215 353.300, 705.215 353.300, 695.215 353.300, 685.215 353.300, 675.215 353.300, 665.215 353.300, 655.215 353.300, 645.215 353.300, 635.215 353.300, 625.215 353.300, 615.215 353.300, 605.215 353.300, 595.215 353.300, 585.215 353.300, 575.215 353.300, 565.215 353.300, 555.215 353.300, 545.215 353.300, 535.215 353.300, 525.215 353.300, 515.215 353.300, 505.215 353.300, 495.215 353.300, 485.215 353.300, 475.215 353.300, 465.215 353.300, 455.215 353.300, 445.215 353.300, 435.215 353.300, 425.215 353.300, 415.215 353.300, 404.403 361.960, 399.403 370.620, 394.403 379.281, 389.403 387.941, 384.403 396.601, 379.403 405.262, 374.403 413.922, 369.403 422.582, 364.403 431.242, 359.403 439.903, 354.403 448.563, 349.403 457.223, 344.403 465.883, 339.403 474.544, 334.403 483.204, 329.403 491.389, 324.678 492.970, 323.765 501.630, 318.765 510.290, 313.765 518.951, 308.765 527.611, 303.765 536.271, 298.765 544.931, 293.765 553.592, 288.765 562.252, 283.765 570.912, 278.765 579.572, 273.765 588.233, 268.765 596.893, 263.765 605.553, 258.765 614.213, 253.765 622.874, 248.765 631.534, 243.765 638.437, 239.779 " />
            <path fill="none" stroke-width="1.5" stroke-linecap="round" stroke-opacity="1.0" stroke="rgb(0, 0, 0)" stroke-linejoin="round" d=" M 353.300, 191.396 352.773, 191.700 344.113, 196.700 335.452, 201.700 326.792, 206.700 318.132, 211.700 309.472, 216.700 300.811, 221.700 292.151, 226.700 283.491, 231.700 274.831, 236.700 266.170, 241.700 257.510, 246.700 248.850, 251.700 240.190, 256.700 231.529, 261.700 222.869, 266.700 214.209, 271.700 205.549, 276.700 196.888, 281.700 188.228, 286.700 179.371, 291.814 170.711, 286.814 162.051, 281.814 153.391, 276.814 144.730, 271.814 136.070, 266.814 127.410, 261.814 118.750, 256.814 110.089, 251.814 101.429, 246.814 92.769, 241.814 84.109, 236.814 76.596, 232.476 76.068, 232.172 " />
            <path fill="none" stroke-width="1.5" stroke-linecap="round" stroke-opacity="1.0" stroke="rgb(0, 0, 0)" stroke-linejoin="round" d=" M 76.068, 232.172 84.729, 227.172 93.389, 222.172 102.049, 217.172 110.709, 212.172 119.370, 207.172 128.030, 202.172 136.690, 197.172 145.350, 192.172 154.011, 187.172 162.671, 182.172 171.331, 177.172 179.992, 172.172 188.652, 167.172 197.312, 162.172 205.972, 157.172 214.633, 152.172 223.293, 147.172 231.953, 142.172 240.613, 137.172 249.997, 131.754 " />
            <path fill="none" stroke-width="1.5" stroke-linecap="round" stroke-opacity="1.0" stroke="rgb(0, 0, 0)" stroke-linejoin="round" d=" M 403.897, 363.019 395.237, 368.019 386.577, 373.019 377.917, 378.019 369.256, 383.019 360.596, 388.019 353.300, 392.231 344.640, 387.231 335.979, 382.231 327.319, 377.231 318.659, 372.231 309.999, 367.231 301.338, 362.231 292.678, 357.231 284.018, 352.231 275.358, 347.231 266.697, 342.231 258.037, 337.231 249.377, 332.231 240.717, 327.231 232.056, 322.231 223.396, 317.231 214.736, 312.231 206.076, 307.231 197.415, 302.231 190.440, 298.204 " />
            <path fill="none" stroke-width="1.5" stroke-linecap="round" stroke-opacity="1.0" stroke="rgb(0, 0, 0)" stroke-linejoin="round" d=" M 189.913, 297.900 198.573, 292.900 207.233, 287.900 215.893, 282.900 224.554, 277.900 233.214, 272.900 241.874, 267.900 250.534, 262.900 259.195, 257.900 267.855, 252.900 276.515, 247.900 285.175, 242.900 293.836, 237.900 302.496, 232.900 311.156, 227.900 319.816, 222.900 328.477, 217.900 337.137, 212.900 345.797, 207.900 354.457, 202.900 363.841, 197.482 " />
            <path fill="none" stroke-width="1.5" stroke-linecap="round" stroke-opacity="1.0" stroke="rgb(0, 0, 0)" stroke-linejoin="round" d=" M 249.997, 132.363 249.997, 131.754 258.657, 136.754 267.318, 141.754 275.978, 146.754 284.638, 151.754 293.298, 156.754 301.958, 161.754 310.619, 166.754 319.279, 171.754 327.939, 176.754 336.600, 181.754 345.260, 186.754 353.300, 191.396 " />
            <path fill="none" stroke-width="1.5" stroke-linecap="round" stroke-opacity="1.0" stroke="rgb(0, 0, 0)" stroke-linejoin="round" d=" M 527.228, 291.814 526.701, 292.118 518.041, 297.118 509.381, 302.118 500.721, 307.118 492.060, 312.118 483.400, 317.118 482.429, 317.679 480.848, 318.592 472.187, 323.592 463.527, 328.592 461.346, 329.851 459.765, 330.764 " />
            <path fill="none" stroke-width="1.5" stroke-linecap="round" stroke-opacity="1.0" stroke="rgb(0, 0, 0)" stroke-linejoin="round" d=" M 363.841, 198.091 363.841, 197.482 372.501, 202.482 381.162, 207.482 389.822, 212.482 398.482, 217.482 407.142, 222.482 415.803, 227.482 424.463, 232.482 433.123, 237.482 441.783, 242.482 450.444, 247.482 459.104, 252.482 467.764, 257.482 476.424, 262.482 485.085, 267.482 493.745, 272.482 502.405, 277.482 511.065, 282.482 519.726, 287.482 527.228, 291.814 " />
            <path fill="none" stroke-width="1.5" stroke-linecap="round" stroke-opacity="1.0" stroke="rgb(0, 0, 0)" stroke-linejoin="round" d=" M 657.938, 192.613 657.411, 192.918 648.751, 197.918 640.091, 202.918 631.431, 207.918 629.477, 209.045 620.817, 204.045 612.157, 199.045 611.030, 198.395 610.503, 198.091 " />
            <path fill="none" stroke-width="1.5" stroke-linecap="round" stroke-opacity="1.0" stroke="rgb(0, 0, 0)" stroke-linejoin="round" d=" M 610.503, 198.091 619.164, 193.091 627.824, 188.091 636.484, 183.091 638.964, 181.659 " />
            <path fill="none" stroke-width="1.5" stroke-linecap="round" stroke-opacity="1.0" stroke="rgb(0, 0, 0)" stroke-linejoin="round" d=" M 638.964, 182.267 638.964, 181.659 647.625, 186.659 656.285, 191.659 657.938, 192.613 " />
            <path fill="none" stroke-width="1.5" stroke-linecap="round" stroke-opacity="1.0" stroke="rgb(0, 0, 0)" stroke-linejoin="round" d=" M 453.715, 421.000 452.968, 421.561 452.105, 422.159 451.239, 422.709 450.372, 423.209 449.506, 423.660 448.643, 424.058 447.785, 424.404 446.935, 424.696 446.095, 424.934 445.266, 425.118 444.451, 425.246 443.652, 425.318 442.871, 425.335 442.109, 425.296 441.369, 425.201 440.652, 425.050 439.961, 424.845 439.297, 424.585 438.661, 424.270 438.055, 423.903 437.766, 423.691 437.482, 423.484 436.941, 423.013 436.435, 422.492 435.964, 421.923 435.531, 421.306 435.135, 420.643 434.778, 419.936 434.461, 419.187 434.185, 418.397 433.950, 417.569 433.757, 416.704 433.607, 415.805 433.499, 414.873 433.434, 413.912 433.413, 412.924 433.434, 411.910 433.499, 410.874 433.607, 409.818 433.757, 408.745 433.950, 407.657 434.185, 406.558 434.461, 405.449 434.778, 404.334 435.135, 403.215 435.531, 402.096 435.964, 400.978 436.435, 399.865 436.941, 398.760 437.482, 397.665 438.055, 396.583 438.661, 395.516 439.297, 394.468 439.961, 393.441 440.493, 392.668 440.652, 392.437 441.369, 391.459 442.109, 390.510 442.871, 389.591 443.652, 388.706 444.451, 387.855 445.266, 387.042 446.095, 386.269 446.935, 385.536 447.785, 384.847 448.643, 384.203 449.506, 383.605 450.372, 383.055 451.239, 382.554 452.105, 382.104 452.968, 381.706 " />
            <path fill="none" stroke-width="1.5" stroke-linecap="round" stroke-opacity="1.0" stroke="rgb(0, 0, 0)" stroke-linejoin="round" d=" M 453.826, 381.360 454.676, 381.067 455.516, 380.829 456.345, 380.646 457.160, 380.518 457.959, 380.445 458.740, 380.429 459.502, 380.468 460.242, 380.563 460.958, 380.713 461.650, 380.919 462.264, 381.160 462.314, 381.179 462.950, 381.493 463.555, 381.860 464.129, 382.280 464.670, 382.751 465.176, 383.271 465.647, 383.841 466.080, 384.458 466.476, 385.121 466.832, 385.827 467.149, 386.577 467.425, 387.366 467.660, 388.195 467.853, 389.060 468.004, 389.959 468.112, 390.890 468.142, 391.339 " />
            <path fill="none" stroke-width="1.5" stroke-linecap="round" stroke-opacity="1.0" stroke="rgb(0, 0, 0)" stroke-linejoin="round" d=" M 208.360, 454.612 217.020, 459.612 218.901, 460.698 227.561, 465.698 233.711, 469.249 " />
            <path fill="none" stroke-width="1.5" stroke-linecap="round" stroke-opacity="1.0" stroke="rgb(0, 0, 0)" stroke-linejoin="round" d=" M 259.857, 483.597 259.531, 484.156 " />
            <path fill="none" stroke-width="1.5" stroke-linecap="round" stroke-opacity="1.0" stroke="rgb(0, 0, 0)" stroke-linejoin="round" d=" M 259.178, 484.926 259.531, 484.156 268.191, 489.156 276.851, 494.156 285.512, 499.156 292.689, 503.299 " />
            <path fill="none" stroke-width="1.5" stroke-linecap="round" stroke-opacity="1.0" stroke="rgb(0, 0, 0)" stroke-linejoin="round" d=" M 292.689, 527.643 292.689, 517.643 292.689, 515.471 292.689, 505.471 292.689, 503.299 301.349, 498.299 303.230, 497.214 294.569, 492.214 285.909, 487.214 277.249, 482.214 268.589, 477.214 264.372, 474.779 " />
            <path fill="none" stroke-width="1.5" stroke-linecap="round" stroke-opacity="1.0" stroke="rgb(0, 0, 0)" stroke-linejoin="round" d=" M 249.072, 439.243 244.515, 448.144 239.958, 457.046 238.521, 459.854 233.964, 468.755 233.711, 469.249 233.313, 470.026 230.852, 474.832 230.851, 474.891 230.882, 474.966 230.946, 475.057 231.042, 475.165 231.171, 475.288 231.332, 475.427 231.524, 475.582 231.747, 475.751 232.001, 475.935 232.286, 476.133 232.599, 476.345 232.941, 476.569 233.310, 476.806 233.706, 477.055 234.128, 477.315 234.574, 477.586 235.045, 477.866 235.537, 478.156 236.051, 478.455 236.585, 478.761 237.137, 479.074 237.707, 479.394 238.292, 479.719 238.892, 480.049 239.505, 480.383 240.129, 480.719 240.763, 481.058 241.406, 481.399 242.055, 481.740 242.709, 482.080 243.367, 482.419 244.027, 482.757 244.686, 483.092 245.345, 483.423 246.000, 483.749 246.651, 484.070 247.296, 484.385 247.933, 484.694 248.560, 484.995 249.177, 485.287 249.781, 485.570 250.371, 485.844 250.945, 486.107 251.503, 486.359 252.042, 486.599 252.562, 486.827 253.061, 487.042 253.538, 487.244 253.992, 487.432 254.422, 487.605 254.825, 487.764 255.203, 487.908 255.553, 488.035 255.875, 488.148 256.168, 488.243 256.431, 488.323 256.664, 488.386 256.866, 488.432 257.036, 488.462 257.174, 488.474 257.281, 488.470 257.354, 488.448 257.395, 488.410 259.178, 484.926 " />
            <path fill="none" stroke-width="1.5" stroke-linecap="round" stroke-opacity="1.0" stroke="rgb(0, 0, 0)" stroke-linejoin="round" d=" M 259.857, 483.597 264.372, 474.779 268.929, 465.878 269.737, 464.298 " />
            <path fill="none" stroke-width="1.5" stroke-linecap="round" stroke-opacity="1.0" stroke="rgb(0, 0, 0)" stroke-linejoin="round" d=" M 229.261, 396.747 229.877, 396.443 230.521, 396.191 231.192, 395.991 231.887, 395.846 232.604, 395.754 233.343, 395.715 234.100, 395.732 234.875, 395.802 235.665, 395.926 236.469, 396.104 237.284, 396.335 238.108, 396.618 238.940, 396.953 239.777, 397.340 240.617, 397.776 241.458, 398.262 242.297, 398.795 243.134, 399.375 243.966, 400.000 244.580, 400.498 244.790, 400.668 245.605, 401.378 246.409, 402.128 247.199, 402.917 247.974, 403.741 248.731, 404.600 249.470, 405.491 250.187, 406.412 250.882, 407.360 251.553, 408.333 252.197, 409.329 252.813, 410.346 253.401, 411.380 253.957, 412.429 254.481, 413.491 254.972, 414.563 255.428, 415.642 255.849, 416.726 256.233, 417.811 256.578, 418.896 256.886, 419.977 257.154, 421.053 257.381, 422.119 257.523, 422.915 257.568, 423.174 257.714, 424.214 257.819, 425.238 257.882, 426.243 257.903, 427.225 257.882, 428.184 257.819, 429.116 257.714, 430.019 257.568, 430.891 257.381, 431.730 257.154, 432.533 256.886, 433.299 256.578, 434.026 256.233, 434.711 255.849, 435.354 255.428, 435.952 254.972, 436.504 254.481, 437.009 253.957, 437.466 253.401, 437.872 252.813, 438.229 252.197, 438.533 251.553, 438.785 250.882, 438.985 250.712, 439.020 250.187, 439.130 249.470, 439.223 249.072, 439.243 248.731, 439.261 247.974, 439.244 247.199, 439.174 246.409, 439.050 245.605, 438.872 244.790, 438.641 243.966, 438.358 243.134, 438.023 242.297, 437.636 241.458, 437.200 240.617, 436.714 239.777, 436.181 238.940, 435.601 238.108, 434.976 237.284, 434.308 236.469, 433.598 235.665, 432.848 234.875, 432.059 234.100, 431.235 233.343, 430.376 232.604, 429.485 231.887, 428.564 231.192, 427.616 230.521, 426.643 229.877, 425.647 229.261, 424.630 228.674, 423.596 228.117, 422.547 227.593, 421.485 227.102, 420.413 226.646, 419.334 226.225, 418.250 225.841, 417.165 225.496, 416.080 225.188, 414.999 224.921, 413.923 224.693, 412.857 224.506, 411.802 224.360, 410.762 224.255, 409.738 224.192, 408.733 224.171, 407.751 224.192, 406.792 224.255, 405.860 224.360, 404.957 224.506, 404.085 224.693, 403.246 224.921, 402.443 225.188, 401.677 225.496, 400.950 225.841, 400.265 226.225, 399.622 226.646, 399.024 227.102, 398.472 227.593, 397.967 228.117, 397.510 228.674, 397.104 229.261, 396.747 237.921, 391.747 246.581, 386.747 249.289, 385.184 " />
            <path fill="none" stroke-width="1.5" stroke-linecap="round" stroke-opacity="1.0" stroke="rgb(0, 0, 0)" stroke-linejoin="round" d=" M 252.813, 438.229 261.474, 433.229 270.134, 428.229 272.841, 426.665 " />
            <path fill="none" stroke-width="1.5" stroke-linecap="round" stroke-opacity="1.0" stroke="rgb(0, 0, 0)" stroke-linejoin="round" d=" M 76.596, 232.476 85.256, 227.476 93.916, 222.476 102.576, 217.476 111.237, 212.476 119.897, 207.476 128.557, 202.476 137.217, 197.476 145.878, 192.476 154.538, 187.476 163.198, 182.476 171.858, 177.476 180.519, 172.476 189.179, 167.476 197.839, 162.476 206.499, 157.476 215.160, 152.476 223.820, 147.476 232.480, 142.476 241.140, 137.476 249.997, 132.363 258.657, 137.363 267.318, 142.363 275.978, 147.363 284.638, 152.363 293.298, 157.363 301.958, 162.363 310.619, 167.363 319.279, 172.363 327.939, 177.363 336.600, 182.363 345.260, 187.363 352.773, 191.700 " />
            <path fill="none" stroke-width="1.5" stroke-linecap="round" stroke-opacity="1.0" stroke="rgb(0, 0, 0)" stroke-linejoin="round" d=" M 190.440, 298.204 199.100, 293.204 207.760, 288.204 216.420, 283.204 225.081, 278.204 233.741, 273.204 242.401, 268.204 251.061, 263.204 259.722, 258.204 268.382, 253.204 277.042, 248.204 285.702, 243.204 294.363, 238.204 303.023, 233.204 311.683, 228.204 320.343, 223.204 329.004, 218.204 337.664, 213.204 346.324, 208.204 354.984, 203.204 363.841, 198.091 372.501, 203.091 381.162, 208.091 389.822, 213.091 398.482, 218.091 407.142, 223.091 415.803, 228.091 424.463, 233.091 433.123, 238.091 441.783, 243.091 450.444, 248.091 459.104, 253.091 467.764, 258.091 476.424, 263.091 485.085, 268.091 493.745, 273.091 502.405, 278.091 511.065, 283.091 519.726, 288.091 526.701, 292.118 " />
            <path fill="none" stroke-width="1.5" stroke-linecap="round" stroke-opacity="1.0" stroke="rgb(0, 0, 0)" stroke-linejoin="round" d=" M 611.030, 198.395 619.691, 193.395 628.351, 188.395 637.011, 183.395 638.964, 182.267 647.625, 187.267 656.285, 192.267 657.411, 192.918 " />
            <path fill="none" stroke-width="1.5" stroke-linecap="round" stroke-opacity="1.0" stroke="rgb(0, 0, 0)" stroke-linejoin="round" d=" M 462.264, 381.160 462.548, 381.367 463.089, 381.838 463.595, 382.359 464.065, 382.928 464.499, 383.545 464.895, 384.208 465.251, 384.915 465.568, 385.664 465.844, 386.454 466.079, 387.282 466.272, 388.147 466.423, 389.046 466.531, 389.977 466.595, 390.939 466.601, 391.200 " />
            <path fill="none" stroke-width="1.5" stroke-linecap="round" stroke-opacity="1.0" stroke="rgb(0, 0, 0)" stroke-linejoin="round" d=" M 452.133, 420.087 451.387, 420.648 450.524, 421.246 449.658, 421.796 448.791, 422.297 447.924, 422.747 447.061, 423.145 446.204, 423.491 445.354, 423.783 444.513, 424.022 443.685, 424.205 442.870, 424.333 442.071, 424.405 441.289, 424.422 440.528, 424.383 439.788, 424.288 439.071, 424.137 438.380, 423.932 437.766, 423.691 " />
            <path fill="none" stroke-width="1.5" stroke-linecap="round" stroke-opacity="1.0" stroke="rgb(0, 0, 0)" stroke-linejoin="round" d=" M 447.745, 404.210 450.279, 397.678 " />
            <path fill="none" stroke-width="1.5" stroke-linecap="round" stroke-opacity="1.0" stroke="rgb(0, 0, 0)" stroke-linejoin="round" d=" M 455.348, 394.751 450.279, 397.678 445.009, 394.635 " />
            <path fill="none" stroke-width="1.5" stroke-linecap="round" stroke-opacity="1.0" stroke="rgb(0, 0, 0)" stroke-linejoin="round" d=" M 439.212, 409.575 444.482, 412.618 " />
            <path fill="none" stroke-width="1.5" stroke-linecap="round" stroke-opacity="1.0" stroke="rgb(0, 0, 0)" stroke-linejoin="round" d=" M 447.017, 416.224 444.482, 412.618 447.017, 406.086 " />
            <path fill="none" stroke-width="1.5" stroke-linecap="round" stroke-opacity="1.0" stroke="rgb(0, 0, 0)" stroke-linejoin="round" d=" M 462.467, 391.830 461.873, 390.984 456.602, 387.941 447.942, 392.941 445.009, 394.635 444.806, 395.158 441.188, 404.481 439.212, 409.575 445.009, 417.822 450.279, 420.865 451.880, 419.941 " />
            <path fill="none" stroke-width="1.5" stroke-linecap="round" stroke-opacity="1.0" stroke="rgb(0, 0, 0)" stroke-linejoin="round" d=" M 456.804, 393.911 461.873, 390.984 " />
            <path fill="none" stroke-width="1.5" stroke-linecap="round" stroke-opacity="1.0" stroke="rgb(0, 0, 0)" stroke-linejoin="round" d=" M 450.279, 420.865 447.745, 417.260 " />
            <path fill="none" stroke-width="1.5" stroke-linecap="round" stroke-opacity="1.0" stroke="rgb(0, 0, 0)" stroke-linejoin="round" d=" M 447.017, 406.086 447.239, 405.459 447.482, 404.833 447.745, 404.210 448.022, 403.600 448.318, 402.996 448.632, 402.398 448.962, 401.808 449.308, 401.227 449.669, 400.657 450.045, 400.099 450.435, 399.554 450.837, 399.024 451.251, 398.508 451.676, 398.010 452.111, 397.530 452.555, 397.068 453.006, 396.626 453.465, 396.206 453.929, 395.807 454.399, 395.431 454.872, 395.079 455.348, 394.751 455.833, 394.444 456.319, 394.164 456.804, 393.911 " />
            <path fill="none" stroke-width="1.5" stroke-linecap="round" stroke-opacity="1.0" stroke="rgb(0, 0, 0)" stroke-linejoin="round" d=" M 447.745, 417.260 447.482, 416.940 447.239, 416.594 447.212, 416.550 447.017, 416.224 446.828, 415.856 446.658, 415.468 446.507, 415.060 446.376, 414.634 446.264, 414.190 446.173, 413.729 446.101, 413.252 446.050, 412.761 446.019, 412.255 446.009, 411.737 446.019, 411.207 446.050, 410.666 446.101, 410.115 446.173, 409.556 446.264, 408.989 446.376, 408.416 446.507, 407.838 446.658, 407.257 446.828, 406.672 447.017, 406.086 " />
            <path fill="none" stroke-width="1.5" stroke-linecap="round" stroke-opacity="1.0" stroke="rgb(0, 0, 0)" stroke-linejoin="round" d=" M 456.804, 393.911 457.280, 393.689 457.753, 393.495 458.222, 393.329 458.687, 393.191 459.146, 393.082 459.597, 393.002 460.041, 392.951 460.290, 392.939 " />
            <path fill="none" stroke-width="1.5" stroke-linecap="round" stroke-opacity="1.0" stroke="rgb(0, 0, 0)" stroke-linejoin="round" d=" M 448.962, 418.256 448.632, 418.048 448.318, 417.812 448.022, 417.549 447.745, 417.260 " />
            <path fill="none" stroke-width="1.5" stroke-linecap="round" stroke-opacity="1.0" stroke="rgb(0, 0, 0)" stroke-linejoin="round" d=" M 471.065, 422.408 470.939, 422.526 470.452, 422.951 469.960, 423.351 469.463, 423.725 468.964, 424.072 468.462, 424.391 467.959, 424.682 467.458, 424.944 466.958, 425.175 466.461, 425.376 465.969, 425.546 465.482, 425.685 465.001, 425.792 464.529, 425.866 464.066, 425.909 463.613, 425.919 463.172, 425.897 462.743, 425.843 462.328, 425.756 461.927, 425.637 461.542, 425.487 461.174, 425.306 460.823, 425.093 460.490, 424.851 460.177, 424.578 459.883, 424.277 459.611, 423.947 459.359, 423.590 459.130, 423.206 458.923, 422.797 458.739, 422.363 458.579, 421.906 458.443, 421.426 458.331, 420.925 458.244, 420.404 458.182, 419.865 458.144, 419.308 458.131, 418.736 458.133, 418.532 458.138, 418.326 458.138, 418.304 458.145, 418.119 " />
            <path fill="none" stroke-width="1.5" stroke-linecap="round" stroke-opacity="1.0" stroke="rgb(0, 0, 0)" stroke-linejoin="round" d=" M 448.962, 418.256 451.880, 419.941 452.133, 420.087 453.715, 421.000 461.174, 425.306 " />
            <path fill="none" stroke-width="1.5" stroke-linecap="round" stroke-opacity="1.0" stroke="rgb(0, 0, 0)" stroke-linejoin="round" d=" M 461.178, 424.091 460.828, 423.879 460.496, 423.638 460.183, 423.367 459.890, 423.067 459.617, 422.739 459.366, 422.383 459.136, 422.001 458.929, 421.594 458.745, 421.162 458.585, 420.706 458.448, 420.228 458.336, 419.730 458.247, 419.211 458.184, 418.674 458.159, 418.316 458.145, 418.119 458.131, 417.550 458.142, 416.967 458.150, 416.841 458.178, 416.371 458.185, 416.301 458.210, 416.052 458.239, 415.764 458.261, 415.599 458.324, 415.147 458.433, 414.521 458.566, 413.888 458.702, 413.334 458.723, 413.250 458.904, 412.608 458.944, 412.481 459.107, 411.963 459.333, 411.319 459.580, 410.675 459.849, 410.033 460.138, 409.396 460.447, 408.764 460.775, 408.140 461.122, 407.525 461.486, 406.919 461.866, 406.326 462.262, 405.746 462.523, 405.387 462.673, 405.180 463.097, 404.631 463.533, 404.099 463.982, 403.585 463.982, 403.004 463.981, 402.979 463.980, 402.955 463.977, 402.929 463.974, 402.904 463.972, 402.893 " />
            <path fill="none" stroke-width="1.5" stroke-linecap="round" stroke-opacity="1.0" stroke="rgb(0, 0, 0)" stroke-linejoin="round" d=" M 461.178, 424.091 462.030, 424.582 462.397, 424.762 462.781, 424.911 463.181, 425.028 463.595, 425.114 464.022, 425.167 464.462, 425.189 464.913, 425.178 465.374, 425.136 465.845, 425.061 466.323, 424.955 466.808, 424.817 467.299, 424.648 467.794, 424.448 468.291, 424.218 468.791, 423.958 469.292, 423.669 469.791, 423.352 470.289, 423.007 470.784, 422.636 471.065, 422.408 471.275, 422.238 471.760, 421.816 472.238, 421.370 472.709, 420.901 473.170, 420.411 473.621, 419.901 474.061, 419.371 474.488, 418.824 474.902, 418.260 475.302, 417.682 475.686, 417.090 476.053, 416.485 476.404, 415.870 476.736, 415.246 477.049, 414.615 477.342, 413.977 477.354, 413.950 477.615, 413.336 477.866, 412.691 478.096, 412.045 478.304, 411.399 478.488, 410.756 478.649, 410.116 478.787, 409.481 478.900, 408.852 478.989, 408.232 479.054, 407.622 479.093, 407.023 479.108, 406.437 479.098, 405.865 479.063, 405.309 479.004, 404.770 478.919, 404.249 478.811, 403.747 478.678, 403.267 478.521, 402.809 478.341, 402.373 478.138, 401.963 477.913, 401.577 477.665, 401.218 477.396, 400.885 477.107, 400.581 476.798, 400.305 476.469, 400.059 476.122, 399.843 475.275, 399.353 474.911, 399.168 474.530, 399.014 474.134, 398.891 473.724, 398.800 473.300, 398.740 473.258, 398.737 " />
            <path fill="none" stroke-width="1.5" stroke-linecap="round" stroke-opacity="1.0" stroke="rgb(0, 0, 0)" stroke-linejoin="round" d=" M 464.825, 404.072 464.730, 404.017 463.982, 403.585 " />
            <path fill="none" stroke-width="1.5" stroke-linecap="round" stroke-opacity="1.0" stroke="rgb(0, 0, 0)" stroke-linejoin="round" d=" M 462.030, 424.582 461.679, 424.372 461.531, 424.264 461.347, 424.131 461.034, 423.861 460.741, 423.562 460.468, 423.235 460.216, 422.881 459.987, 422.500 459.779, 422.094 459.595, 421.664 459.434, 421.210 459.296, 420.734 459.183, 420.236 459.094, 419.719 459.029, 419.183 459.002, 418.802 458.990, 418.630 458.975, 418.061 458.985, 417.478 459.020, 416.881 459.079, 416.273 459.152, 415.743 459.164, 415.655 459.257, 415.114 459.272, 415.028 459.405, 414.394 459.562, 413.755 459.742, 413.112 459.945, 412.466 460.170, 411.820 460.418, 411.175 460.686, 410.533 460.976, 409.894 461.285, 409.262 461.614, 408.636 461.960, 408.019 462.325, 407.413 462.706, 406.818 463.102, 406.237 463.514, 405.670 463.938, 405.120 464.376, 404.586 464.825, 404.072 464.825, 403.922 464.825, 403.004 464.824, 402.955 464.821, 402.906 464.816, 402.856 464.809, 402.805 464.800, 402.753 464.789, 402.701 464.776, 402.648 464.761, 402.595 464.745, 402.542 464.726, 402.489 464.706, 402.435 464.684, 402.382 464.660, 402.330 464.635, 402.277 464.608, 402.226 464.579, 402.175 464.550, 402.125 464.518, 402.075 464.486, 402.027 464.452, 401.980 " />
            <path fill="none" stroke-width="1.5" stroke-linecap="round" stroke-opacity="1.0" stroke="rgb(0, 0, 0)" stroke-linejoin="round" d=" M 472.885, 397.112 472.919, 397.159 472.951, 397.207 472.983, 397.256 473.012, 397.306 473.041, 397.357 473.068, 397.409 473.093, 397.461 473.117, 397.514 473.127, 397.538 473.139, 397.567 473.159, 397.620 473.177, 397.673 473.194, 397.726 473.209, 397.779 473.222, 397.832 473.233, 397.884 473.242, 397.936 473.249, 397.987 473.254, 398.037 473.257, 398.087 473.258, 398.135 473.258, 398.737 473.258, 399.204 473.707, 399.199 474.145, 399.227 474.569, 399.287 474.981, 399.379 475.377, 399.502 475.758, 399.657 476.122, 399.843 " />
            <path fill="none" stroke-width="1.5" stroke-linecap="round" stroke-opacity="1.0" stroke="rgb(0, 0, 0)" stroke-linejoin="round" d=" M 454.492, 398.006 454.501, 398.209 454.528, 398.412 454.571, 398.614 454.632, 398.815 454.710, 399.013 454.805, 399.209 454.916, 399.402 455.043, 399.592 455.187, 399.778 455.346, 399.960 455.520, 400.137 455.709, 400.308 455.913, 400.474 456.130, 400.635 456.361, 400.788 456.605, 400.935 456.740, 401.009 456.861, 401.075 457.128, 401.208 457.407, 401.333 457.695, 401.449 457.994, 401.558 458.301, 401.658 458.616, 401.749 458.939, 401.830 459.268, 401.903 459.603, 401.966 459.943, 402.020 460.288, 402.064 460.635, 402.098 460.985, 402.122 461.337, 402.136 461.689, 402.141 462.041, 402.135 462.393, 402.119 462.743, 402.094 463.090, 402.058 463.241, 402.042 463.393, 402.028 463.581, 402.014 463.787, 402.002 464.013, 401.992 464.235, 401.985 464.452, 401.980 464.452, 402.788 464.124, 402.863 463.972, 402.893 463.790, 402.928 463.450, 402.984 463.107, 403.030 462.759, 403.066 462.409, 403.092 462.058, 403.108 461.705, 403.114 461.352, 403.111 461.000, 403.097 460.650, 403.073 460.302, 403.039 459.957, 402.996 459.769, 402.966 459.617, 402.942 459.281, 402.879 458.951, 402.807 458.628, 402.725 458.312, 402.635 458.004, 402.535 457.706, 402.427 457.416, 402.310 457.137, 402.186 456.869, 402.053 456.612, 401.913 456.368, 401.766 456.137, 401.613 456.131, 401.609 455.919, 401.453 455.714, 401.286 455.525, 401.115 455.350, 400.938 455.190, 400.756 455.046, 400.570 454.918, 400.380 454.807, 400.187 454.712, 399.991 454.633, 399.792 454.572, 399.592 454.528, 399.390 454.502, 399.186 454.492, 398.983 454.492, 398.006 454.500, 397.802 454.526, 397.599 454.569, 397.397 454.629, 397.197 454.706, 396.998 454.799, 396.802 454.910, 396.609 455.036, 396.419 455.179, 396.233 455.337, 396.051 455.511, 395.874 455.699, 395.702 455.902, 395.536 456.119, 395.375 456.349, 395.221 456.592, 395.074 460.165, 393.011 460.290, 392.939 461.209, 392.408 461.465, 392.268 461.732, 392.135 462.010, 392.009 462.298, 391.892 462.467, 391.830 462.596, 391.784 462.902, 391.683 463.217, 391.592 463.540, 391.510 463.869, 391.436 464.203, 391.373 464.543, 391.319 464.887, 391.274 465.235, 391.240 465.585, 391.215 465.936, 391.200 466.289, 391.195 466.601, 391.200 466.641, 391.201 466.992, 391.216 467.342, 391.241 467.689, 391.276 468.033, 391.321 468.142, 391.339 468.373, 391.376 468.707, 391.440 469.036, 391.513 469.358, 391.596 469.672, 391.688 469.979, 391.789 470.276, 391.898 470.564, 392.016 470.841, 392.141 471.108, 392.274 471.362, 392.415 471.605, 392.563 471.834, 392.717 472.051, 392.878 472.253, 393.045 472.440, 393.217 472.613, 393.394 472.771, 393.576 472.913, 393.763 473.039, 393.953 473.148, 394.146 473.241, 394.343 473.317, 394.541 473.376, 394.742 473.418, 394.944 473.443, 395.147 473.450, 395.350 473.450, 396.333 473.439, 396.537 473.411, 396.740 473.366, 396.942 473.303, 397.143 473.224, 397.341 473.127, 397.537 473.127, 397.538 " />
            <path fill="none" stroke-width="1.5" stroke-linecap="round" stroke-opacity="1.0" stroke="rgb(0, 0, 0)" stroke-linejoin="round" d=" M 473.826, 403.767 474.064, 403.912 474.290, 404.077 474.503, 404.263 474.703, 404.468 474.888, 404.692 475.059, 404.935 475.215, 405.196 475.355, 405.475 475.480, 405.770 475.589, 406.081 475.681, 406.407 475.757, 406.748 475.817, 407.102 475.859, 407.469 475.885, 407.848 475.893, 408.237 475.885, 408.637 475.859, 409.045 475.817, 409.461 475.757, 409.883 475.681, 410.312 475.589, 410.745 475.480, 411.182 475.355, 411.621 475.215, 412.062 475.059, 412.503 474.888, 412.943 474.703, 413.382 474.503, 413.817 474.290, 414.248 474.064, 414.675 473.826, 415.095 473.575, 415.508 473.313, 415.912 473.041, 416.308 472.759, 416.693 472.467, 417.067 472.167, 417.429 471.859, 417.778 471.545, 418.113 471.224, 418.433 470.897, 418.738 470.566, 419.026 470.285, 419.254 470.231, 419.298 469.893, 419.552 469.553, 419.787 469.212, 420.004 468.871, 420.201 468.529, 420.378 468.190, 420.535 467.852, 420.672 467.517, 420.787 467.186, 420.881 466.859, 420.953 466.538, 421.003 466.223, 421.032 465.916, 421.038 465.616, 421.023 465.324, 420.986 465.042, 420.926 464.769, 420.845 464.508, 420.743 464.257, 420.619 464.019, 420.474 463.793, 420.309 463.793, 420.309 463.580, 420.124 463.380, 419.919 463.195, 419.694 463.024, 419.451 462.868, 419.190 462.728, 418.912 462.603, 418.616 462.494, 418.305 462.402, 417.979 462.326, 417.638 462.266, 417.284 462.224, 416.917 462.198, 416.539 462.190, 416.149 462.198, 415.750 462.224, 415.342 462.266, 414.926 462.326, 414.503 462.402, 414.074 462.494, 413.641 462.603, 413.205 462.728, 412.765 462.868, 412.325 463.024, 411.884 463.195, 411.443 463.380, 411.005 463.580, 410.569 463.793, 410.138 464.019, 409.712 464.257, 409.292 464.508, 408.879 464.769, 408.474 465.042, 408.079 465.324, 407.693 465.616, 407.319 465.698, 407.220 465.916, 406.958 466.223, 406.609 466.538, 406.274 466.859, 405.953 466.961, 405.859 467.186, 405.649 467.517, 405.360 467.852, 405.089 468.190, 404.835 468.529, 404.599 468.871, 404.383 469.212, 404.185 469.553, 404.008 469.893, 403.851 470.231, 403.715 470.566, 403.600 470.897, 403.506 471.163, 403.447 471.224, 403.434 471.545, 403.383 471.859, 403.355 472.167, 403.348 472.467, 403.364 472.759, 403.401 473.041, 403.460 473.313, 403.541 473.446, 403.593 473.575, 403.644 473.826, 403.767 " />
            <path fill="none" stroke-width="1.5" stroke-linecap="round" stroke-opacity="1.0" stroke="rgb(0, 0, 0)" stroke-linejoin="round" d=" M 472.885, 397.112 472.973, 396.941 473.054, 396.773 473.128, 396.609 473.189, 396.467 473.238, 396.343 473.274, 396.249 473.307, 396.159 473.368, 395.959 473.413, 395.757 473.440, 395.554 473.450, 395.350 " />
            <path fill="none" stroke-width="1.5" stroke-linecap="round" stroke-opacity="1.0" stroke="rgb(0, 0, 0)" stroke-linejoin="round" d=" M 475.030, 408.371 474.995, 408.783 474.943, 409.202 474.875, 409.627 474.790, 410.058 474.689, 410.492 474.572, 410.930 474.439, 411.369 474.290, 411.810 474.177, 412.115 474.127, 412.250 473.948, 412.689 473.756, 413.125 473.549, 413.558 473.330, 413.986 473.098, 414.409 472.853, 414.824 472.597, 415.233 472.330, 415.632 472.053, 416.022 471.766, 416.401 471.471, 416.768 471.167, 417.123 470.856, 417.464 470.538, 417.791 470.215, 418.103 469.886, 418.399 469.554, 418.679 469.218, 418.941 468.879, 419.186 468.539, 419.411 468.198, 419.618 467.857, 419.805 467.517, 419.972 467.178, 420.119 466.843, 420.244 466.510, 420.349 466.181, 420.432 465.858, 420.493 465.540, 420.533 465.229, 420.551 464.926, 420.547 464.630, 420.521 464.343, 420.473 464.066, 420.403 463.799, 420.312 463.793, 420.309 " />
            <path fill="none" stroke-width="1.5" stroke-linecap="round" stroke-opacity="1.0" stroke="rgb(0, 0, 0)" stroke-linejoin="round" d=" M 473.446, 403.593 473.587, 403.709 473.790, 403.905 473.979, 404.121 474.154, 404.356 474.314, 404.609 474.460, 404.879 474.590, 405.165 474.704, 405.468 474.802, 405.786 474.885, 406.119 474.950, 406.465 475.000, 406.824 475.032, 407.195 475.048, 407.577 475.047, 407.969 475.030, 408.371 474.995, 407.999 474.943, 407.639 474.875, 407.293 474.790, 406.960 474.689, 406.642 474.572, 406.340 474.439, 406.054 474.290, 405.785 474.127, 405.534 473.948, 405.301 473.756, 405.088 473.549, 404.893 473.330, 404.718 473.098, 404.564 472.853, 404.430 472.597, 404.318 472.330, 404.227 472.053, 404.157 471.766, 404.109 471.471, 404.083 471.167, 404.079 470.856, 404.097 470.538, 404.137 470.215, 404.198 469.886, 404.281 469.554, 404.386 469.218, 404.511 468.879, 404.658 468.539, 404.825 468.198, 405.012 467.857, 405.219 467.517, 405.444 467.178, 405.689 466.961, 405.859 " />
            <path fill="none" stroke-width="1.5" stroke-linecap="round" stroke-opacity="1.0" stroke="rgb(0, 0, 0)" stroke-linejoin="round" d=" M 638.964, 239.475 647.625, 234.475 656.285, 229.475 664.945, 224.475 673.605, 219.475 682.266, 214.475 690.926, 209.475 699.586, 204.475 702.211, 202.959 " />
            <path fill-rule="evenodd" stroke="none" fill-opacity="1.0" fill="rgb(255, 0, 0)" clip-path="url(#co2-coupler-clip-front)" d="M433.465,412.954L433.502,414.246L433.614,415.490L433.799,416.679L434.058,417.810L434.388,418.877L434.789,419.875L435.259,420.801L435.795,421.650L436.396,422.419L437.059,423.105L437.781,423.704L438.559,424.214L439.390,424.633L440.270,424.959L441.195,425.190L442.162,425.326L443.165,425.366L444.202,425.310L445.267,425.158L446.356,424.910L447.465,424.569L448.588,424.135L449.720,423.610L450.858,422.996L451.996,422.296L453.128,421.513L454.251,420.651L455.360,419.712L456.449,418.702L457.514,417.624L458.551,416.483L459.554,415.284L460.521,414.032L461.446,412.733L462.326,411.391L463.157,410.013L463.935,408.604L464.657,407.172L465.320,405.721L465.921,404.258L466.457,402.789L466.927,401.320L467.328,399.859L467.658,398.411L467.917,396.981L468.102,395.578L468.214,394.205L468.251,392.870L468.214,391.578L468.102,390.335L467.917,389.145L467.658,388.015L467.328,386.948L466.927,385.949L466.457,385.023L465.921,384.174L465.320,383.405L464.657,382.719L463.935,382.120L463.157,381.610L462.326,381.192L461.446,380.866L460.521,380.634L459.554,380.499L458.551,380.458L457.514,380.515L456.449,380.667L455.360,380.914L454.251,381.256L453.128,381.690L451.996,382.215L450.858,382.829L449.720,383.528L448.588,384.311L447.465,385.174L446.356,386.112L445.267,387.122L444.202,388.200L443.165,389.341L442.162,390.540L441.195,391.792L440.270,393.092L439.390,394.434L438.559,395.812L437.781,397.220L437.059,398.653L436.396,400.104L435.795,401.567L435.259,403.036L434.789,404.504L434.388,405.965L434.058,407.414L433.799,408.843L433.614,410.247L433.502,411.619Z" />
        </g>
    </g>
</svg>
