DBRep_DrawableShape

CASCADE Topology V3, (c) Open Cascade
Locations 5
1
              1               0               0            82.1 
              0               0               1              -0 
              0              -1               0           90.81 
1
              1               0               0               0 
              0               1               0               0 
              0               0               1               0 
2  1 1 2 1 0
1
              1               0               0               0 
              0               1               0               0 
              0               0               1               0 
2  2 -1 1 -1 4 -1 0
Curve2ds 80
7 0 0  8 9 2  -8.5855528908496126e-08 -6.0098870364539997e-07  0.19634946572599965 1.37444626008  0.39269901730799983 2.7488934739649999  0.58904856888300028 4.0425925190490002  0.78539812047599966 5.1748110572939998  0.98174767204499958 6.0747262232230002  1.1780972236330003 6.691574534381  1.3744467752140004 7  1.5707963267949996 7 
 4.712388894529 9 6.2831853071800001 9
7 0 0  8 9 2  1.57079641265 -6.0098870364539997e-07  1.3744468610689999 1.37444626008  1.178097309487 2.7488934739649999  0.981747757906 4.0425925190490002  0.78539820632199997 5.1748110572939998  0.58904865474500001 6.0747262232230002  0.39269910316200002 6.691574534381  0.19634955158100001 7  2.4492935982949998e-16 7 
 4.712388894529 9 6.2831853071800001 9
7 0 0  8 9 2  1.5707963267949996 7  1.7671458676270007 7  1.96349540846 6.6915745681500001  2.15984494928 6.0747263245459999  2.3561944901320011 5.1748112543579996  2.5525440309420002 4.042592828988  2.7488935717870007 2.7488938989229998  2.9452431126169998 1.374446786811  3.1415926534489991 9.887031039127999e-10 
 0 9 1.5707963266539999 9
7 0 0  8 9 2  6.2831853071800001 7  6.0868357663479999 7  5.8904862255169999 6.6915745681500001  5.6941366846859998 6.0747263245459999  5.4977871438530004 5.1748112543579996  5.3014376030230004 4.042592828988  5.1050880621900001 2.7488938989229998  4.9087385213579999 1.374446786811  4.7123889805259997 9.887031039127999e-10 
 0 9 1.5707963266539999 9
1 3.141592653589413 0 -0 -1 
1 9.4247779607695854 0 -0 -1 
1 9.4247779607689992 -9.8000000000000007 -1 -0 
7 0 0  1 2 2  0 0  6.2831853071800001 0 
 0 2 6.2831853071800001 2
7 0 0  8 9 2  9.4247780466250006 6.0098870364539997e-07  9.2284284950439996 -1.37444626008  9.0320789434620004 -2.7488934739649999  8.8357293918859998 -4.0425925190490002  8.6393798402939996 -5.1748110572939998  8.4430302887249997 -6.0747262232230002  8.2466807371359998 -6.691574534381  8.0503311855560007 -7  7.8539816339739996 -7 
 4.712388894529 9 6.2831853071800001 9
7 0 0  8 9 2  4.7123890662400001 -6.0098870364539997e-07  4.516039514659 1.37444626008  4.3196899630779999 2.7488934739649999  4.1233404114810002 4.0425925190490002  3.9269908599250001 5.1748110572939998  3.730641308319 6.0747262232230002  3.5342917567529999 6.691574534381  3.3379422051710002 7  3.1415926535900001 7 
 4.712388894529 9 6.2831853071800001 9
7 0 0  8 9 2  7.8539816339739996 -7  7.6576320931430004 -7  7.4612825523090009 -6.6915745681500001  7.264933011490001 -6.0747263245459999  7.068583470638 -5.1748112543579996  6.8722339298279991 -4.042592828988  6.6758843889820003 -2.7488938989229998  6.4795348481530013 -1.374446786811  6.2831853073210002 -9.887031039127999e-10 
 0 9 1.5707963266539999 9
7 0 0  8 9 2  3.1415926535900001 7  2.9452431127579999 7  2.7488935719229999 6.6915745681500001  2.5525440311019998 6.0747263245459999  2.3561944902429999 5.1748112543579996  2.1598449494369998 4.042592828988  1.963495408597 2.7488938989229998  1.7671458677680001 1.374446786811  1.5707963269359999 9.887031039127999e-10 
 0 9 1.5707963266539999 9
1 6.2831853071795862 0 0 1 
1 4.1389114358025836e-13 0 0 1 
1 0 9.8000000000000007 1 0 
7 0 0  1 2 2  0 0  6.2831853071800001 0 
 0 2 6.2831853071800001 2
1 6.2831853071795862 0 0 1 
1 4.1389114358025836e-13 0 0 1 
1 0 11.699999999999999 1 0 
7 0 0  1 2 2  0 0  6.2831853071800001 0 
 0 2 6.2831853071800001 2
1 0 1.4326548781891311 1 0 
7 0 0  1 2 2  0 0  6.2831853071800001 0 
 0 2 6.2831853071800001 2
1 6.2831853071800001 -0 0 1 
1 0 -0 0 1 
1 0 1.4326548781891311 1 0 
7 0 0  1 2 2  0 0  6.2831853071800001 0 
 0 2 6.2831853071800001 2
1 6.2831853071800001 -0 0 1 
1 0 -0 0 1 
1 0 1.2854960132180664 1 0 
7 0 0  1 2 2  0 0  6.2831853071800001 0 
 0 2 6.2831853071800001 2
1 6.2831853071800001 -0 0 1 
1 0 -0 0 1 
1 0 5.25 1 0 
1 6.2831853071800001 -0 0 1 
1 0 -0 0 1 
1 0 5.25 1 0 
1 6.2831853071800001 -0 0 1 
1 0 -0 0 1 
1 0 5.5 1 0 
1 6.2831853071800001 -0 0 1 
1 0 -0 0 1 
1 0 0 1 0 
1 0 0 1 0 
1 0 0 1 0 
1 0 2.75 1 0 
1 6.2831853071800001 -0 0 1 
1 0 -0 0 1 
1 0 2.75 1 0 
1 6.2831853071800001 -0 0 1 
1 0 -0 0 1 
1 0 2.75 1 0 
1 6.2831853071800001 -0 0 1 
1 0 -0 0 1 
1 0 0 1 0 
1 0 0 1 0 
1 0 0 1 0 
1 0 2.75 1 0 
1 6.2831853071800001 -0 0 1 
1 0 -0 0 1 
1 0 2.75 1 0 
1 6.2831853071800001 -0 0 1 
1 0 -0 0 1 
1 0 2.1000000000000001 1 0 
1 6.2831853071800001 -0 0 1 
1 0 -0 0 1 
1 0 1 1 0 
1 0 43.5 1 0 
1 0 22.350000000000001 1 0 
1 6.2831853071800001 -0 0 1 
1 0 -0 0 1 
1 6.2831853071800001 -0 0 1 
1 0 -0 0 1 
7 0 0  8 16 3  -1.890551430961e-07 22.250000600250001  0.19634936360499999 21.626590770553001  0.39269891626600001 21.003180766362  0.58904846892499996 20.416395810773999  0.78539802158700001 19.902853786908999  0.98174757424500003 19.494677926839  1.178097126907 19.214893098464  1.3744466795679999 19.075000058954  1.7671457848879999 19.074999941045998  1.963495337548 19.214892862645002  2.1598448902089999 19.494677580055999  2.3561944428619999 19.902853342947001  2.552543995528 20.416395289636998  2.7488935481889998 21.003180192314002  2.9452431008510001 21.626590170052999  3.1415926535110001 22.249999999749999 
 1.5707961377399999 9 3.1415925590230001 7 4.7123889803059997 9
7 0 0  8 16 3  1.5707961377399999 -6.0025007881949999e-07  1.7671456904 0.62340922944699995  1.963495243061 1.246819233606  2.1598447957150002 1.8336041893320001  2.3561943483840002 2.347146212897  2.5525439010339999 2.7553220732439998  2.7488934537029999 3.0351069015030001  2.9452430063619999 3.1749999410459999  3.3379421116830001 3.1750000589540002  3.5342916643420001 3.0351071373190002  3.7306412169979999 2.7553224200400002  3.9269907696650002 2.3471466568260002  4.1233403223209999 1.833604710453  4.3196898749840003 1.2468198076470001  4.5160394276459996 0.623409829947  4.7123889803059997 2.5008085084340001e-10 
 1.5707961377399999 9 3.1415925590230001 7 4.7123889803059997 9
7 0 0  8 9 2  0 22.25  0.196349540849 22.873409792196998  0.392699081698 23.496819732395  0.58904862254699997 24.083604604375001  0.78539816339500002 24.597146532947999  0.981747704246 25.005322297155999  1.1780972450959999 25.285107036218999  1.3744467859459999 25.425000000000001  1.570796326795 25.425000000000001 
 4.7123889803849996 9 6.2831853071800001 9
7 0 0  8 9 2  1.570796326795 -5.8323803809389999e-16  1.3744467859459999 0.62340979219699999  1.1780972450959999 1.2468197324100001  0.98174770424500002 1.8336046043400001  0.78539816339500002 2.3471465330760002  0.58904862254799994 2.7553222971219999  0.39269908169899997 3.0351070362430002  0.196349540849 3.1749999999999998  2.4492935982949998e-16 3.1749999999999998 
 4.7123889803849996 9 6.2831853071800001 9
7 0 0  8 9 2  1.570796326795 25.425000000000001  1.7671458912760001 25.425000000000001  1.9634954557569999 25.285107002564999  2.159845020234 25.005322196068001  2.356194584721 24.597146336544998  2.5525441491960001 24.083604295261999  2.748893713682 23.496819308654999  2.9452432781639999 22.873409266978001  3.1415928426450002 22.249999399749999 
 0 9 1.5707965158499999 9
7 0 0  8 9 2  6.2831853071800001 3.1749999999999998  6.0868357426979998 3.1749999999999998  5.8904861782179996 3.035107002568  5.6941366137360001 2.7553221961090002  5.4977870492590002 2.347146336572  5.3014374847739996 1.8336042953080001  5.1050879202930002 1.2468193086699999  4.9087383558109998 0.62340926697800003  4.7123887913300004 -6.0025007843070001e-07 
 0 9 1.5707965158499999 9
1 6.2831853071800001 -0 0 1 
1 0 -0 0 1 
Curves 49
3 -164.19999999999999 -95.364000099999984 105.54000000000002 8.6595605623549316e-17 -0.70710678118654768 0.70710678118654746 -8.6595605623549353e-17 -0.70710678118654746 -0.70710678118654768 1 0 -1.2246467991473532e-16 9.8994949366119993 7
3 -164.19999999999999 -95.364000099999984 105.54000000000002 8.6595605623549316e-17 -0.70710678118654768 0.70710678118654746 -8.6595605623549353e-17 -0.70710678118654746 -0.70710678118654768 1 0 -1.2246467991473532e-16 9.8994949366119993 7
1 -157.19999999999999 -95.364000099999984 105.54000000000002 1.3596310734468911e-32 1 1.1102230246251565e-16 
2 -164.19999999999999 -85.564000099999987 105.54000000000002 1.3596310734468911e-32 1 1.1102230246251565e-16 1 0 -1.2246467991473532e-16 -1.2246467991473532e-16 1.1102230246251565e-16 -1 7
3 -164.19999999999999 -95.364000099999984 105.54000000000002 8.6595605623549353e-17 0.70710678118654746 0.70710678118654768 -8.6595605623549316e-17 0.70710678118654768 -0.70710678118654746 -1 0 1.2246467991473532e-16 9.8994949366119993 7
3 -164.19999999999999 -95.364000099999984 105.54000000000002 8.6595605623549353e-17 0.70710678118654746 0.70710678118654768 -8.6595605623549316e-17 0.70710678118654768 -0.70710678118654746 -1 0 1.2246467991473532e-16 9.8994949366119993 7
1 -171.19999999999999 -95.364000099999984 105.54000000000002 -1.3596310734468911e-32 -1 -1.1102230246251565e-16 
2 -164.19999999999999 -105.1640001 105.54000000000002 -1.3596310734468911e-32 -1 -1.1102230246251565e-16 -1 0 1.2246467991473532e-16 -1.2246467991473532e-16 1.1102230246251565e-16 -1 7
1 -164.19999999999999 -102.36400009999998 105.54000000000002 -1.2246467991473532e-16 1.1102230246251565e-16 -1 
2 -164.19999999999999 -95.364000099999984 93.840000000000018 -1.2246467991473532e-16 1.1102230246251565e-16 -1 -1.3596310734468911e-32 -1 -1.1102230246251565e-16 -1 0 1.2246467991473532e-16 7
2 -164.19999999999999 -84.864000099999984 105.54000000000002 1.3596310734468911e-32 1 1.1102230246251565e-16 1 0 -1.2246467991473532e-16 -1.2246467991473532e-16 1.1102230246251565e-16 -1 8.25
1 -157.19999999999999 -85.564000099999987 105.54000000000002 0.87250601594971999 0.48860336893184325 1.6109704097662327e-16 
2 -164.19999999999999 -105.86400009999998 105.54000000000002 -1.3596310734468911e-32 -1 -1.1102230246251565e-16 -1 0 1.2246467991473532e-16 -1.2246467991473532e-16 1.1102230246251565e-16 -1 8.25
1 -171.19999999999999 -105.1640001 105.54000000000002 -0.87250601594971999 -0.48860336893184325 2.6630763889103962e-16 
2 -164.19999999999999 -95.364000099999984 93.54000000000002 -1.2246467991473532e-16 1.1102230246251565e-16 -1 -1.3596310734468911e-32 -1 -1.1102230246251565e-16 -1 0 1.2246467991473532e-16 8.25
1 -164.19999999999999 -102.36400009999998 93.840000000000018 2.0958625545470986e-16 -0.9723873019806174 -0.2333729524749083 
2 -164.19999999999999 -79.614000099999984 105.54000000000002 1.3596310734468911e-32 1 1.1102230246251565e-16 1 0 -1.2246467991473532e-16 -1.2246467991473532e-16 1.1102230246251565e-16 -1 8.25
1 -155.94999999999999 -84.864000099999984 105.54000000000002 1.3596310734468911e-32 1 1.1102230246251565e-16 
2 -164.19999999999999 -111.11400009999998 105.54000000000002 -1.3596310734468911e-32 -1 -1.1102230246251565e-16 -1 0 1.2246467991473532e-16 -1.2246467991473532e-16 1.1102230246251565e-16 -1 8.25
1 -172.44999999999999 -105.86400009999998 105.54000000000002 -1.3596310734468911e-32 -1 -1.1102230246251565e-16 
2 -164.19999999999999 -95.364000099999984 88.04000000000002 -1.2246467991473532e-16 1.1102230246251565e-16 -1 -1.3596310734468911e-32 -1 -1.1102230246251565e-16 -1 0 1.2246467991473532e-16 8.25
1 -164.19999999999999 -103.61400009999998 93.54000000000002 -1.2246467991473532e-16 1.1102230246251565e-16 -1 
2 -164.19999999999999 -79.614000099999984 105.54000000000002 1.3596310734468911e-32 1 1.1102230246251565e-16 1 0 -1.2246467991473532e-16 -1.2246467991473532e-16 1.1102230246251565e-16 -1 7.75
2 -164.19999999999999 -111.11400009999998 105.54000000000002 -1.3596310734468911e-32 -1 -1.1102230246251565e-16 -1 0 1.2246467991473532e-16 -1.2246467991473532e-16 1.1102230246251565e-16 -1 7.75
2 -164.19999999999999 -95.364000099999984 88.04000000000002 -1.2246467991473532e-16 1.1102230246251565e-16 -1 -1.3596310734468911e-32 -1 -1.1102230246251565e-16 -1 0 1.2246467991473532e-16 7.75
2 -164.19999999999999 -76.864000099999984 105.54000000000002 1.3596310734468911e-32 1 1.1102230246251565e-16 1 0 -1.2246467991473532e-16 -1.2246467991473532e-16 1.1102230246251565e-16 -1 7.75
1 -156.44999999999999 -79.614000099999984 105.54000000000002 1.3596310734468911e-32 1 1.1102230246251565e-16 
2 -164.19999999999999 -113.86400009999998 105.54000000000002 -1.3596310734468911e-32 -1 -1.1102230246251565e-16 -1 0 1.2246467991473532e-16 -1.2246467991473532e-16 1.1102230246251565e-16 -1 7.75
1 -171.94999999999999 -111.11400009999998 105.54000000000002 -1.3596310734468911e-32 -1 -1.1102230246251565e-16 
2 -164.19999999999999 -95.364000099999984 85.29000000000002 -1.2246467991473532e-16 1.1102230246251565e-16 -1 -1.3596310734468911e-32 -1 -1.1102230246251565e-16 -1 0 1.2246467991473532e-16 7.75
1 -164.19999999999999 -103.11400009999998 88.04000000000002 -1.2246467991473532e-16 1.1102230246251565e-16 -1 
2 -164.19999999999999 -76.864000099999984 105.54000000000002 1.3596310734468911e-32 1 1.1102230246251565e-16 1 0 -1.2246467991473532e-16 -1.2246467991473532e-16 1.1102230246251565e-16 -1 5.7149999999999999
2 -164.19999999999999 -113.86400009999998 105.54000000000002 -1.3596310734468911e-32 -1 -1.1102230246251565e-16 -1 0 1.2246467991473532e-16 -1.2246467991473532e-16 1.1102230246251565e-16 -1 5.7149999999999999
2 -164.19999999999999 -95.364000099999984 85.29000000000002 -1.2246467991473532e-16 1.1102230246251565e-16 -1 -1.3596310734468911e-32 -1 -1.1102230246251565e-16 -1 0 1.2246467991473532e-16 5.7149999999999999
2 -164.19999999999999 -74.114000099999984 105.54000000000002 1.3596310734468911e-32 1 1.1102230246251565e-16 1 0 -1.2246467991473532e-16 -1.2246467991473532e-16 1.1102230246251565e-16 -1 5.7149999999999999
1 -158.48499999999999 -76.864000099999984 105.54000000000002 1.3596310734468911e-32 1 1.1102230246251565e-16 
2 -164.19999999999999 -116.61400009999998 105.54000000000002 -1.3596310734468911e-32 -1 -1.1102230246251565e-16 -1 0 1.2246467991473532e-16 -1.2246467991473532e-16 1.1102230246251565e-16 -1 5.7149999999999999
1 -169.91499999999996 -113.86400009999998 105.54000000000002 -1.3596310734468911e-32 -1 -1.1102230246251565e-16 
2 -164.19999999999999 -95.364000099999984 83.190000000000026 -1.2246467991473532e-16 1.1102230246251565e-16 -1 -1.3596310734468911e-32 -1 -1.1102230246251565e-16 -1 0 1.2246467991473532e-16 5.7149999999999999
1 -164.19999999999999 -101.07900009999999 85.29000000000002 -1.2246467991473532e-16 1.1102230246251565e-16 -1 
2 -164.19999999999999 -74.114000099999984 105.54000000000002 -1.3596310734468911e-32 -1 -1.1102230246251565e-16 -1 0 1.2246467991473532e-16 -1.2246467991473532e-16 1.1102230246251565e-16 -1 3.1749999999999998
2 -164.19999999999999 -116.61400009999998 105.54000000000002 -1.3596310734468911e-32 -1 -1.1102230246251565e-16 -1 0 1.2246467991473532e-16 -1.2246467991473532e-16 1.1102230246251565e-16 -1 3.1749999999999998
2 -164.19999999999999 -95.364000099999984 83.190000000000026 -1.2246467991473532e-16 1.1102230246251565e-16 -1 -1.3596310734468911e-32 -1 -1.1102230246251565e-16 -1 0 1.2246467991473532e-16 3.1749999999999998
1 -167.37499999999997 -73.114000099999984 105.54000000000002 -1.3596310734468911e-32 -1 -1.1102230246251565e-16 
1 -167.37499999999997 -73.114000099999984 105.54000000000002 -1.3596310734468911e-32 -1 -1.1102230246251565e-16 
3 -164.19999999999999 -95.364000099999984 105.54000000000002 -8.6595605623549353e-17 -0.70710678118654746 -0.70710678118654768 8.6595605623549316e-17 -0.70710678118654768 0.70710678118654746 -1 0 1.2246467991473532e-16 4.4901280605349996 3.1749999999999998
3 -164.19999999999999 -95.364000099999984 105.54000000000002 8.6595605623549316e-17 -0.70710678118654768 0.70710678118654746 -8.6595605623549353e-17 -0.70710678118654746 -0.70710678118654768 1 0 -1.2246467991473532e-16 4.4901280605349996 3.1749999999999998
3 -164.19999999999999 -95.364000099999984 105.54000000000002 8.6595605623549316e-17 -0.70710678118654768 0.70710678118654746 -8.6595605623549353e-17 -0.70710678118654746 -0.70710678118654768 1 0 -1.2246467991473532e-16 4.4901280605349996 3.1749999999999998
1 -164.19999999999999 -98.539000099999981 105.54000000000002 -1.2246467991473532e-16 1.1102230246251565e-16 -1 
Polygon3D 0
PolygonOnTriangulations 0
Surfaces 25
2 -164.19999999999999 -95.364000099999984 105.54000000000002 -1.3596310734468911e-32 -1 -1.1102230246251565e-16 -1 0 1.2246467991473532e-16 -1.2246467991473532e-16 1.1102230246251565e-16 -1 7
2 -164.19999999999999 -95.364000099999984 105.54000000000002 -1.2246467991473532e-16 1.1102230246251565e-16 -1 -1.3596310734468911e-32 -1 -1.1102230246251565e-16 -1 0 1.2246467991473532e-16 7
3 -164.19999999999999 -85.564000099999987 105.54000000000002 1.3596310734468911e-32 1 1.1102230246251565e-16 1 0 -1.2246467991473532e-16 -1.2246467991473532e-16 1.1102230246251565e-16 -1 7
1.060308004878
3 -164.19999999999999 -105.1640001 105.54000000000002 -1.3596310734468911e-32 -1 -1.1102230246251565e-16 -1 0 1.2246467991473532e-16 -1.2246467991473532e-16 1.1102230246251565e-16 -1 7
1.060308004878
3 -164.19999999999999 -95.364000099999984 93.840000000000018 -1.2246467991473532e-16 1.1102230246251565e-16 -1 -1.3596310734468911e-32 -1 -1.1102230246251565e-16 -1 0 1.2246467991473532e-16 7
1.3352513460740001
2 -164.19999999999999 -84.864000099999984 105.54000000000002 1.3596310734468911e-32 1 1.1102230246251565e-16 1 0 -1.2246467991473532e-16 -1.2246467991473532e-16 1.1102230246251565e-16 -1 8.25
2 -164.19999999999999 -105.86400009999998 105.54000000000002 -1.3596310734468911e-32 -1 -1.1102230246251565e-16 -1 0 1.2246467991473532e-16 -1.2246467991473532e-16 1.1102230246251565e-16 -1 8.25
2 -164.19999999999999 -95.364000099999984 93.54000000000002 -1.2246467991473532e-16 1.1102230246251565e-16 -1 -1.3596310734468911e-32 -1 -1.1102230246251565e-16 -1 0 1.2246467991473532e-16 8.25
1 -164.19999999999999 -79.614000099999984 105.54000000000002 1.3596310734468911e-32 1 1.1102230246251565e-16 1 0 -1.2246467991473532e-16 -1.2246467991473532e-16 1.1102230246251565e-16 -1 
2 -164.19999999999999 -79.614000099999984 105.54000000000002 1.3596310734468911e-32 1 1.1102230246251565e-16 1 0 -1.2246467991473532e-16 -1.2246467991473532e-16 1.1102230246251565e-16 -1 7.75
1 -164.19999999999999 -111.11400009999998 105.54000000000002 -1.3596310734468911e-32 -1 -1.1102230246251565e-16 -1 0 1.2246467991473532e-16 -1.2246467991473532e-16 1.1102230246251565e-16 -1 
2 -164.19999999999999 -111.11400009999998 105.54000000000002 -1.3596310734468911e-32 -1 -1.1102230246251565e-16 -1 0 1.2246467991473532e-16 -1.2246467991473532e-16 1.1102230246251565e-16 -1 7.75
1 -164.19999999999999 -95.364000099999984 88.04000000000002 -1.2246467991473532e-16 1.1102230246251565e-16 -1 -1.3596310734468911e-32 -1 -1.1102230246251565e-16 -1 0 1.2246467991473532e-16 
2 -164.19999999999999 -95.364000099999984 88.04000000000002 -1.2246467991473532e-16 1.1102230246251565e-16 -1 -1.3596310734468911e-32 -1 -1.1102230246251565e-16 -1 0 1.2246467991473532e-16 7.75
1 -164.19999999999999 -76.864000099999984 105.54000000000002 1.3596310734468911e-32 1 1.1102230246251565e-16 1 0 -1.2246467991473532e-16 -1.2246467991473532e-16 1.1102230246251565e-16 -1 
2 -164.19999999999999 -76.864000099999984 105.54000000000002 1.3596310734468911e-32 1 1.1102230246251565e-16 1 0 -1.2246467991473532e-16 -1.2246467991473532e-16 1.1102230246251565e-16 -1 5.7149999999999999
1 -164.19999999999999 -113.86400009999998 105.54000000000002 -1.3596310734468911e-32 -1 -1.1102230246251565e-16 -1 0 1.2246467991473532e-16 -1.2246467991473532e-16 1.1102230246251565e-16 -1 
2 -164.19999999999999 -113.86400009999998 105.54000000000002 -1.3596310734468911e-32 -1 -1.1102230246251565e-16 -1 0 1.2246467991473532e-16 -1.2246467991473532e-16 1.1102230246251565e-16 -1 5.7149999999999999
1 -164.19999999999999 -95.364000099999984 85.29000000000002 -1.2246467991473532e-16 1.1102230246251565e-16 -1 -1.3596310734468911e-32 -1 -1.1102230246251565e-16 -1 0 1.2246467991473532e-16 
2 -164.19999999999999 -95.364000099999984 85.29000000000002 -1.2246467991473532e-16 1.1102230246251565e-16 -1 -1.3596310734468911e-32 -1 -1.1102230246251565e-16 -1 0 1.2246467991473532e-16 5.7149999999999999
1 -164.19999999999999 -74.114000099999984 105.54000000000002 1.3596310734468911e-32 1 1.1102230246251565e-16 1 0 -1.2246467991473532e-16 -1.2246467991473532e-16 1.1102230246251565e-16 -1 
2 -164.19999999999999 -73.114000099999984 105.54000000000002 -1.3596310734468911e-32 -1 -1.1102230246251565e-16 -1 0 1.2246467991473532e-16 -1.2246467991473532e-16 1.1102230246251565e-16 -1 3.1749999999999998
1 -164.19999999999999 -116.61400009999998 105.54000000000002 -1.3596310734468911e-32 -1 -1.1102230246251565e-16 -1 0 1.2246467991473532e-16 -1.2246467991473532e-16 1.1102230246251565e-16 -1 
1 -164.19999999999999 -95.364000099999984 83.190000000000026 -1.2246467991473532e-16 1.1102230246251565e-16 -1 -1.3596310734468911e-32 -1 -1.1102230246251565e-16 -1 0 1.2246467991473532e-16 
2 -164.19999999999999 -95.364000099999984 105.54000000000002 -1.2246467991473532e-16 1.1102230246251565e-16 -1 -1.3596310734468911e-32 -1 -1.1102230246251565e-16 -1 0 1.2246467991473532e-16 3.1749999999999998
Triangulations 0

TShapes 143
Ve
1e-07
-89.1 105.54 186.1740001
0 0

0101101
*
Ve
1e-07
-82.1 98.54 193.1740001
0 0

0101101
*
Ed
 1e-07 1 1 0
1  1 0 4.71238898038469 6.28318530717959
2  1 1 0 4.71238898038469 6.28318530717959
2  2 2 0 4.71238898038469 6.28318530717959
0

0101000
+143 5 -142 5 *
Ve
1e-07
-75.1 105.54 186.1740001
0 0

0101101
*
Ed
 1e-07 1 1 0
1  2 0 0 1.5707963267949
2  3 1 0 0 1.5707963267949
2  4 2 0 0 1.5707963267949
0

0101000
+142 5 -140 5 *
Ve
1e-07
-75.1 105.54 176.3740001
0 0

0101101
*
Ed
 1e-07 1 1 0
1  3 0 0 9.8
3  5 6CN 1 0 0 9.8
0

0101000
+140 5 -138 5 *
Ed
 1e-07 1 1 0
1  4 0 0 6.28318530717959
2  7 1 0 0 6.28318530717959
2  8 3 0 0 6.28318530717959
0

0101100
+138 5 -138 5 *
Ve
1e-07
-82.1 98.54 179.1740001
0 0

0101101
*
Ed
 1e-07 1 1 0
1  5 0 4.71238898038469 6.28318530717959
2  9 1 0 4.71238898038469 6.28318530717959
2  10 2 0 4.71238898038469 6.28318530717959
0

0101000
+140 5 -135 5 *
Ed
 1e-07 1 1 0
1  6 0 0 1.5707963267949
2  11 1 0 0 1.5707963267949
2  12 2 0 0 1.5707963267949
0

0101000
+135 5 -143 5 *
Ve
1e-07
-89.1 105.54 195.9740001
0 0

0101101
*
Ed
 1e-07 1 1 0
1  7 0 0 9.8
3  13 14CN 1 0 0 9.8
0

0101000
+143 5 -132 5 *
Ed
 1e-07 1 1 0
1  8 0 0 6.28318530717959
2  15 1 0 0 6.28318530717959
2  16 4 0 0 6.28318530717959
0

0101100
+132 5 -132 5 *
Wi

0101100
+141 0 +139 0 +137 0 -136 0 -137 0 +134 0 +133 0 +131 0 -130 0 -131 0 
*
Fa
0  1e-07 1 0

0111000
+129 0 *
Ve
1e-07
-82.1 93.84 193.1740001
0 0

0101101
*
Ed
 1e-07 1 1 0
1  9 0 7 11.7
3  17 18CN 2 0 7 11.7
0

0101000
+142 5 -127 5 *
Ed
 1e-07 1 1 0
1  10 0 0 6.28318530717959
2  19 2 0 0 6.28318530717959
2  20 5 0 0 6.28318530717959
0

0101100
+127 5 -127 5 *
Wi

0101100
+126 0 -125 0 -126 0 -141 0 -133 0 -134 0 -139 0 *
Fa
0  1e-07 2 0

0111000
+124 0 *
Ve
1e-07
-73.85 105.54 175.6740001
0 0

0101101
*
Ed
 1e-07 1 1 0
1  11 0 0 6.28318530717959
2  21 3 0 0 6.28318530717959
2  22 6 0 0 6.28318530717959
0

0101100
+122 5 -122 5 *
Ed
 1e-07 1 1 0
1  12 0 -0 1.43265487818944
3  23 24CN 3 0 -0 1.43265487818944
0

0101000
+138 5 -122 5 *
Wi

0101100
-121 0 -120 0 +136 0 +120 0 *
Fa
0  1e-07 3 0

0111000
+119 0 *
Ve
1e-07
-90.35 105.54 196.6740001
0 0

0101101
*
Ed
 1e-07 1 1 0
1  13 0 0 6.28318530717959
2  25 4 0 0 6.28318530717959
2  26 7 0 0 6.28318530717959
0

0101100
+117 5 -117 5 *
Ed
 1e-07 1 1 0
1  14 0 0 1.43265487818944
3  27 28CN 4 0 0 1.43265487818944
0

0101000
+132 5 -117 5 *
Wi

0101100
-116 0 -115 0 +130 0 +115 0 *
Fa
0  1e-07 4 0

0111000
+114 0 *
Ve
1e-07
-82.1 93.54 194.4240001
0 0

0101101
*
Ed
 1e-07 1 1 0
1  15 0 0 6.28318530717959
2  29 5 0 0 6.28318530717959
2  30 8 0 0 6.28318530717959
0

0101100
+112 5 -112 5 *
Ed
 1e-07 1 1 0
1  16 0 0 1.28549601321824
3  31 32CN 5 0 0 1.28549601321824
0

0101000
+127 5 -112 5 *
Wi

0101100
-111 0 -110 0 +125 0 +110 0 *
Fa
0  1e-07 5 0

0111000
+109 0 *
Ve
1e-07
-73.85 105.54 170.4240001
0 0

0101101
*
Ed
 1e-07 1 1 0
1  17 0 0 6.28318530717959
2  33 6 0 0 6.28318530717959
0

0101100
+107 5 -107 5 *
Ed
 1e-07 1 1 0
1  18 0 0 5.25
3  34 35CN 6 0 0 5.25
0

0101000
+122 5 -107 5 *
Wi

0101100
-106 0 -105 0 +121 0 +105 0 *
Fa
0  1e-07 6 0

0111000
+104 0 *
Ve
1e-07
-90.35 105.54 201.9240001
0 0

0101101
*
Ed
 1e-07 1 1 0
1  19 0 0 6.28318530717959
2  36 7 0 0 6.28318530717959
0

0101100
+102 5 -102 5 *
Ed
 1e-07 1 1 0
1  20 0 0 5.25
3  37 38CN 7 0 0 5.25
0

0101000
+117 5 -102 5 *
Wi

0101100
-101 0 -100 0 +116 0 +100 0 *
Fa
0  1e-07 7 0

0111000
+99 0 *
Ve
1e-07
-82.1 88.04 194.4240001
0 0

0101101
*
Ed
 1e-07 1 1 0
1  21 0 0 6.28318530717959
2  39 8 0 0 6.28318530717959
0

0101100
+97 5 -97 5 *
Ed
 1e-07 1 1 0
1  22 0 0 5.5
3  40 41CN 8 0 0 5.5
0

0101000
+112 5 -97 5 *
Wi

0101100
-96 0 -95 0 +111 0 +95 0 *
Fa
0  1e-07 8 0

0111000
+94 0 *
Wi

0101100
+106 0 *
Ve
1e-07
-74.35 105.54 170.4240001
0 0

0101101
*
Ed
 1e-07 1 1 0
1  23 0 0 6.28318530717959
2  42 10 0 0 6.28318530717959
0

0101100
+91 5 -91 5 *
Wi

0101100
-90 0 *
Fa
0  1e-07 9 0

0111000
+92 0 +89 0 *
Wi

0101100
+101 0 *
Ve
1e-07
-89.85 105.54 201.9240001
0 0

0101101
*
Ed
 1e-07 1 1 0
1  24 0 0 6.28318530717959
2  43 12 0 0 6.28318530717959
0

0101100
+86 5 -86 5 *
Wi

0101100
-85 0 *
Fa
0  1e-07 11 0

0111000
+87 0 +84 0 *
Wi

0101100
+96 0 *
Ve
1e-07
-82.1 88.04 193.9240001
0 0

0101101
*
Ed
 1e-07 1 1 0
1  25 0 0 6.28318530717959
2  44 14 0 0 6.28318530717959
0

0101100
+81 5 -81 5 *
Wi

0101100
-80 0 *
Fa
0  1e-07 13 0

0111000
+82 0 +79 0 *
Ve
1e-07
-74.35 105.54 167.6740001
0 0

0101101
*
Ed
 1e-07 1 1 0
1  26 0 0 6.28318530717959
2  45 10 0 0 6.28318530717959
0

0101100
+77 5 -77 5 *
Ed
 1e-07 1 1 0
1  27 0 0 2.75
3  46 47CN 10 0 0 2.75
0

0101000
+91 5 -77 5 *
Wi

0101100
-76 0 -75 0 +90 0 +75 0 *
Fa
0  1e-07 10 0

0111000
+74 0 *
Ve
1e-07
-89.85 105.54 204.6740001
0 0

0101101
*
Ed
 1e-07 1 1 0
1  28 0 0 6.28318530717959
2  48 12 0 0 6.28318530717959
0

0101100
+72 5 -72 5 *
Ed
 1e-07 1 1 0
1  29 0 0 2.75
3  49 50CN 12 0 0 2.75
0

0101000
+86 5 -72 5 *
Wi

0101100
-71 0 -70 0 +85 0 +70 0 *
Fa
0  1e-07 12 0

0111000
+69 0 *
Ve
1e-07
-82.1 85.29 193.9240001
0 0

0101101
*
Ed
 1e-07 1 1 0
1  30 0 0 6.28318530717959
2  51 14 0 0 6.28318530717959
0

0101100
+67 5 -67 5 *
Ed
 1e-07 1 1 0
1  31 0 0 2.75
3  52 53CN 14 0 0 2.75
0

0101000
+81 5 -67 5 *
Wi

0101100
-66 0 -65 0 +80 0 +65 0 *
Fa
0  1e-07 14 0

0111000
+64 0 *
Wi

0101100
+76 0 *
Ve
1e-07
-76.385 105.54 167.6740001
0 0

0101101
*
Ed
 1e-07 1 1 0
1  32 0 0 6.28318530717959
2  54 16 0 0 6.28318530717959
0

0101100
+61 5 -61 5 *
Wi

0101100
-60 0 *
Fa
0  1e-07 15 0

0111000
+62 0 +59 0 *
Wi

0101100
+71 0 *
Ve
1e-07
-87.815 105.54 204.6740001
0 0

0101101
*
Ed
 1e-07 1 1 0
1  33 0 0 6.28318530717959
2  55 18 0 0 6.28318530717959
0

0101100
+56 5 -56 5 *
Wi

0101100
-55 0 *
Fa
0  1e-07 17 0

0111000
+57 0 +54 0 *
Wi

0101100
+66 0 *
Ve
1.00000004440892e-07
-82.1 85.29 191.8890001
0 0

0101101
*
Ed
 1.00000004440892e-07 1 1 0
1  34 0 0 6.28318530717959
2  56 20 0 0 6.28318530717959
0

0101100
+51 5 -51 5 *
Wi

0101100
-50 0 *
Fa
0  1e-07 19 0

0111000
+52 0 +49 0 *
Ve
1e-07
-76.385 105.54 164.9240001
0 0

0101101
*
Ed
 1e-07 1 1 0
1  35 0 0 6.28318530717959
2  57 16 0 0 6.28318530717959
0

0101100
+47 5 -47 5 *
Ed
 1e-07 1 1 0
1  36 0 0 2.75
3  58 59CN 16 0 0 2.75
0

0101000
+61 5 -47 5 *
Wi

0101100
-46 0 -45 0 +60 0 +45 0 *
Fa
0  1e-07 16 0

0111000
+44 0 *
Ve
1e-07
-87.815 105.54 207.4240001
0 0

0101101
*
Ed
 1e-07 1 1 0
1  37 0 0 6.28318530717959
2  60 18 0 0 6.28318530717959
0

0101100
+42 5 -42 5 *
Ed
 1e-07 1 1 0
1  38 0 0 2.75
3  61 62CN 18 0 0 2.75
0

0101000
+56 5 -42 5 *
Wi

0101100
-41 0 -40 0 +55 0 +40 0 *
Fa
0  1e-07 18 0

0111000
+39 0 *
Ve
1e-07
-82.1 83.19 191.8890001
0 0

0101101
*
Ed
 1e-07 1 1 0
1  39 0 0 6.28318530717959
2  63 20 0 0 6.28318530717959
0

0101100
+37 5 -37 5 *
Ed
 1e-07 1 1 0
1  40 0 0 2.1
3  64 65CN 20 0 0 2.1
0

0101000
+51 5 -37 5 *
Wi

0101100
-36 0 -35 0 +50 0 +35 0 *
Fa
0  1e-07 20 0

0111000
+34 0 *
Wi

0101100
+46 0 *
Ve
1e-07
-85.275 105.54 164.9240001
0 0

0101101
*
Ed
 1e-07 1 1 0
1  41 0 0 6.28318530717959
2  66 22 0 0 6.28318530717959
0

0101100
+31 5 -31 5 *
Wi

0101100
+30 0 *
Fa
0  1e-07 21 0

0111000
+32 0 +29 0 *
Wi

0101100
+41 0 *
Ve
1e-07
-85.275 105.54 207.4240001
0 0

0101101
*
Ed
 1e-07 1 1 0
1  42 0 0 6.28318530717959
2  67 22 0 0 6.28318530717959
0

0101100
+26 5 -26 5 *
Wi

0101100
-25 0 *
Fa
0  1e-07 23 0

0111000
+27 0 +24 0 *
Wi

0101100
+36 0 *
Ve
1e-07
-82.1 83.19 189.3490001
0 0

0101101
*
Ed
 1e-07 1 1 0
1  43 0 0 6.28318530717959
2  68 25 0 0 6.28318530717959
0

0101100
+21 5 -21 5 *
Wi

0101100
-20 0 *
Fa
0  1e-07 24 0

0111000
+22 0 +19 0 *
Ve
1e-07
-85.275 105.54 186.1740001
0 0

0101101
*
Ed
 1e-07 1 1 0
1  44 0 22.2499999999999 43.5
3  69 70CN 22 0 22.2499999999999 43.5
0

0101000
+17 5 -26 5 *
Ed
 1e-07 1 1 0
1  45 0 1 22.2499999999999
3  71 72CN 22 0 1 22.2499999999999
0

0101000
+31 5 -17 5 *
Wi

0101100
-25 0 -16 0 -15 0 +30 0 +15 0 +16 0 *
Ve
1e-07
-78.925 105.54 186.1740001
0 0

0101101
*
Ed
 1e-07 1 1 0
1  46 0 1.5707963267949 4.71238898038469
2  73 22 0 1.5707963267949 4.71238898038469
2  74 25 0 1.5707963267949 4.71238898038469
0

0101000
+17 5 -13 5 *
Ve
1e-07
-82.1 102.365 189.3490001
0 0

0101101
*
Ed
 1e-07 1 1 0
1  47 0 4.71238898038469 6.28318530717959
2  75 22 0 4.71238898038469 6.28318530717959
2  76 25 0 4.71238898038469 6.28318530717959
0

0101000
+17 5 -11 5 *
Ed
 1e-07 1 1 0
1  48 0 0 1.5707963267949
2  77 22 0 0 1.5707963267949
2  78 25 0 0 1.5707963267949
0

0101000
+11 5 -13 5 *
Wi

0101100
-12 0 +10 0 +9 0 *
Fa
0  1e-07 22 0

0111000
+14 0 +8 0 *
Ed
 1e-07 1 1 0
1  49 0 3.175 22.35
3  79 80CN 25 0 3.175 22.35
0

0101000
+11 5 -21 5 *
Wi

0101100
-20 0 -6 0 -10 0 +12 0 -9 0 +6 0 *
Fa
0  1e-07 25 0

0111000
+5 0 *
Sh

0101100
+128 0 +123 0 +118 0 +113 0 +108 0 +103 0 +98 0 +93 0 +88 0 +83 0 
+78 0 +73 0 +68 0 +63 0 +58 0 +53 0 +48 0 +43 0 +38 0 +33 0 
+28 0 +23 0 +18 0 -7 0 -4 0 *
So

0100000
+3 0 *
Co

0100000
+2 4 *

+1 3 