DBRep_DrawableShape

CASCADE Topology V3, (c) Open Cascade
Locations 2
1
              1               0               0               0 
              0               1               0               0 
              0               0               1               0 
2  1 -1 0
Curve2ds 12
1 0 12.699999999999996 1 0 
1 0 6.2954866185398419 -0 -1 
7 0 0  8 16 3  1.5612582230829106 12.699999999999996  1.7576077639322729 11.991943505874092  1.9539573047791705 11.283886843636594  2.1503068456302397 10.617428208483398  2.3466563864657091 10.034157457598628  2.5430059273304639 9.570559509433993  2.7393554681769765 9.2527855444743015  2.9357050090284473 9.0938978870894189  3.3284040907271719 9.0938978870894189  3.5247536315728887 9.2527855444669438  3.7211031724318473 9.5705595094697937  3.9174527132511083 10.034157457522996  4.1138022541298653 10.617428208495303  4.3101517949685659 11.283886843629448  4.5065013358233434 11.991943505874078  4.7028508766727057 12.699999999999982 
 1.5707963267948948 9 3.1415926535897927 7 4.7123889803846906 9
7 0 0  7 26 5  0.2400964585931866 0.012301311360255696  0.24026153587514026 0.073096291140421613  0.23971116154912742 0.13394393598549062  0.23844219593022151 0.1946381340749461  0.23646074148375623 0.25502807517522641  0.2337767148647785 0.31498479744361763  0.23040371679464317 0.37437776238615478  0.22447680508719708 0.46048040304256549  0.22244346249329153 0.48775082973278289  0.22026604943058695 0.51486194143794661  0.21794652452590274 0.5418045617424051  0.21548691188495153 0.56857083023946797  0.21288928538196769 0.59515389835377996  0.20521078649830421 0.66929393760345979  0.19982113698105047 0.71641999570533599  0.19399903990688858 0.76289285318336064  0.18775642812045867 0.80869243517349754  0.18110482068944095 0.85380667466717097  0.1740550631816348 0.89822953577762299  0.14891024291999422 1.0460679023861901  0.12902612479811507 1.1461228093373079  0.10706727211834843 1.2423859838303228  0.083115907441719206 1.3350077817532744  0.057254302953581922 1.4241304462977769  0.029550455452359948 1.5099276526318013  0 1.5926357418671397 
 0 8 0.23123866916709304 6 0.33928095085408821 6 0.53472968665728071 6 1 8
7 0 0  7 26 5  0 4.7342283954569382  0.029788281839351477 4.8187476118239827  0.057700152631221156 4.9064490919823349  0.08374487516724495 4.9975787380850631  0.10785536897798481 5.0923154842071465  0.1299493620977091 5.1908078320610604  0.14994212907836832 5.2932149015232604  0.17502329595275964 5.4435818960604427  0.18194657606801856 5.4880307048049266  0.1884829652344408 5.533161645786592  0.19462153942645549 5.5789686963599978  0.20035059253991294 5.6254399902008547  0.20565786109202946 5.6725558076725475  0.21322617159307553 5.7466861621806844  0.21578873590282793 5.7732757500341805  0.21821612293887177 5.8000464185043388  0.22050615777837113 5.8269914251825989  0.22265669860939427 5.8541030288279057  0.22466565223451673 5.8813721846020508  0.23020527262535331 5.9627915249109886  0.23332361592596756 6.0173833788668691  0.23586806130363328 6.0724574782515983  0.23782601354721206 6.1279150616307527  0.23918734212889325 6.183656320486465  0.23994461416177426 6.2395650584789779  0.24009645859318685 6.295486618539841 
 0 8 0.4795960244540039 6 0.67650707142354116 6 0.78543573373187436 6 1 8
1 0 0.012301311360255888 1 0 
1 0 6.2954866185398419 1 0 
7 0 0  7 26 5  1.6975369585966289 4.6905495653124403  1.6677801299052606 4.7738352678537801  1.6398959642353115 4.8602528993195087  1.6138795658949001 4.9500448590049713  1.5898009859993874 5.0433881960143561  1.5677446728293587 5.1404271777173713  1.5477948391675431 5.2413142951044192  1.5228058738471972 5.3892384846413961  1.5159284030839171 5.4328259503803569  1.5094339540145421 5.4770770458514404  1.5033327610706999 5.5219858354846982  1.4976356796732604 5.5675407253590503  1.4923539493085116 5.6137226502395068  1.4847596376748324 5.6868960640678887  1.4821561202998785 5.7134810945230106  1.4796906441164668 5.7402496478795433  1.4773652855910657 5.7671948972413913  1.4751820720967923 5.7943090027289594  1.4731429661698503 5.8215828077998681  1.4669544416228497 5.911226647767335  1.4634078464437674 5.9742538823898856  1.4606377442797149 6.0379066133744113  1.4586597075557983 6.1020272175774659  1.4574847770406474 6.1664626704907253  1.4571193707391485 6.2310330029074636  1.4575575257085109 6.295486618539841 
 0 8 0.4623481446362751 6 0.65135778658040333 6 0.75801007313057656 6 1 8
1 1.6975369585966289 0 0 1 
1 6.2954866185398419 0 -1 -0 
7 0 0  7 26 5  1.4575575257085112 0.012301311360255696  1.4579160137297082 0.065035733522943742  1.4588126035613751 0.11772108540117679  1.460245023551989 0.17023104379597848  1.4622065071717412 0.22246891941152777  1.4646881365454187 0.27435126089852052  1.4676790337663213 0.32579650733244309  1.4730408473870031 0.40413411386291359  1.4750608950408741 0.43140190370364534  1.4772225069585065 0.45851145641448082  1.4795235844131267 0.485453776222394  1.4819619814695077 0.51222117051671956  1.4845355205079791 0.53880694655006756  1.4921349416891658 0.61292913169331509  1.4974623314069888 0.66003936486051296  1.5032114466623911 0.70650368099550587  1.5093700255497624 0.75230260674385996  1.5159263694940308 0.79742448759316542  1.5228695685526181 0.84186350078429506  1.5479571854662277 0.99182469821953967  1.5679212932567081 1.0938638758629395  1.5899728058520186 1.1920133815133414  1.6140278890415967 1.2864313214182512  1.6400052055772365 1.3772652743502978  1.6678385586703368 1.4646927200964914  1.6975369585966289 1.5489569117226549 
 0 8 0.20516840432047917 6 0.31562673011658682 6 0.51531926265264216 6 1 8
7 0 0  8 16 3  1.6049370532273952 7.1054273576010019e-15  1.8012865940767571 0.70805649412591076  1.9976361349233176 1.4161131563639573  2.1939856757839773 2.0825717914872386  2.3903352166070855 2.6658425424300618  2.5866847574824918 3.1294404905282436  2.7830342983195462 3.4472144555277739  2.9793838391729297 3.6061021129105697  3.3720829208716534 3.6061021129105697  3.5684324617107444 3.447214455529183  3.7647820026016983 3.1294404905241291  3.9611315433674745 2.6658425424401369  4.1574810842977863 2.0825717914811852  4.3538306251075172 1.4161131563654132  4.5501801659678209 0.7080564941259111  4.7465297068171832 7.1054273576010019e-15 
 4.7123889803846915 9 6.2831853071795862 7 7.8539816339744819 9
Curves 9
2 82.100000000000009 105.54000000000001 207.4240001 0.75046705272672021 -0.010832389421210743 0.66081908425158065 0.66085785813786158 -5.0299641752712992e-18 -0.75051108675184675 0.0081298283566320871 0.99994132794850887 0.0071586696714165564 3.1750000000000007
3 82.099999999999994 105.54000000000001 207.4240001 -1.3600086819469534e-32 -1.1102230246251565e-16 1 0.9998958432509899 -0.014432693767688569 -1.6023508928251713e-18 0.014432693767688569 0.9998958432509899 1.1101073874042354e-16 4.8046433216980855 3.1750000000000007
7 0 0  7 26 5  86.325498538672335 105.50093907447973 207.4240001  86.324809430909042 105.30790368789556 207.4240001  86.307430434840384 105.11486907656393 207.4240001  86.273326417924523 104.92365800436608 207.4240001  86.222892147700392 104.7359131391682 207.4240001  86.156821233382445 104.55311236329378 207.4240001  86.076054480030109 104.37657045667727 207.4240001  85.937772451218777 104.12839785989348 207.4240001  85.890784133476714 104.05096542047983 207.4240001  85.840957486268664 103.97523527235221 207.4240001  85.788412949596108 103.90129856167223 207.4240001  85.733274940079539 103.82923318559341 207.4240001  85.675670171778549 103.75910483498465 207.4240001  85.507286790955064 103.56770841333091 207.4240001  85.391193386776891 103.45096781304603 207.4240001  85.268194253507147 103.34106024869082 207.4240001  85.139031776268411 103.23816949144663 207.4240001  85.004418804669186 103.14237491846067 207.4240001  84.865021046207119 103.05367224756432 207.4240001  84.379659806875608 102.7775406469494 207.4240001  84.014651901185218 102.62312978721683 207.4240001  83.633956978483681 102.50716450676232 207.4240001  83.243687540368327 102.42694527425353 207.42400009999997  82.848508047225238 102.37898202280167 207.42400009999997  82.451517675774866 102.35959539242714 207.42400009999997  82.054176197287589 102.3653306976781 207.42400009999997 
 0 8 0.23123866916709304 6 0.33928095085408821 6 0.53472968665728071 6 1 8
7 0 0  7 26 5  82.145823802712442 108.71466930232188 207.4240001  82.551866194724539 108.7088084063694 207.4240001  82.956788803590172 108.67626891264931 207.4240001  83.358847244465551 108.61351570276329 207.4240001  83.75453405334882 108.51684149199986 207.4240001  84.138679373375069 108.38283502153743 207.4240001  84.50460227590446 108.20902520006766 207.4240001  84.983563780000523 107.90604089463397 207.4240001  85.118448848861931 107.81099326800701 207.4240001  85.248197278859706 107.70905477008175 207.4240001  85.372145137771227 107.6002629727282 207.4240001  85.489587021649172 107.48474059390135 207.4240001  85.599794260259827 107.36271493216685 207.4240001  85.758599718501628 107.16363854755278 207.4240001  85.812723273363474 107.09085434607212 207.4240001  85.864285842252073 107.01625125904334 207.4240001  85.91316467183627 106.93990203646183 207.4240001  85.959239935074223 106.86189136610378 207.4240001  86.002396432962797 106.78231681693008 207.4240001  86.121569874021603 106.5416852686367 207.4240001  86.188895034473603 106.37638986802411 207.4240001  86.243616614907097 106.20632415132671 207.4240001  86.285039262787805 106.0325297814469 207.4240001  86.312645375460264 105.85616386805748 207.4240001  86.32613240649026 105.67850044556288 207.4240001  86.325498538672335 105.50093907447973 207.4240001 
 0 8 0.4795960244540039 6 0.67650707142354116 6 0.78543573373187436 6 1 8
2 75.383609243971009 105.37594956771045 215.04885997095451 -2.9614828617081608e-15 -0.99986567221115197 -0.016390165763086214 0.66090786254338796 0.012300279393923752 -0.75036624414692443 0.75046705272672054 -0.010832389421215345 0.66081908425158009 13.337130567179539
7 0 0  7 26 5  82.054176197287589 108.46466930232185 222.67500009999998  82.454292612629558 108.47044466155856 222.67500009999998  82.85405068697807 108.450745932365 222.67500009999998  83.251965191266635 108.4020461783424 222.67500009999998  83.644860148746787 108.32058536181552 222.67500009999998  84.027946927376476 108.2028017633464 222.67500009999998  84.394947345809157 108.0459573234989 222.67500009999998  84.878411783475698 107.76773517676395 222.67500009999998  85.014641479799764 107.68025438372162 222.67500009999998  85.146235622666907 107.58596278836217 222.67500009999998  85.272565712806724 107.48486003427379 222.67500009999998  85.392960135085715 107.37702358078971 222.67500009999998  85.506720209048211 107.26262752623157 222.67500009999998  85.673191668913702 107.07388045830497 222.67500009999998  85.730904816979503 107.00380040324858 222.67500009999998  85.786153447126509 106.93178012803509 222.67500009999998  85.838810687860203 106.85788508174984 222.67500009999998  85.888751928740632 106.78219292874299 222.67500009999998  85.935856500142791 106.70479459511373 222.67500009999998  86.080190474151209 106.44654899438196 222.67500009999998  86.165240185591117 106.25894644514341 222.67500009999998  86.233687327597337 106.06436297170362 222.67500009999998  86.284426844417993 105.86438750080119 222.67500009999998  86.316670838712042 105.66080411080102 222.67500009999998  86.330012947446832 105.4555913114791 222.67500009999998  86.324606039269852 105.2509390744797 222.67500009999998 
 0 8 0.4623481446362751 6 0.65135778658040333 6 0.75801007313057656 6 1 8
2 82.100000000000009 105.28999999999995 222.67500009999998 0.75046705272672076 0.010832389421210901 -0.66081908425158009 0.66090786254338774 -0.012300279393927669 0.75036624414692443 -2.9611251323511003e-15 -0.99986567221115197 -0.016390165763086214 3.1749999999999998
7 0 0  7 26 5  86.324606039269852 105.2509390744797 222.67500009999998  86.320182235025484 105.08349745997015 222.67500009999998  86.303205362247766 104.91633821698964 222.67500009999998  86.273736028299211 104.75062350421987 222.67500009999998  86.232065189415195 104.58740906428309 222.67500009999998  86.178650918189376 104.42765193238924 222.67500009999998  86.114088974124385 104.27221263751753 222.67500009999998  85.998753948843344 104.04090085587018 222.67500009999998  85.955367429629092 103.96141004394357 222.67500009999998  85.909066952583103 103.88349036187321 222.67500009999998  85.859968102522174 103.80723886697578 222.67500009999998  85.808191015517892 103.7327397218147 222.67500009999998  85.753858678312824 103.66006514365051 222.67500009999998  85.594475193263293 103.46130055306013 222.67500009999998  85.483910841101633 103.33948980778663 222.67500009999998  85.366130932425278 103.22419711970018 222.67500009999998  85.241864569323027 103.11564692235946 222.67500009999998  85.111817096568032 103.01395931208374 222.67500009999998  84.976651982185743 102.91916949388037 222.67500009999998  84.49797270713303 102.61783161748838 222.67500009999998  84.132879509401207 102.44514561075619 222.67500009999998  83.749756356808447 102.3119934798755 222.67500009999998  83.355207936300161 102.21591727195067 222.67500009999998  82.954345984740456 102.15353497379353 222.67500009999998  82.550641019429946 102.12117390920875 222.67500009999998  82.145823802712414 102.11533069767806 222.67500009999998 
 0 8 0.20516840432047917 6 0.31562673011658682 6 0.51531926265264216 6 1 8
3 82.100000000000009 105.28999999999999 222.67500009999998 -1.3745269890683251e-32 -1.1102230246251565e-16 1 -0.9998958432509899 -0.014432693767688323 -1.6023508928251713e-18 0.014432693767688323 -0.9998958432509899 -1.1101073874042354e-16 4.8046433216980899 3.1749999999999998
Polygon3D 0
PolygonOnTriangulations 0
Surfaces 5
10 0 6.2831853071795862 0 12.699999999999996
2 72.569068430370663 105.67757134564938 199.03159773000493 0.75046705272672021 -0.010832389421210741 0.66081908425158065 0.66085785813786158 -5.0299641752712992e-18 -0.75051108675184675 0.0081298283566320871 0.99994132794850887 0.0071586696714165564 3.1750000000000007
10 0 1.6975369585966289 0.012301311360255888 6.2954866185398419
5 75.383609243971009 105.41499999999999 215.04950009999999 -2.9600747881803487e-15 -0.99986567221115186 -0.01639016576308621 0.66090786254338774 0.012300279393923754 -0.75036624414692454 0.75046705272672065 -0.010832389421215342 0.66081908425157987 10.16237078823991 3.1749999999999998
10 0 6.2831853071795862 0 12.700000000000008
2 82.100000000000009 105.28999999999999 222.67500009999998 -0.75046705272672098 -0.010832389421210568 0.66081908425157965 0.66085785813786069 -0.024598697505227918 0.75010785585706652 0.0081298283566333032 0.99963871644733415 0.025619181689080978 3.1749999999999998
1 112.051 75.338999999999984 207.42400009999997 -1.3596310734468911e-32 -1.1102230246251565e-16 1 1.2246467991473532e-16 1 1.1102230246251565e-16 -1 1.2246467991473532e-16 0 
1 112.051 75.338999999999984 222.67500009999998 -1.3596310734468911e-32 -1.1102230246251565e-16 1 1.2246467991473532e-16 1 1.1102230246251565e-16 -1 1.2246467991473532e-16 0 
Triangulations 0

TShapes 28
Ve
1.00000003182605e-06
82.1458238027124 108.714669302322 207.4240001
0 0

0101101
*
Ve
1.00000002017554e-06
82.0541761972876 102.365330697678 207.4240001
0 0

0101101
*
Ed
 1e-07 1 1 0
1  1 0 1.56125822308291 4.70285087667271
2  1 1 0 1.56125822308291 4.70285087667271
2  2 2 0 1.56125822308291 4.70285087667271
4 G1 1 0 2 0
0

0101000
+28 2 -27 2 *
Ed
 1e-07 1 1 0
1  2 0 1.57079632679489 4.71238898038469
2  3 1 0 1.57079632679489 4.71238898038469
0

0101000
+28 2 -27 2 *
Wi

0101100
-26 0 +25 0 *
Fa
0  1e-07 1 0

0101000
+24 0 *
Ve
1.000001e-06
86.3254985386723 105.50093907448 207.4240001
0 0

0101101
*
Ed
 1e-06 1 1 0
1  3 0 0 1
2  4 2 0 0 1
0

0101000
+22 2 -27 2 *
Ed
 1e-06 1 1 0
1  4 0 0 1
2  5 2 0 0 1
0

0101000
+28 2 -22 2 *
Ve
1.000001e-06
86.3246060392699 105.25093907448 222.6750001
0 0

0101101
*
Ed
 1e-07 1 1 0
1  5 0 0.240096458593186 1.45755752570851
3  6 7G1 2 0 0.240096458593186 1.45755752570851
0

0101000
+22 2 -19 2 *
Ve
1.00000001776357e-06
82.0541761972876 108.464669302322 222.6750001
0 0

0101101
*
Ed
 1e-06 1 1 0
1  6 0 0 1
2  8 2 0 0 1
0

0101000
+17 2 -19 2 *
Ve
1.00000000710543e-06
82.1458238027124 102.115330697678 222.6750001
0 0

0101101
*
Ed
 1e-07 1 1 0
1  7 0 1.54895691172265 4.69054956531244
2  9 2 0 1.54895691172265 4.69054956531244
2  10 3 0 1.54895691172265 4.69054956531244
4 G1 2 0 3 0
0

0101000
+15 2 -17 2 *
Ed
 1e-06 1 1 0
1  8 0 0 1
2  11 2 0 0 1
0

0101000
+19 2 -15 2 *
Wi

0101100
-21 0 +26 0 -20 0 -18 0 +16 0 +14 0 +13 0 +18 0 *
Fa
0  1e-07 2 0

0101000
+12 0 *
Wi

0101100
-20 0 -21 0 +25 0 *
Fa
0  1e-07 4 0

0101000
+10 0 *
Ed
 1e-07 1 1 0
1  9 0 4.71238898038469 7.85398163397448
2  12 3 0 4.71238898038469 7.85398163397448
0

0101000
+17 2 -15 2 *
Wi

0101100
-13 0 +8 0 -16 0 *
Fa
0  1e-07 5 0

0101000
+7 0 *
Wi

0101100
-14 0 -8 0 *
Fa
0  1e-07 3 0

0101000
+5 0 *
Sh

0101100
+23 0 +11 0 -9 0 +6 0 +4 0 *
So

0100000
+3 0 *
Co

0100000
+2 0 *

+1 1 