DBRep_DrawableShape

CASCADE Topology V3, (c) Open Cascade
Locations 2
1
              1               0               0               0 
              0               1               0               0 
              0               0               1               0 
2  1 -1 0
Curve2ds 16
1 0 0 0 1 
1 6.2831853071795862 0 0 1 
1 0 12.700000000000001 1 0 
1 0 9.4124766494091237 -0 -1 
7 0 0  8 9 2  0 9.0940619191773653  0.19754180381336006 9.0872674975915615  0.39508360762538158 9.2412888599155441  0.59262541144369396 9.5565286081622514  0.79016721524562572 10.020009016249578  0.98770901907056929 10.605292349607069  1.1852508228785599 11.275287990967716  1.3827926266935211 11.987644083880479  1.5803344305068812 12.700000000000001 
 3.1320545498778087 9 4.7123889803846888 9
7 0 0  8 9 2  4.7219270840966754 12.700000000000001  4.917084361982039 11.996242927867716  5.1122416398682704 11.292485695931905  5.3073989177520611 10.629573271920458  5.5025561956408575 10.048342700691368  5.6977134735229189 9.5846786658736729  5.8928707514092862 9.2644435240402334  6.0880280292942226 9.1007743253409945  6.2831853071795862 9.0940619191773653 
 1.5707963267948977 9 3.1320545498778087 9
7 0 0  7 62 11  0 7.8321422189022361  0.029788281839361469 7.747623002535164  0.057700152631187746 7.6599215223768855  0.083744875167292565 7.5687918762740818  0.10785536897795135 7.4740551301520197  0.1299493620977174 7.3755627822981307  0.14994212907836885 7.2731557128359103  0.17502329595276117 7.12278871829872  0.18194657606801443 7.0783399095542689  0.18848296523444213 7.0332089685725725  0.19462153942645788 6.9874019179991649  0.20035059253991022 6.9409306241583311  0.2056578610920301 6.8938148066866187  0.213226171593075 6.8196844521784934  0.21578873590282788 6.7930948643249867  0.21821612293887188 6.7663241958548292  0.22050615777837126 6.7393791891765753  0.22265669860939447 6.7122675855312721  0.22466565223451712 6.6849984297571199  0.22774085167156841 6.6398002587962868  0.2288903057943539 6.6219562566218091  0.22997879738249186 6.6040532258308122  0.23100579844254657 6.5860942197633134  0.23197080754793592 6.5680824877992539  0.23287334983893146 6.5500214753584993  0.23552404245655792 6.492859001013926  0.2370425648959385 6.4535873065717677  0.23826373840893997 6.414141857259632  0.23918405114383964 6.3745628393387852  0.23980086925614205 6.3348908583245276  0.24011248090627627 6.295169967051506  0.24012293714277919 6.2273029286752433  0.23997383630737776 6.1991535051591953  0.23967117446468769 6.1710203546713114  0.23921512182303353 6.1429195135069516  0.23860613907023168 6.1148663539450245  0.23784497428775062 6.086876137029364  0.23595292316640762 6.0289902600007483  0.23479882952505246 5.9991053985574059  0.23347166343217651 5.9693290885969006  0.2319729871683365 5.9396781589001444  0.23030462453078757 5.9101677995946797  0.22846864456099578 5.880812202297224  0.22458737098471221 5.8242076052616794  0.22256146492682163 5.7969380258087808  0.22039149922463161 5.7698272893498226  0.21807942805060263 5.7428846024748426  0.2156272719473295 5.7161178559492827  0.2130371021513692 5.6895339297516481  0.20538007939757033 5.6153956809841219  0.20000454023829667 5.5682713313825971  0.19419663107206273 5.5217990964411872  0.18796827922157403 5.4759992097784886  0.18133100251556861 5.4308838777170738  0.1742956502422677 5.3864592700209135  0.1491560124233525 5.2383551585585781  0.12925238726989388 5.1380548919112954  0.10726468932497216 5.0415629587779209  0.08327572819098869 4.9487283800289008  0.05736841598672867 4.8594083154069381  0.029611349109574366 4.7734280884026159  0 4.6905495653124465 
 0 8 0.23874902288683325 6 0.33677385558459533 6 0.39099993412663392 6 0.42617109362748318 6 0.5020348489664237 6 0.55579925405579844 6 0.61353698067303386 6 0.66777446632072723 6 0.76587956894883913 6 1 8
1 0 3.1292913422295374 1 0 
1 0 9.4124766494091237 1 0 
1 1.6975369585966293 0 0 1 
1 9.4124766494091237 0 -1 -0 
7 0 0  7 62 11  1.6975369585966293 4.7342283954569364  1.6677486767572824 4.8187476118239676  1.6398368059654054 4.906449091982374  1.6137920834293773 4.9975787380850365  1.589681589618662 5.0923154842071296  1.5675875964989106 5.1908078320610906  1.547594829518266 5.2932149015232319  1.5225136626438702 5.4435818960604418  1.5155903825286159 5.4880307048048946  1.5090539933621887 5.5331616457865982  1.5029154191701732 5.5789686963600049  1.4971863660567202 5.6254399902008272  1.491879097504601 5.6725558076725422  1.4843107870035561 5.7466861621806666  1.4817482226938026 5.7732757500341778  1.4793208356577581 5.8000464185043361  1.4770308008182589 5.8269914251825901  1.4748802599872357 5.854103028827895  1.4728713063621128 5.8813721846020544  1.4697961069250618 5.9265703555628795  1.4686466528022759 5.9444143577373563  1.467558161214138 5.9623173885283531  1.4665311601540831 5.9802763945958519  1.4655661510486941 5.9982881265599124  1.4646636087576985 6.0163491390006678  1.4620129161400734 6.0735116133452181  1.4604943937006898 6.11278330778745  1.4592732201876897 6.1522287570994978  1.4583529074527912 6.1918077750203526  1.4577360893404878 6.2314797560347008  1.4574244776903533 6.2712006473076274  1.4574140214538502 6.3390676856840624  1.4575631222892529 6.3672171092002072  1.4578657841319458 6.395350259688219  1.4583218367736044 6.423451100852728  1.4589308195264115 6.4515042604147848  1.4596919843088989 6.4794944773305456  1.4615840354302549 6.5373803543592972  1.4627381290716142 6.5672652158026361  1.4640652951644946 6.5970415257631405  1.4655639714283393 6.6266924554598967  1.4672323340658926 6.6562028147653631  1.4690683140356886 6.6855584120628126  1.4729495876119807 6.7421630090983529  1.4749754936698765 6.7694325885512594  1.4771454593720701 6.7965433250102185  1.4794575305461031 6.8234860118851932  1.4819096866493808 6.8502527584107531  1.484499856445346 6.8768366846083939  1.4921568791991511 6.9509749333758677  1.4975324183584533 6.9980992829775825  1.5033403275246686 7.0445715179187554  1.5095686793751688 7.0903714045814592  1.5162059560812102 7.1354867366431156  1.5232413083544911 7.179911344339069  1.5483809461734312 7.3280154558013821  1.5682845713268134 7.4283157224479925  1.5902722692718607 7.5248076555825687  1.6142612304056549 7.6176422343298338  1.6401685426099994 7.7069622989527105  1.6679256094870851 7.7929425259566418  1.6975369585966293 7.8758210490467269 
 0 8 0.23874902288721336 6 0.33677385558509942 6 0.39099993412719053 6 0.42617109362807259 6 0.50203484896704442 6 0.55579925405666319 6 0.6135369806739045 6 0.66777446632158433 6 0.76587956894957931 6 1 8
1 0 0 0 1 
1 6.2831853071795862 0 0 1 
7 0 0  8 9 2  0 3.6040007001969285  0.19208195004530004 3.5803571350811434  0.38416390009030432 3.4047462204742334  0.57624585013632912 3.0784983690370762  0.76832780017858071 2.6148995095536725  0.96040975022528385 2.0390576056272791  1.1524917002712864 1.3853343918520544  1.3445736503170982 0.69266712591034019  1.5366556003623981 1.7763568394002505e-15 
 0.034140726432496257 9 1.5707963267948961 9
7 0 0  8 9 2  4.6782482539521908 -1.3322676295501878e-15  4.8788653856056143 0.7234458623414689  5.0794825172587235 1.4468919255634392  5.2800996489156073 2.1259680475238563  5.4807167805649692 2.7163140655590587  5.6813339122216124 3.1792518856504759  5.8819510438725464 3.4876162214513653  6.0825681755261618 3.6286948696098853  6.2831853071795862 3.6040007001969285 
 4.7123889803846897 9 6.3173260336120824 9
Curves 13
1 -10.720844730782931 105.6775713456494 201.41447043044204 -0.75046705272672098 -0.010832389421210542 0.66081908425157976 
2 -22.349999999999994 105.54000000000002 207.42400009999997 -0.75046705272672076 -0.01083238942121054 0.66081908425157976 0.6608578581378608 -1.6868003813590867e-16 0.75051108675184752 -0.0081298283566318269 0.99994132794850887 0.0071586696714165459 3.1750000000000007
3 -22.349999999999998 105.54000000000002 207.4240001 -1.3744868693479592e-32 -1.1102230246251565e-16 1 -0.9998958432509899 -0.014432693767688288 -1.6023508928251674e-18 0.014432693767688288 -0.9998958432509899 -1.1101073874042354e-16 4.8046433216980917 3.1750000000000007
3 -22.349999999999998 105.54000000000002 207.4240001 -1.3744868693479592e-32 -1.1102230246251565e-16 1 -0.9998958432509899 -0.014432693767688288 -1.6023508928251674e-18 0.014432693767688288 -0.9998958432509899 -1.1101073874042354e-16 4.8046433216980917 3.1750000000000007
2 -22.349999999999994 105.54000000000002 207.42400009999997 -0.75046705272672076 -0.01083238942121054 0.66081908425157976 0.6608578581378608 -1.6868003813590867e-16 0.75051108675184752 -0.0081298283566318269 0.99994132794850887 0.0071586696714165459 3.1750000000000007
7 0 0  7 62 11  -22.395823802712425 108.71466930232189 207.4240001  -22.80186619472466 108.70880840636941 207.4240001  -23.206788803589514 108.67626891264923 207.4240001  -23.608847244466659 108.61351570276365 207.4240001  -24.004534053347864 108.5168414919995 207.4240001  -24.388679373375357 108.38283502153762 207.4240001  -24.754602275904443 108.20902520006766 207.4240001  -25.233563780000519 107.90604089463396 207.4240001  -25.368448848861885 107.8109932680071 207.4240001  -25.498197278859688 107.70905477008172 207.4240001  -25.622145137771195 107.60026297272817 207.4240001  -25.739587021649132 107.48474059390144 207.4240001  -25.849794260259824 107.36271493216684 207.4240001  -26.008599718501603 107.16363854755281 207.4240001  -26.062723273363478 107.09085434607213 207.4240001  -26.114285842252055 107.01625125904336 207.4240001  -26.163164671836231 106.93990203646186 207.4240001  -26.209239935074184 106.86189136610379 207.4240001  -26.252396432962794 106.78231681693008 207.4240001  -26.318552969512073 106.64873546123418 207.4240001  -26.343307248479935 106.59556979121827 207.4240001  -26.366758216992988 106.54182309038565 207.4240001  -26.38887767200168 106.48752771155564 207.4240001  -26.409639123604588 106.43271804242387 207.4240001  -26.42901779504842 106.37743050556223 207.4240001  -26.485757789383339 106.20150122378283 207.4240001  -26.517988273450595 106.0792433700141 207.4240001  -26.543445932308035 105.95533153950522 207.4240001  -26.561952479927303 105.83018978862121 207.4240001  -26.573385802787012 105.70426355360658 207.4240001  -26.577685086131783 105.57801919430501 207.4240001  -26.572862570235625 105.36259527440195 207.4240001  -26.567285337961511 105.27332460990455 207.4240001  -26.558134725289388 105.18430267113202 207.4240001  -26.545431429844857 105.09569551275526 207.4240001  -26.529212502863938 105.00766465720287 207.4240001  -26.50953067671237 104.92036695668051 207.4240001  -26.461671262303266 104.7411558576968 207.4240001  -26.432972250371702 104.64937421935068 207.4240001  -26.400440386555349 104.55879705563447 207.4240001  -26.364176645269563 104.46959643404891 207.4240001  -26.324296968084678 104.38192960275448 207.4240001  -26.28092998641085 104.29593961921312 207.4240001  -26.190331525560946 104.13267581314707 207.4240001  -26.143492525209478 104.05518743559715 207.4240001  -26.093812217898542 103.97939659976686 207.4240001  -26.041410784383284 103.90539478195123 207.4240001  -25.986412431919913 103.83326021953584 207.4240001  -25.928943714781877 103.76305894937893 207.4240001  -25.760943789009655 103.57146155931729 207.4240001  -25.645090960817395 103.45458376094598 207.4240001  -25.522321002847061 103.3445284540195 207.4240001  -25.393375858335457 103.24148127025825 207.4240001  -25.258968269736162 103.14552331361877 207.4240001  -25.119764123766945 103.05665187866683 207.4240001  -24.634172945363421 102.77945326542145 207.4240001  -24.268575643342309 102.62432655947381 207.4240001  -23.887174266900676 102.50782644024675 207.4240001  -23.496129910409742 102.42724197903176 207.42400009999997  -23.100143425489374 102.37906204004297 207.42400009999997  -22.702336464365999 102.35958357387118 207.42400009999997  -22.304176197287564 102.36533069767812 207.42400009999997 
 0 8 0.23874902288683325 6 0.33677385558459533 6 0.39099993412663392 6 0.42617109362748318 6 0.5020348489664237 6 0.55579925405579844 6 0.61353698067303386 6 0.66777446632072723 6 0.76587956894883913 6 1 8
2 -15.633609243970994 105.45405043228956 215.05014022904544 -2.7342504012166583e-15 0.99986567221115186 0.016390165763086228 -0.66090786254338785 0.012300279393923917 -0.75036624414692454 -0.75046705272672076 -0.010832389421215186 0.66081908425157998 6.9876110093002763
2 -22.349999999999991 105.28999999999996 222.67500009999998 -0.75046705272672087 0.010832389421211078 -0.66081908425157987 -0.66090786254338763 -0.012300279393927532 0.75036624414692465 -2.7347503703939438e-15 0.99986567221115186 0.016390165763086228 3.1750000000000007
7 0 0  7 62 11  -22.395823802712407 102.11533069767808 222.67500009999998  -22.801866194724443 102.12119159363056 222.67500009999998  -23.206788803590001 102.15373108735052 222.67500009999998  -23.608847244466073 102.21648429723696 222.67500009999998  -24.004534053348078 102.31315850799972 222.67500009999998  -24.388679373375371 102.44716497846272 222.67500009999998  -24.754602275904329 102.62097479993224 222.67500009999998  -25.233563780000477 102.92395910536597 222.67500009999998  -25.368448848861828 103.01900673199289 222.67500009999998  -25.498197278859667 103.12094522991819 222.67500009999998  -25.622145137771195 103.22973702727174 222.67500009999998  -25.739587021649097 103.34525940609853 222.67500009999998  -25.849794260259781 103.46728506783307 222.67500009999998  -26.008599718501554 103.66636145244711 222.67500009999998  -26.062723273363449 103.73914565392782 222.67500009999998  -26.114285842252041 103.8137487409566 222.67500009999998  -26.16316467183621 103.89009796353807 222.67500009999998  -26.209239935074162 103.96810863389612 222.67500009999998  -26.252396432962787 104.04768318306989 222.67500009999998  -26.318552969512044 104.18126453876576 222.67500009999998  -26.343307248479913 104.23443020878166 222.67500009999998  -26.366758216992974 104.28817690961428 222.67500009999998  -26.388877672001666 104.3424722884443 222.67500009999998  -26.409639123604574 104.39728195757607 222.67500009999998  -26.429017795048399 104.4525694944377 222.67500009999998  -26.485757789383296 104.62849877621703 222.67500009999998  -26.517988273450623 104.75075662998603 222.67500009999998  -26.543445932308021 104.87466846049455 222.67500009999998  -26.561952479927267 104.9998102113786 222.67500009999998  -26.573385802787005 105.12573644639359 222.67500009999998  -26.577685086131783 105.2519808056948 222.67500009999998  -26.572862570235625 105.46740472559843 222.67500009999998  -26.56728533796149 105.55667539009615 222.67500009999998  -26.558134725289275 105.64569732886906 222.67500009999998  -26.545431429844616 105.73430448724629 222.67500009999998  -26.529212502863569 105.82233534279908 222.67500009999998  -26.509530676711858 105.90963304332175 222.67500009999998  -26.461671262302456 106.08884414230585 222.67500009999998  -26.432972250370771 106.18062578065192 222.67500009999998  -26.40044038655434 106.27120294436808 222.67500009999998  -26.364176645268447 106.36040356595365 222.67500009999998  -26.324296968083484 106.44807039724806 222.67500009999998  -26.280929986409571 106.53406038078937 222.67500009999998  -26.19033152555949 106.69732418685531 222.67500009999998  -26.143492525207908 106.77481256440524 222.67500009999998  -26.093812217896893 106.85060340023551 222.67500009999998  -26.041410784381586 106.92460521805108 222.67500009999998  -25.986412431918136 106.99673978046641 222.67500009999998  -25.928943714779994 107.06694105062331 222.67500009999998  -25.76094378900768 107.2585384406847 222.67500009999998  -25.645090960814823 107.37541623905635 222.67500009999998  -25.522321002844944 107.48547154598228 222.67500009999998  -25.393375858333169 107.58851872974343 222.67500009999998  -25.258968269733163 107.68447668638331 222.67500009999998  -25.119764123764416 107.77334812133475 222.67500009999998  -24.634172945360593 108.05054673457975 222.67500009999998  -24.268575643340817 108.20567344052647 222.67500009999998  -23.88717426689778 108.32217355975406 222.67500009999998  -23.496129910409159 108.40275802096809 222.67500009999998  -23.100143425488124 108.4509379599571 222.67500009999998  -22.702336464365612 108.47041642612879 222.67500009999998  -22.304176197287582 108.46466930232187 222.67500009999998 
 0 8 0.23874902288721336 6 0.33677385558509942 6 0.39099993412719053 6 0.42617109362807259 6 0.50203484896704442 6 0.55579925405666319 6 0.6135369806739045 6 0.66777446632158433 6 0.76587956894957931 6 1 8
2 -22.349999999999991 105.28999999999996 222.67500009999998 -0.75046705272672087 0.010832389421211078 -0.66081908425157987 -0.66090786254338763 -0.012300279393927532 0.75036624414692465 -2.7347503703939438e-15 0.99986567221115186 0.016390165763086228 3.1750000000000007
1 -20.251776300412285 105.36810086457911 220.2934076576538 0.75046705272672098 -0.010832389421210752 0.66081908425157965 
3 -22.349999999999991 105.29000000000001 222.67500009999998 -1.3600086819469534e-32 -1.1102230246251565e-16 1 0.9998958432509899 -0.014432693767688569 -1.6023508928251713e-18 0.014432693767688569 0.9998958432509899 1.1101073874042354e-16 4.8046433216980899 3.1749999999999994
3 -22.349999999999991 105.29000000000001 222.67500009999998 -1.3600086819469534e-32 -1.1102230246251565e-16 1 0.9998958432509899 -0.014432693767688569 -1.6023508928251713e-18 0.014432693767688569 0.9998958432509899 1.1101073874042354e-16 4.8046433216980899 3.1749999999999994
Polygon3D 0
PolygonOnTriangulations 0
Surfaces 7
10 0 6.2831853071795862 0 12.700000000000001
2 -12.819068430370638 105.6775713456494 199.03159773000493 -0.75046705272672098 -0.010832389421210542 0.66081908425157976 0.66085785813786069 -1.6868003813590864e-16 0.75051108675184752 -0.0081298283566318286 0.99994132794850887 0.0071586696714165459 3.1750000000000007
10 0 6.2831853071795862 0 12.700000000000001
2 -12.819068430370638 105.6775713456494 199.03159773000493 -0.75046705272672098 -0.010832389421210542 0.66081908425157976 0.66085785813786069 -1.6868003813590864e-16 0.75051108675184752 -0.0081298283566318286 0.99994132794850887 0.0071586696714165459 3.1750000000000007
10 0 1.6975369585966293 3.1292913422295374 9.4124766494091237
5 -15.633609243970994 105.41500000000001 215.04950009999999 -2.7352577082955664e-15 0.99986567221115186 0.016390165763086228 -0.66090786254338763 0.012300279393923919 -0.75036624414692465 -0.75046705272672076 -0.010832389421215182 0.66081908425157976 10.162370788239906 3.1750000000000007
10 0 6.2831853071795862 0 12.699999999999999
2 -22.349999999999991 105.29000000000001 222.67500009999998 0.75046705272672098 -0.010832389421210752 0.66081908425157965 0.66085785813786069 0.024598697505227751 -0.75010785585706652 -0.0081298283566330516 0.99963871644733415 0.025619181689080971 3.1749999999999994
10 0 6.2831853071795862 0 12.699999999999999
2 -22.349999999999991 105.29000000000001 222.67500009999998 0.75046705272672098 -0.010832389421210752 0.66081908425157965 0.66085785813786069 0.024598697505227751 -0.75010785585706652 -0.0081298283566330516 0.99963871644733415 0.025619181689080971 3.1749999999999994
1 7.6010000000000062 75.338999999999999 207.42400009999997 -1.3596310734468911e-32 -1.1102230246251565e-16 1 1.2246467991473532e-16 1 1.1102230246251565e-16 -1 1.2246467991473532e-16 0 
1 7.6010000000000062 75.338999999999999 222.67500009999998 -1.3596310734468911e-32 -1.1102230246251565e-16 1 1.2246467991473532e-16 1 1.1102230246251565e-16 -1 1.2246467991473532e-16 0 
Triangulations 0

TShapes 38
Ve
1e-07
-17.5456385765823 105.57906092552 207.4240001
0 0

0101101
*
Ve
1.00000040767677e-07
-20.2517763004123 105.54 209.806872800437
0 0

0101101
*
Ed
 1e-07 1 1 0
1  1 0 9.09406191917736 12.7
2  1 1 0 9.09406191917736 12.7
2  2 2 0 9.09406191917736 12.7
4 G1 1 0 2 0
0

0101000
+38 2 -37 2 *
Ve
1.00000002281772e-06
-22.3958238027124 108.714669302322 207.4240001
0 0

0101101
*
Ed
 1e-07 1 1 0
1  2 0 0 1.58033443050688
2  3 1 0 0 1.58033443050688
2  4 3 0 0 1.58033443050688
4 G1 1 0 3 0
0

0101000
+37 2 -35 2 *
Ed
 1e-07 1 1 0
1  3 0 3.13205454987781 4.71238898038469
2  5 1 0 3.13205454987781 4.71238898038469
0

0101000
+38 2 -35 2 *
Wi

0101100
-36 0 -34 0 +33 0 *
Fa
0  1e-07 1 0

0101000
+32 0 *
Ve
1.00000002274847e-06
-22.3041761972876 102.365330697678 207.4240001
0 0

0101101
*
Ed
 1e-07 1 1 0
1  4 0 1.5707963267949 3.13205454987781
2  6 2 0 1.5707963267949 3.13205454987781
0

0101000
+30 2 -38 2 *
Ed
 1e-07 1 1 0
1  5 0 4.72192708409668 6.28318530717959
2  3 2 0 4.72192708409668 6.28318530717959
2  4 3 0 4.72192708409668 6.28318530717959
4 G1 2 0 3 0
0

0101000
+30 2 -37 2 *
Wi

0101100
+29 0 -28 0 +36 0 *
Fa
0  1e-07 2 0

0101000
+27 0 *
Ed
 1e-06 1 1 0
1  6 0 0 1
2  7 3 0 0 1
0

0101000
+35 2 -30 2 *
Ve
1.00000013442738e-07
-20.2517763004123 105.368100864579 220.293407657654
0 0

0101101
*
Ed
 1e-07 1 1 0
1  7 0 0 1.69753695859663
3  8 9G1 3 0 0 1.69753695859663
0

0101000
+37 2 -24 2 *
Ve
1.00000001464821e-06
-22.3041761972876 108.464669302322 222.6750001
0 0

0101101
*
Ed
 1e-07 1 1 0
1  8 0 7.87582104904673 9.41247664940912
2  10 3 0 7.87582104904673 9.41247664940912
2  11 4 0 7.87582104904673 9.41247664940912
4 G1 3 0 4 0
0

0101000
+22 2 -24 2 *
Ve
1.00000000355271e-06
-22.3958238027124 102.115330697678 222.6750001
0 0

0101101
*
Ed
 1e-06 1 1 0
1  9 0 0 1
2  12 3 0 0 1
0

0101000
+20 2 -22 2 *
Ed
 1e-07 1 1 0
1  10 0 3.12929134222954 4.73422839545693
2  10 3 0 3.12929134222954 4.73422839545693
2  11 5 0 3.12929134222954 4.73422839545693
4 G1 3 0 5 0
0

0101000
+24 2 -20 2 *
Wi

0101100
+28 0 +25 0 +34 0 -23 0 +21 0 +19 0 +18 0 +23 0 *
Fa
0  1e-07 3 0

0101000
+17 0 *
Wi

0101100
+25 0 +33 0 +29 0 *
Fa
0  1e-07 6 0

0101000
+15 0 *
Ve
1e-07
-17.5470925169105 105.32906092552 222.6750001
0 0

0101101
*
Ed
 1e-07 1 1 0
1  11 0 0 3.60400070019693
2  13 4 0 0 3.60400070019693
2  14 5 0 0 3.60400070019693
4 G1 4 0 5 0
0

0101000
+24 2 -13 2 *
Ed
 1e-07 1 1 0
1  12 0 0.0341407264324963 1.5707963267949
2  15 4 0 0.0341407264324963 1.5707963267949
0

0101000
+13 2 -22 2 *
Wi

0101100
-12 0 -11 0 -21 0 *
Fa
0  1e-07 4 0

0101000
+10 0 *
Ed
 1e-07 1 1 0
1  13 0 4.71238898038469 6.31732603361208
2  16 5 0 4.71238898038469 6.31732603361208
0

0101000
+20 2 -13 2 *
Wi

0101100
-19 0 +11 0 +8 0 *
Fa
0  1e-07 7 0

0101000
+7 0 *
Wi

0101100
-18 0 -8 0 +12 0 *
Fa
0  1e-07 5 0

0101000
+5 0 *
Sh

0101100
+31 0 +26 0 +16 0 -14 0 +9 0 +6 0 +4 0 *
So

0100000
+3 0 *
Co

0100000
+2 0 *

+1 1 