DBRep_DrawableShape

CASCADE Topology V3, (c) Open Cascade
Locations 2
1
              1               0               0               0 
              0               1               0               0 
              0               0               1               0 
2  1 -1 0
Curve2ds 16
1 0 6.1476134833311482 1 0 
1 0 12.430798790510735 1 0 
1 0 0 0 1 
1 1.5707963267948974 0 0 1 
1 12.430798790510735 0 -1 -0 
1 6.2831853071795862 0 0 1 
1 0 0 0 1 
1 0 29.789390596168257 1 0 
1 0 12.430798790510734 -0 -1 
1 0 6.1476134833311473 1 0 
1 0 12.430798790510734 1 0 
1 1.5707963267948966 0 0 1 
1 12.430798790510734 0 -1 -0 
1 6.2831853071795862 0 0 1 
1 0 0 0 1 
1 0 5.2510000000000012 1 0 
Curves 9
2 79.54793534789799 121.07397637470915 164.92400009999997 0.99082420725543996 0.13515690998476218 7.038970183133552e-15 0.13515690998476218 -0.99082420725543996 1.1576092787306661e-16 6.9900279409062719e-15 8.3666672983622068e-16 -1 18.882235857491406
2 82.100000000000009 105.53999999999998 164.9240001 -6.9900279409062727e-15 -8.3666672983622059e-16 1 0.13515690998476215 -0.99082420725543996 1.1576092787306668e-16 0.99082420725543996 0.13515690998476215 7.0389701831335528e-15 3.1749999999999998
2 79.97312099165373 121.13197533896447 149.18763110054459 0.13515690998476218 -0.99082420725543996 -7.1118515186969058e-16 6.8782604640442285e-15 1.6560249237403321e-15 -1 0.99082420725543996 0.13515690998476218 7.0389701831335528e-15 3.1749999999999998
1 79.547935347898004 121.07397637470916 146.04176424250858 -0.1351569099847576 0.99082420725544051 1.1000358482509581e-16 
2 75.946879008346528 150.64802466103555 149.18763110054459 -0.13515690998475763 0.99082420725544063 1.176736638303284e-16 -0.13391673819074684 -0.018267390316628364 -0.99082420725543996 -0.98173260968337162 -0.13391673819074235 0.13515690998476207 3.1749999999999998
2 75.521693364590803 150.59002569678023 164.9240001 0.9908242072554394 0.13515690998476573 1.5005431340227676e-17 1.3596310734468911e-32 1.1102230246251565e-16 -1 -0.13515690998476573 0.9908242072554394 1.1000358482509569e-16 18.882235857491413
2 73.819999999999979 166.23999999999998 164.9240001 8.2759738597745277e-18 5.035181776586128e-17 -1 -0.13515690998476573 0.9908242072554394 4.8771244867728031e-17 0.9908242072554394 0.13515690998476573 1.5005431340227676e-17 3.1749999999999998
1 72.96962871248877 169.29900207148941 164.9240001 -1.3596310734468911e-32 -1.1102230246251565e-16 1 
2 73.820000000000022 166.24000000000001 170.17500010000001 -1.0818213823281116e-32 -1.1102230246251565e-16 1 -0.26783347638149418 0.96346521936674168 1.0696612699664839e-16 -0.96346521936674168 -0.26783347638149418 -2.9735489224413302e-17 3.1749999999999998
Polygon3D 0
PolygonOnTriangulations 0
Surfaces 6
10 0 1.5707963267948974 6.1476134833311482 12.430798790510735
5 79.973120991653616 121.13197533896444 164.92400009999997 0.99082420725543996 0.13515690998476218 7.0389701831335528e-15 0.13515690998476215 -0.99082420725543996 1.1576092787306663e-16 6.9900279409062727e-15 8.3666672983622068e-16 -1 15.736368999455383 3.1749999999999998
10 0 6.2831853071795862 0 29.789390596168257
2 79.97312099165363 121.13197533896445 149.18763110054459 -0.1351569099847576 0.99082420725544051 1.1000358482509581e-16 -0.13391673819074687 -0.018267390316628367 -0.99082420725543996 -0.98173260968337162 -0.13391673819074235 0.1351569099847621 3.1749999999999998
10 0 1.5707963267948966 6.1476134833311473 12.430798790510734
5 75.946879008346428 150.64802466103552 164.9240001 0.9908242072554394 0.13515690998476573 1.5005431340227676e-17 1.3596310734468911e-32 1.1102230246251565e-16 -1 -0.13515690998476573 0.9908242072554394 1.1000358482509569e-16 15.736368999455394 3.1749999999999998
10 0 6.2831853071795862 0 5.2510000000000012
2 73.820000000000022 166.24000000000001 164.9240001 -1.3596310734468911e-32 -1.1102230246251565e-16 1 -0.26783347638149418 0.96346521936674168 1.0696612699664839e-16 -0.96346521936674168 -0.26783347638149418 -2.9735489224413302e-17 3.1749999999999998
1 82.100000000000023 105.53999999999998 164.9240001 7.1063817911497748e-15 1.2299872406673966e-15 -1 1 -1.2246467991473611e-16 7.1063817911497748e-15 -1.2246467991472736e-16 -1 -1.2299872406673974e-15 
1 73.820000000000022 166.24000000000001 170.17500009999998 -1.3596310734468911e-32 -1.1102230246251565e-16 1 1.2246467991473532e-16 1 1.1102230246251565e-16 -1 1.2246467991473532e-16 0 
Triangulations 0

TShapes 28
Ve
1.0000002301789e-07
82.1 102.365 164.9240001
0 0

0101101
*
Ve
1.00000030123318e-07
79.547935347898 121.073976374709 146.041764242509
0 0

0101101
*
Ed
 1e-07 1 1 0
1  1 0 0 1.5707963267949
3  1 2G1 1 0 0 1.5707963267949
0

0101000
+28 2 -27 2 *
Ed
 1e-07 1 1 0
1  2 0 6.14761348333115 12.4307987905107
2  3 1 0 6.14761348333115 12.4307987905107
0

0101000
-28 2 +28 2 *
Ed
 1e-07 1 1 0
1  3 0 6.14761348333115 12.4307987905107
2  4 1 0 6.14761348333115 12.4307987905107
2  5 2 0 6.14761348333115 12.4307987905107
4 G1 1 0 2 0
0

0101100
+27 2 -27 2 *
Wi

0101100
+26 0 -25 0 -26 0 +24 0 *
Fa
0  1e-07 1 0

0101000
+23 0 *
Ve
1.00000510124904e-07
75.5216933645908 150.59002569678 146.041764242509
0 0

0101101
*
Ed
 1e-07 1 1 0
1  4 0 0 29.7893905961683
3  6 7G1 2 0 0 29.7893905961683
0

0101000
+27 2 -21 2 *
Ed
 1e-07 1 1 0
1  5 0 0 6.28318530717959
2  8 2 0 0 6.28318530717959
2  9 3 0 0 6.28318530717959
4 G1 2 0 3 0
0

0101100
+21 2 -21 2 *
Wi

0101100
+20 0 -24 0 -20 0 -19 0 *
Fa
0  1e-07 2 0

0101000
+18 0 *
Ve
1.00000017859953e-07
72.9696287124888 169.299002071489 164.9240001
0 0

0101101
*
Ed
 1e-07 1 1 0
1  6 0 0 1.5707963267949
3  10 11G1 3 0 0 1.5707963267949
0

0101000
+21 2 -16 2 *
Ed
 1e-07 1 1 0
1  7 0 6.14761348333115 12.4307987905107
2  12 3 0 6.14761348333115 12.4307987905107
2  13 4 0 6.14761348333115 12.4307987905107
4 G1 3 0 4 0
0

0101100
+16 2 -16 2 *
Wi

0101100
+15 0 +19 0 -15 0 +14 0 *
Fa
0  1e-07 3 0

0101000
+13 0 *
Ve
1.00000004780564e-07
72.9696287124888 169.299002071489 170.1750001
0 0

0101101
*
Ed
 1e-07 1 1 0
1  8 0 0 5.251
3  14 15G1 4 0 0 5.251
0

0101000
+16 2 -11 2 *
Ed
 1e-07 1 1 0
1  9 0 0 6.28318530717959
2  16 4 0 0 6.28318530717959
0

0101000
+11 2 -11 2 *
Wi

0101100
+10 0 -14 0 -10 0 -9 0 *
Fa
0  1e-07 4 0

0101000
+8 0 *
Wi

0101100
-25 0 *
Fa
0  1e-07 5 0

0101000
+6 0 *
Wi

0101100
+9 0 *
Fa
0  1e-07 6 0

0101000
+4 0 *
Sh

0101100
+22 0 +17 0 +12 0 +7 0 -5 0 +3 0 *
So

0100100
+2 0 *

+1 1 