DBRep_DrawableShape

CASCADE Topology V3, (c) Open Cascade
Locations 2
1
              1               0               0               0 
              0               1               0               0 
              0               0               1               0 
2  1 -1 0
Curve2ds 16
1 0 0 0 1 
1 6.2831853071795862 0 0 1 
1 0 12.699999999999996 1 0 
1 0 9.4124766494091237 -0 -1 
7 0 0  8 9 2  0 9.0940619191773564  0.19754180381336039 9.0872674975915526  0.39508360762495237 9.2412888599333343  0.59262541144539294 9.5565286081126928  0.79016721524376854 10.020009016339309  0.98770901907228414 10.605292349548984  1.1852508228784382 11.275287990987623  1.3827926266935224 11.987644083880474  1.5803344305068827 12.699999999999996 
 3.1320545498778087 9 4.7123889803846915 9
7 0 0  8 9 2  4.7219270840966736 12.699999999999982  4.9170843619820381 11.996242927867696  5.1122416398689028 11.292485695922005  5.3073989177508176 10.62957327193803  5.5025561956463322 10.048342700658926  5.697713473521425 9.5846786659037928  5.8928707514106158 9.2644435240292307  6.0880280292942217 9.1007743253409856  6.2831853071795862 9.0940619191773564 
 1.5707963267948954 9 3.1320545498778087 9
7 0 0  7 62 11  0 7.8321422189022361  0.029788281839362819 7.7476230025351605  0.057700152631178898 7.6599215223768011  0.083744875167318003 7.5687918762742417  0.10785536897791688 7.4740551301519487  0.12994936209774333 7.3755627822980738  0.14994212907836027 7.2731557128359601  0.17502329595275962 7.1227887182987297  0.18194657606801981 7.0783399095542734  0.18848296523443966 7.0332089685725547  0.19462153942645419 6.9874019179991533  0.20035059253991397 6.9409306241583488  0.20565786109202946 6.8938148066866249  0.21322617159307702 6.8196844521784739  0.21578873590282646 6.7930948643250089  0.2182161229388706 6.7663241958548435  0.22050615777837251 6.7393791891765531  0.22265669860939624 6.7122675855312446  0.2246656522345159 6.6849984297571368  0.22774085167156849 6.6398002587962859  0.22889030579435413 6.6219562566218064  0.22997879738249219 6.6040532258308078  0.23100579844254687 6.5860942197633063  0.23197080754793609 6.5680824877992512  0.2328733498389314 6.5500214753584975  0.23552404245655881 6.4928590010139029  0.23704256489593692 6.4535873065717819  0.23826373840894102 6.4141418572596294  0.23918405114384081 6.3745628393387745  0.23980086925614061 6.334890858324532  0.24011248090627638 6.29516996705149  0.24012293714277932 6.2273029286751216  0.23997383630737681 6.1991535051589519  0.23967117446468392 6.1710203546709481  0.23921512182302548 6.1429195135064685  0.23860613907021835 6.1148663539444224  0.23784497428773113 6.0868761370286446  0.2359529231663762 6.0289902599999099  0.2347988295250171 5.9991053985565683  0.23347166343213663 5.9693290885960666  0.23197298716829184 5.9396781588993104  0.23030462453073847 5.9101677995938431  0.22846864456094271 5.8808122022963873  0.22458737098465095 5.8242076052608445  0.22256146492675646 5.7969380258079495  0.22039149922456197 5.7698272893489886  0.21807942805052827 5.7428846024740015  0.21562727194725104 5.7161178559484398  0.2130371021512871 5.6895339297508141  0.20538007939747879 5.6153956809833092  0.20000454023818595 5.5682713313816858  0.19419663107195986 5.5217990964403958  0.18796827922146084 5.4759992097776946  0.1813310025154313 5.4308838777161554  0.17429565024214019 5.3864592700201133  0.14915601242320967 5.2383551585578525  0.1292523872698024 5.1380548919108886  0.10726468932479104 5.0415629587772406  0.083275728190976811 4.9487283800288395  0.057368415986623317 4.8594083154066201  0.029611349109551214 4.7734280884025502  0 4.6905495653124456 
 0 8 0.23874902288696312 6 0.33677385558469985 6 0.39099993412675466 6 0.42617109362758004 6 0.50203484896651052 6 0.55579925405612629 6 0.61353698067339224 6 0.66777446632111759 6 0.76587956894924336 6 1 8
1 0 3.1292913422295374 1 0 
1 0 9.4124766494091237 1 0 
1 1.6975369585966289 0 0 1 
1 9.4124766494091237 0 -1 -0 
7 0 0  7 62 11  1.6975369585966289 4.7342283954569373  1.6677486767572798 4.8187476118239747  1.63983680596541 4.9064490919823376  1.6137920834293702 4.9975787380851084  1.5896815896186638 5.0923154842070728  1.5675875964989092 5.1908078320611146  1.5475948295182651 5.2932149015232355  1.5225136626438709 5.4435818960604347  1.5155903825286108 5.4880307048049488  1.5090539933621887 5.5331616457865787  1.5029154191701743 5.5789686963599738  1.4971863660567173 5.625439990200868  1.4918790975046001 5.6725558076725475  1.484310787003555 5.7466861621806737  1.4817482226938015 5.7732757500341778  1.4793208356577574 5.8000464185043397  1.4770308008182584 5.8269914251826007  1.4748802599872353 5.8541030288279057  1.4728713063621124 5.881372184602049  1.4697961069250611 5.926570355562883  1.4686466528022755 5.9444143577373625  1.4675581612141371 5.9623173885283638  1.4665311601540825 5.9802763945958635  1.4655661510486933 5.9982881265599177  1.4646636087576983 6.0163491390006714  1.4620129161400706 6.0735116133452633  1.4604943937006916 6.112783307787363  1.4592732201876892 6.1522287570995688  1.4583529074527892 6.191807775020421  1.457736089340488 6.2314797560346076  1.4574244776903529 6.2712006473076789  1.45741402145385 6.3390676856839816  1.4575631222892524 6.3672171092001184  1.4578657841319438 6.3953502596880663  1.4583218367735999 6.4234511008524766  1.4589308195264046 6.4515042604144641  1.4596919843088894 6.4794944773302054  1.4615840354302383 6.5373803543588727  1.4627381290715964 6.567265215802224  1.4640652951644746 6.5970415257627293  1.4655639714283171 6.6266924554594784  1.4672323340658688 6.6562028147649404  1.469068314035662 6.6855584120623996  1.4729495876119494 6.7421630090979345  1.4749754936698434 6.7694325885508491  1.4771454593720357 6.7965433250098082  1.4794575305460662 6.8234860118847775  1.4819096866493415 6.8502527584103348  1.4844998564453047 6.8768366846079809  1.4921568791991053 6.9509749333754609  1.4975324183583962 6.9980992829770852  1.5033403275246202 7.0445715179184152  1.5095686793751137 7.0903714045811039  1.5162059560811383 7.1354867366425987  1.5232413083544287 7.1799113443386817  1.5483809461733631 7.328015455801042  1.5682845713267444 7.4283157224480094  1.590272269271827 7.524807655581629  1.6142612304055772 7.6176422343303472  1.6401685426099903 7.7069622989523978  1.667925609487062 7.7929425259565779  1.6975369585966289 7.875821049046726 
 0 8 0.23874902288706598 6 0.33677385558486228 6 0.39099993412690187 6 0.42617109362773326 6 0.50203484896666073 6 0.55579925405614306 6 0.61353698067338402 6 0.66777446632107007 6 0.76587956894912002 6 1 8
1 0 0 0 1 
1 6.2831853071795862 0 0 1 
7 0 0  8 9 2  0 3.6040007001969343  0.19208195004530024 3.5803571350811492  0.38416390009034213 3.4047462204698142  0.57624585013527374 3.078498369050084  0.76832780017977453 2.6148995095308569  0.9604097502254515 2.0390576056380305  1.1524917002716299 1.3853343918474526  1.3445736503171024 0.69266712591033919  1.5366556003624026 0 
 0.034140726432496236 9 1.5707963267948977 9
7 0 0  8 9 2  4.6782482539521908 -7.1054273576010019e-15  4.8788653856056152 0.72344586234146391  5.0794825172596827 1.4468919255637418  5.2800996489108885 2.1259680475263272  5.4807167805701233 2.7163140655576954  5.6813339122175046 3.1792518856536365  5.8819510438734692 3.4876162214513844  6.0825681755261618 3.6286948696098911  6.2831853071795862 3.6040007001969343 
 4.7123889803846879 9 6.3173260336120824 9
Curves 13
1 -70.470844730782929 105.67757134564941 201.41447043044204 -0.75046705272672021 -0.010832389421210557 0.66081908425158065 
2 -82.09999999999998 105.54000000000003 207.4240001 -0.75046705272672021 -0.010832389421210559 0.66081908425158065 0.66085785813786158 -1.5683352795671026e-16 0.75051108675184675 -0.0081298283566318408 0.99994132794850887 0.0071586696714165564 3.1750000000000007
3 -82.099999999999966 105.54000000000003 207.4240001 -1.3745269890683251e-32 -1.1102230246251565e-16 1 -0.9998958432509899 -0.014432693767688323 -1.6023508928251713e-18 0.014432693767688323 -0.9998958432509899 -1.1101073874042354e-16 4.8046433216980855 3.1750000000000007
3 -82.099999999999966 105.54000000000003 207.4240001 -1.3745269890683251e-32 -1.1102230246251565e-16 1 -0.9998958432509899 -0.014432693767688323 -1.6023508928251713e-18 0.014432693767688323 -0.9998958432509899 -1.1101073874042354e-16 4.8046433216980855 3.1750000000000007
2 -82.09999999999998 105.54000000000003 207.4240001 -0.75046705272672021 -0.010832389421210559 0.66081908425158065 0.66085785813786158 -1.5683352795671026e-16 0.75051108675184675 -0.0081298283566318408 0.99994132794850887 0.0071586696714165564 3.1750000000000007
7 0 0  7 62 11  -82.145823802712414 108.71466930232191 207.4240001  -82.551866194724667 108.70880840636943 207.4240001  -82.956788803589305 108.67626891264942 207.4240001  -83.358847244467185 108.61351570276298 207.4240001  -83.754534053347172 108.51684149200042 207.4240001  -84.138679373375822 108.38283502153709 207.4240001  -84.504602275904276 108.20902520006777 207.4240001  -84.983563780000495 107.906040894634 207.4240001  -85.118448848861931 107.81099326800702 207.4240001  -85.248197278859649 107.70905477008179 207.4240001  -85.372145137771142 107.60026297272825 207.4240001  -85.489587021649172 107.48474059390135 207.4240001  -85.599794260259799 107.36271493216688 207.4240001  -85.758599718501628 107.16363854755278 207.4240001  -85.812723273363417 107.09085434607219 207.4240001  -85.864285842252016 107.01625125904339 207.4240001  -85.913164671836242 106.93990203646182 207.4240001  -85.959239935074208 106.86189136610375 207.4240001  -86.002396432962755 106.78231681693012 207.4240001  -86.068552969512055 106.64873546123417 207.4240001  -86.093307248479931 106.59556979121827 207.4240001  -86.116758216992977 106.54182309038565 207.4240001  -86.138877672001669 106.48752771155564 207.4240001  -86.159639123604578 106.43271804242386 207.4240001  -86.179017795048409 106.37743050556224 207.4240001  -86.235757789383328 106.20150122378277 207.4240001  -86.26798827345057 106.07924337001424 207.4240001  -86.293445932308046 105.95533153950518 207.4240001  -86.311952479927314 105.83018978862113 207.4240001  -86.323385802786959 105.70426355360668 207.4240001  -86.32768508613178 105.57801919430497 207.4240001  -86.322862570235614 105.36259527440157 207.4240001  -86.317285337961451 105.2733246099038 207.4240001  -86.308134725289264 105.18430267113089 207.4240001  -86.295431429844626 105.09569551275374 207.4240001  -86.279212502863558 105.00766465720099 207.4240001  -86.259530676711861 104.92036695667827 207.4240001  -86.211671262302474 104.74115585769424 207.4240001  -86.182972250370781 104.64937421934813 207.4240001  -86.150440386554365 104.55879705563197 207.4240001  -86.114176645268472 104.46959643404644 207.4240001  -86.074296968083516 104.38192960275202 207.4240001  -86.030929986409575 104.29593961921069 207.4240001  -85.940331525559529 104.13267581314471 207.4240001  -85.893492525207961 104.05518743559482 207.4240001  -85.843812217896939 103.97939659976454 207.4240001  -85.791410784381625 103.90539478194896 207.4240001  -85.736412431918168 103.83326021953363 207.4240001  -85.678943714780033 103.76305894937676 207.4240001  -85.510943789007669 103.57146155931528 207.4240001  -85.395090960815011 103.45458376094381 207.4240001  -85.272321002844919 103.34452845401768 207.4240001  -85.143375858333158 103.24148127025651 207.4240001  -85.008968269733359 103.14552331361685 207.4240001  -84.869764123764426 103.05665187866524 207.4240001  -84.384172945360788 102.77945326542034 207.4240001  -84.018575643340583 102.62432655947337 207.4240001  -83.637174266898029 102.50782644024613 207.4240001  -83.246129910409266 102.42724197903176 207.42400009999997  -82.850143425487929 102.37906204004291 207.42400009999997  -82.452336464365686 102.35958357387119 207.42400009999997  -82.054176197287561 102.36533069767813 207.42400009999997 
 0 8 0.23874902288696312 6 0.33677385558469985 6 0.39099993412675466 6 0.42617109362758004 6 0.50203484896651052 6 0.55579925405612629 6 0.61353698067339224 6 0.66777446632111759 6 0.76587956894924336 6 1 8
2 -75.38360924397098 105.45405043228958 215.05014022904544 -2.7149491760204932e-15 0.99986567221115197 0.016390165763086214 -0.66090786254338796 0.012300279393923915 -0.75036624414692443 -0.75046705272672054 -0.010832389421215161 0.66081908425158009 6.9876110093002808
2 -82.09999999999998 105.28999999999998 222.67500009999998 -0.75046705272672076 0.010832389421211085 -0.66081908425158009 -0.66090786254338774 -0.012300279393927506 0.75036624414692443 -2.7162286733409595e-15 0.99986567221115197 0.016390165763086214 3.1749999999999998
7 0 0  7 62 11  -82.1458238027124 102.11533069767809 222.67500009999998  -82.551866194724468 102.12119159363057 222.67500009999998  -82.956788803589944 102.15373108735056 222.67500009999998  -83.358847244466077 102.21648429723695 222.67500009999998  -83.754534053348138 102.31315850799979 222.67500009999998  -84.138679373375325 102.44716497846271 222.67500009999998  -84.504602275904332 102.62097479993227 222.67500009999998  -84.983563780000438 102.92395910536598 222.67500009999998  -85.118448848861917 103.01900673199297 222.67500009999998  -85.248197278859649 103.12094522991819 222.67500009999998  -85.372145137771128 103.22973702727172 222.67500009999998  -85.489587021649115 103.34525940609862 222.67500009999998  -85.599794260259799 103.46728506783309 222.67500009999998  -85.758599718501571 103.66636145244715 222.67500009999998  -85.812723273363432 103.73914565392784 222.67500009999998  -85.864285842252031 103.81374874095663 222.67500009999998  -85.913164671836213 103.89009796353811 222.67500009999998  -85.959239935074166 103.96810863389618 222.67500009999998  -86.002396432962783 104.04768318306989 222.67500009999998  -86.068552969512055 104.18126453876579 222.67500009999998  -86.093307248479903 104.2344302087817 222.67500009999998  -86.116758216992977 104.28817690961432 222.67500009999998  -86.138877672001669 104.34247228844434 222.67500009999998  -86.159639123604578 104.39728195757611 222.67500009999998  -86.179017795048409 104.45256949443774 222.67500009999998  -86.235757789383328 104.6284987762172 222.67500009999998  -86.267988273450499 104.75075662998574 222.67500009999998  -86.293445932308074 104.87466846049482 222.67500009999998  -86.311952479927356 104.99981021137884 222.67500009999998  -86.323385802786916 105.12573644639329 222.67500009999998  -86.32768508613178 105.251980805695 222.67500009999998  -86.322862570235614 105.4674047255982 222.67500009999998  -86.317285337961451 105.55667539009585 222.67500009999998  -86.308134725289307 105.64569732886859 222.67500009999998  -86.29543142984474 105.73430448724552 222.67500009999998  -86.279212502863757 105.8223353427981 222.67500009999998  -86.259530676712075 105.9096330433207 222.67500009999998  -86.211671262302829 106.08884414230455 222.67500009999998  -86.182972250371208 106.18062578065067 222.67500009999998  -86.15044038655482 106.27120294436686 222.67500009999998  -86.114176645268984 106.3604035659524 222.67500009999998  -86.074296968084056 106.44807039724682 222.67500009999998  -86.030929986410158 106.53406038078819 222.67500009999998  -85.940331525560183 106.69732418685416 222.67500009999998  -85.893492525208643 106.7748125644041 222.67500009999998  -85.843812217897678 106.85060340023438 222.67500009999998  -85.791410784382393 106.92460521804995 222.67500009999998  -85.736412431918993 106.9967397804653 222.67500009999998  -85.678943714780885 107.06694105062225 222.67500009999998  -85.510943789008664 107.25853844068371 222.67500009999998  -85.395090960816006 107.37541623905528 222.67500009999998  -85.272321002845942 107.4854715459814 222.67500009999998  -85.143375858334281 107.58851872974256 222.67500009999998  -85.008968269734609 107.68447668638234 222.67500009999998  -84.86976412376562 107.773348121334 222.67500009999998  -84.384172945361811 108.05054673457923 222.67500009999998  -84.018575643342004 108.20567344052617 222.67500009999998  -83.637174266898384 108.32217355975376 222.67500009999998  -83.246129910410218 108.40275802096818 222.67500009999998  -82.850143425488298 108.45093795995702 222.67500009999998  -82.452336464365914 108.47041642612882 222.67500009999998  -82.054176197287575 108.46466930232188 222.67500009999998 
 0 8 0.23874902288706598 6 0.33677385558486228 6 0.39099993412690187 6 0.42617109362773326 6 0.50203484896666073 6 0.55579925405614306 6 0.61353698067338402 6 0.66777446632107007 6 0.76587956894912002 6 1 8
2 -82.09999999999998 105.28999999999998 222.67500009999998 -0.75046705272672076 0.010832389421211085 -0.66081908425158009 -0.66090786254338774 -0.012300279393927506 0.75036624414692443 -2.7162286733409595e-15 0.99986567221115197 0.016390165763086214 3.1749999999999998
1 -80.001776300412274 105.36810086457912 220.2934076576538 0.75046705272672098 -0.010832389421210752 0.66081908425157965 
3 -82.09999999999998 105.29000000000002 222.67500009999998 -1.3600086819469534e-32 -1.1102230246251565e-16 1 0.9998958432509899 -0.014432693767688569 -1.6023508928251713e-18 0.014432693767688569 0.9998958432509899 1.1101073874042354e-16 4.8046433216980899 3.1749999999999998
3 -82.09999999999998 105.29000000000002 222.67500009999998 -1.3600086819469534e-32 -1.1102230246251565e-16 1 0.9998958432509899 -0.014432693767688569 -1.6023508928251713e-18 0.014432693767688569 0.9998958432509899 1.1101073874042354e-16 4.8046433216980899 3.1749999999999998
Polygon3D 0
PolygonOnTriangulations 0
Surfaces 7
10 0 6.2831853071795862 0 12.699999999999996
2 -72.569068430370635 105.67757134564941 199.03159773000493 -0.75046705272672021 -0.010832389421210557 0.66081908425158065 0.66085785813786158 -1.5683352795671026e-16 0.75051108675184675 -0.0081298283566318408 0.99994132794850887 0.0071586696714165564 3.1750000000000007
10 0 6.2831853071795862 0 12.699999999999996
2 -72.569068430370635 105.67757134564941 199.03159773000493 -0.75046705272672021 -0.010832389421210557 0.66081908425158065 0.66085785813786158 -1.5683352795671026e-16 0.75051108675184675 -0.0081298283566318408 0.99994132794850887 0.0071586696714165564 3.1750000000000007
10 0 1.6975369585966289 3.1292913422295374 9.4124766494091237
5 -75.38360924397098 105.41500000000002 215.04950009999999 -2.7151783291702078e-15 0.99986567221115186 0.01639016576308621 -0.66090786254338774 0.012300279393923917 -0.75036624414692454 -0.75046705272672065 -0.010832389421215158 0.66081908425157987 10.16237078823991 3.1749999999999998
10 0 6.2831853071795862 0 12.700000000000008
2 -82.09999999999998 105.29000000000002 222.67500009999998 0.75046705272672098 -0.010832389421210752 0.66081908425157965 0.66085785813786069 0.024598697505227758 -0.75010785585706652 -0.0081298283566330568 0.99963871644733415 0.025619181689080978 3.1749999999999998
10 0 6.2831853071795862 0 12.700000000000008
2 -82.09999999999998 105.29000000000002 222.67500009999998 0.75046705272672098 -0.010832389421210752 0.66081908425157965 0.66085785813786069 0.024598697505227758 -0.75010785585706652 -0.0081298283566330568 0.99963871644733415 0.025619181689080978 3.1749999999999998
1 -52.148999999999987 75.339000000000013 207.42400009999997 -1.3596310734468911e-32 -1.1102230246251565e-16 1 1.2246467991473532e-16 1 1.1102230246251565e-16 -1 1.2246467991473532e-16 0 
1 -52.148999999999987 75.339000000000013 222.67500009999998 -1.3596310734468911e-32 -1.1102230246251565e-16 1 1.2246467991473532e-16 1 1.1102230246251565e-16 -1 1.2246467991473532e-16 0 
Triangulations 0

TShapes 38
Ve
1.00000014210855e-07
-77.2956385765823 105.57906092552 207.4240001
0 0

0101101
*
Ve
1.00000035902756e-07
-80.0017763004123 105.54 209.806872800437
0 0

0101101
*
Ed
 1e-07 1 1 0
1  1 0 9.09406191917736 12.7
2  1 1 0 9.09406191917736 12.7
2  2 2 0 9.09406191917736 12.7
4 G1 1 0 2 0
0

0101000
+38 2 -37 2 *
Ve
1.00000002017554e-06
-82.1458238027124 108.714669302322 207.4240001
0 0

0101101
*
Ed
 1e-07 1 1 0
1  2 0 0 1.58033443050689
2  3 1 0 0 1.58033443050689
2  4 3 0 0 1.58033443050689
4 G1 1 0 3 0
0

0101000
+37 2 -35 2 *
Ed
 1e-07 1 1 0
1  3 0 3.13205454987781 4.71238898038469
2  5 1 0 3.13205454987781 4.71238898038469
0

0101000
+38 2 -35 2 *
Wi

0101100
-36 0 -34 0 +33 0 *
Fa
0  1e-07 1 0

0101000
+32 0 *
Ve
1.00000002017554e-06
-82.0541761972876 102.365330697678 207.4240001
0 0

0101101
*
Ed
 1e-07 1 1 0
1  4 0 1.5707963267949 3.13205454987781
2  6 2 0 1.5707963267949 3.13205454987781
0

0101000
+30 2 -38 2 *
Ed
 1e-07 1 1 0
1  5 0 4.72192708409667 6.28318530717959
2  3 2 0 4.72192708409667 6.28318530717959
2  4 3 0 4.72192708409667 6.28318530717959
4 G1 2 0 3 0
0

0101000
+30 2 -37 2 *
Wi

0101100
+29 0 -28 0 +36 0 *
Fa
0  1e-07 2 0

0101000
+27 0 *
Ed
 1e-06 1 1 0
1  6 0 0 1
2  7 3 0 0 1
0

0101000
+35 2 -30 2 *
Ve
1.00000013493926e-07
-80.0017763004123 105.368100864579 220.293407657654
0 0

0101101
*
Ed
 1e-07 1 1 0
1  7 0 0 1.69753695859663
3  8 9G1 3 0 0 1.69753695859663
0

0101000
+37 2 -24 2 *
Ve
1.00000001464821e-06
-82.0541761972876 108.464669302322 222.6750001
0 0

0101101
*
Ed
 1e-07 1 1 0
1  8 0 7.87582104904673 9.41247664940912
2  10 3 0 7.87582104904673 9.41247664940912
2  11 4 0 7.87582104904673 9.41247664940912
4 G1 3 0 4 0
0

0101000
+22 2 -24 2 *
Ve
1.00000000355271e-06
-82.1458238027124 102.115330697678 222.6750001
0 0

0101101
*
Ed
 1e-06 1 1 0
1  9 0 0 1
2  12 3 0 0 1
0

0101000
+20 2 -22 2 *
Ed
 1e-07 1 1 0
1  10 0 3.12929134222954 4.73422839545694
2  10 3 0 3.12929134222954 4.73422839545694
2  11 5 0 3.12929134222954 4.73422839545694
4 G1 3 0 5 0
0

0101000
+24 2 -20 2 *
Wi

0101100
+28 0 +25 0 +34 0 -23 0 +21 0 +19 0 +18 0 +23 0 *
Fa
0  1e-07 3 0

0101000
+17 0 *
Wi

0101100
+25 0 +33 0 +29 0 *
Fa
0  1e-07 6 0

0101000
+15 0 *
Ve
1.00000014210855e-07
-77.2970925169105 105.32906092552 222.6750001
0 0

0101101
*
Ed
 1e-07 1 1 0
1  11 0 0 3.60400070019692
2  13 4 0 0 3.60400070019692
2  14 5 0 0 3.60400070019692
4 G1 4 0 5 0
0

0101000
+24 2 -13 2 *
Ed
 1e-07 1 1 0
1  12 0 0.0341407264324962 1.5707963267949
2  15 4 0 0.0341407264324962 1.5707963267949
0

0101000
+13 2 -22 2 *
Wi

0101100
-12 0 -11 0 -21 0 *
Fa
0  1e-07 4 0

0101000
+10 0 *
Ed
 1e-07 1 1 0
1  13 0 4.71238898038469 6.31732603361208
2  16 5 0 4.71238898038469 6.31732603361208
0

0101000
+20 2 -13 2 *
Wi

0101100
-19 0 +11 0 +8 0 *
Fa
0  1e-07 7 0

0101000
+7 0 *
Wi

0101100
-18 0 -8 0 +12 0 *
Fa
0  1e-07 5 0

0101000
+5 0 *
Sh

0101100
+31 0 +26 0 +16 0 -14 0 +9 0 +6 0 +4 0 *
So

0100000
+3 0 *
Co

0100000
+2 0 *

+1 1 