DBRep_DrawableShape

CASCADE Topology V3, (c) Open Cascade
Locations 2
1
              1               0               0               0 
              0               1               0               0 
              0               0               1               0 
2  1 -1 0
Curve2ds 16
1 6.2831853071795862 0 0 1 
1 0 0 0 1 
1 0 0 1 0 
1 0 2.7489999999999988 1 0 
1 0 6.2831853071795862 -0 -1 
1 0 0 1 0 
1 0 6.2831853071795862 1 0 
1 1.5707963267948961 0 0 1 
1 6.2831853071795862 0 -1 -0 
1 6.2831853071795862 0 0 1 
1 0 0 0 1 
1 0 29.196123212231768 1 0 
1 0 6.2831853071795862 -0 -1 
1 0 0 1 0 
1 0 6.2831853071795862 1 0 
1 1.5707963267949001 0 0 1 
Curves 9
1 -22.349999999999991 102.36500000000001 164.9240001 1.3596310734468911e-32 1.1102230246251565e-16 -1 
2 -22.349999999999991 105.54000000000001 164.9240001 1.3596310734468911e-32 1.1102230246251565e-16 -1 -1.2246467991473532e-16 -1 -1.1102230246251565e-16 -1 1.2246467991473532e-16 0 3.1749999999999998
2 -22.349999999999991 105.54000000000001 162.17500009999998 1.3596310734468911e-32 1.1102230246251565e-16 -1 -1.2246467991473532e-16 -1 -1.1102230246251565e-16 -1 1.2246467991473532e-16 0 3.1749999999999998
2 -22.349999999999987 121.29193839388412 162.17500010000001 1 -1.2246467991473532e-16 -3.6008492701327387e-48 -1.2246467991473532e-16 -1 -5.6210503145285823e-16 6.8838012755336509e-32 5.6210503145285823e-16 -1 18.926938393884118
2 -22.349999999999987 121.29193839388412 146.42306170611587 -1.2246467991473532e-16 -1 -5.678348164542794e-17 6.9539709041515803e-33 5.678348164542794e-17 -1 1 -1.2246467991473532e-16 0 3.1749999999999998
1 -22.349999999999987 121.29193839388412 143.24806170611589 1.2246467991473532e-16 1 1.1102230246251565e-16 
2 -22.349999999999984 150.48806160611588 146.42306170611587 1.2246467991473532e-16 1 1.1102230246251565e-16 1.3596310734468911e-32 1.1102230246251565e-16 -1 -1 1.2246467991473532e-16 0 3.1749999999999998
2 -22.349999999999984 150.48806160611591 162.17500009999998 1 -1.2246467991473532e-16 0 -2.0737049734900202e-31 -1.693308613498859e-15 -1 1.2246467991473532e-16 1 -1.693308613498859e-15 18.926938393884083
2 -22.349999999999984 166.23999999999998 162.17500009999998 2.2021264724069384e-31 1.7981727253442744e-15 -1 1.2246467991473532e-16 1 1.7981727253442744e-15 1 -1.2246467991473532e-16 0 3.1749999999999998
Polygon3D 0
PolygonOnTriangulations 0
Surfaces 6
10 0 6.2831853071795862 0 2.7489999999999988
2 -22.349999999999991 105.54000000000001 164.9240001 1.3596310734468911e-32 1.1102230246251565e-16 -1 -1.2246467991473532e-16 -1 -1.1102230246251565e-16 -1 1.2246467991473532e-16 0 3.1749999999999998
10 0 1.5707963267948961 0 6.2831853071795862
5 -22.349999999999987 121.29193839388412 162.17500010000001 1 -1.2246467991473532e-16 0 -1.2246467991473532e-16 -1 -5.6210503145285823e-16 6.8838012755336509e-32 5.6210503145285823e-16 -1 15.751938393884117 3.1749999999999998
10 0 6.2831853071795862 0 29.196123212231768
2 -22.349999999999987 121.29193839388412 146.42306170611587 1.2246467991473532e-16 1 1.1102230246251565e-16 1.3596310734468911e-32 1.1102230246251565e-16 -1 -1 1.2246467991473532e-16 0 3.1749999999999998
10 0 1.5707963267949001 0 6.2831853071795862
5 -22.349999999999984 150.48806160611591 162.17500009999998 1 -1.2246467991473532e-16 0 -2.0737049734900202e-31 -1.693308613498859e-15 -1 1.2246467991473532e-16 1 -1.693308613498859e-15 15.751938393884082 3.1749999999999998
1 -22.349999999999994 105.54000000000002 164.9240001 1.3596310734468911e-32 1.1102230246251565e-16 -1 -1.2246467991473532e-16 -1 -1.1102230246251565e-16 -1 1.2246467991473532e-16 0 
1 -22.349999999999984 166.23999999999998 162.17500009999998 -2.8766367672061288e-31 -2.3489521788722717e-15 1 1.2246467991473532e-16 1 2.3489521788722717e-15 -1 1.2246467991473532e-16 0 
Triangulations 0

TShapes 28
Ve
1e-07
-22.35 102.365 164.9240001
0 0

0101101
*
Ve
1e-07
-22.35 102.365 162.1750001
0 0

0101101
*
Ed
 1e-07 1 1 0
1  1 0 0 2.749
3  1 2G1 1 0 0 2.749
0

0101000
+28 2 -27 2 *
Ed
 1e-07 1 1 0
1  2 0 0 6.28318530717959
2  3 1 0 0 6.28318530717959
0

0101000
+28 2 -28 2 *
Ed
 1e-07 1 1 0
1  3 0 0 6.28318530717959
2  4 1 0 0 6.28318530717959
2  5 2 0 0 6.28318530717959
4 G1 1 0 2 0
0

0101100
+27 2 -27 2 *
Wi

0101100
+26 0 +25 0 -26 0 -24 0 *
Fa
0  1e-07 1 0

0101000
+23 0 *
Ve
1.00000001432188e-07
-22.35 121.291938393884 143.248061706116
0 0

0101101
*
Ed
 1e-07 1 1 0
1  4 0 0 1.5707963267949
3  6 7G1 2 0 0 1.5707963267949
0

0101000
+27 2 -21 2 *
Ed
 1e-07 1 1 0
1  5 0 0 6.28318530717959
2  8 2 0 0 6.28318530717959
2  9 3 0 0 6.28318530717959
4 G1 2 0 3 0
0

0101100
+21 2 -21 2 *
Wi

0101100
+20 0 +24 0 -20 0 +19 0 *
Fa
0  1e-07 2 0

0101000
+18 0 *
Ve
1.00000050394855e-07
-22.35 150.488061606116 143.248061706116
0 0

0101101
*
Ed
 1e-07 1 1 0
1  6 0 0 29.1961232122318
3  10 11G1 3 0 0 29.1961232122318
0

0101000
+21 2 -16 2 *
Ed
 1e-07 1 1 0
1  7 0 0 6.28318530717959
2  12 3 0 0 6.28318530717959
2  13 4 0 0 6.28318530717959
4 G1 3 0 4 0
0

0101100
+16 2 -16 2 *
Wi

0101100
+15 0 -19 0 -15 0 -14 0 *
Fa
0  1e-07 3 0

0101000
+13 0 *
Ve
1.00000004124355e-07
-22.35 169.415 162.1750001
0 0

0101101
*
Ed
 1e-07 1 1 0
1  8 0 0 1.5707963267949
3  14 15G1 4 0 0 1.5707963267949
0

0101000
+16 2 -11 2 *
Ed
 1e-07 1 1 0
1  9 0 0 6.28318530717959
2  16 4 0 0 6.28318530717959
0

0101000
-11 2 +11 2 *
Wi

0101100
+10 0 +14 0 -10 0 +9 0 *
Fa
0  1e-07 4 0

0101000
+8 0 *
Wi

0101100
+25 0 *
Fa
0  1e-07 5 0

0101000
+6 0 *
Wi

0101100
-9 0 *
Fa
0  1e-07 6 0

0101000
+4 0 *
Sh

0101100
+22 0 +17 0 +12 0 +7 0 -5 0 +3 0 *
So

0100100
+2 0 *

+1 1 