DBRep_DrawableShape

CASCADE Topology V3, (c) Open Cascade
Locations 2
1
              1               0               0               0 
              0               1               0               0 
              0               0               1               0 
2  1 -1 0
Curve2ds 12
1 0 12.700000000000001 1 0 
1 0 6.2954866185398419 -0 -1 
7 0 0  8 16 3  1.561258223082912 12.700000000000001  1.7576077639322738 11.991943505874097  1.9539573047762908 11.28388684362598  2.1503068456417367 10.617428208518747  2.3466563864536578 10.034157457527691  2.5430059273425258 9.5705595094757374  2.7393554681742383 9.2527855444634657  2.9357050090284433 9.0938978870894385  3.328404090727167 9.0938978870894385  3.5247536315718282 9.252785544476744  3.7211031724360688 9.5705595094416509  3.917452713248152 10.034157457566959  4.1138022541328327 10.61742820847067  4.3101517949681014 11.283886843636788  4.5065013358233417 11.991943505874097  4.702850876672704 12.700000000000001 
 1.5707963267948977 9 3.1415926535897931 7 4.7123889803846888 9
7 0 0  7 26 5  0.24009645859318665 0.012301311360255696  0.24026153587513763 0.073096291139404426  0.23971116154914623 0.13394393598350826  0.23844219593028343 0.19463813407196642  0.23646074148388591 0.25502807517125187  0.2337767148649996 0.31498479743868935  0.23040371679497504 0.37437776238031123  0.2244768050876946 0.46048040303581661  0.22244346249382194 0.48775082972602901  0.22026604943115108 0.51486194143119068  0.21794652452650104 0.54180456173564973  0.21548691188558358 0.56857083023271493  0.21288928538263274 0.59515389834703036  0.20521078649906496 0.66929393759670952  0.19982113698187587 0.71641999569854353  0.19399903990777664 0.76289285317661515  0.18775642812141133 0.80869243516675027  0.18110482069045913 0.85380667466037852  0.17405506318271483 0.89822953577088105  0.14891024292110333 1.0460679023806057  0.12902612479913009 1.1461228093329279  0.10706727211922552 1.2423859838267421  0.083115907442441211 1.3350077817509942  0.057254302954104615 1.4241304462960638  0.029550455452621777 1.5099276526310732  0 1.5926357418671442 
 0 8 0.23123866916326608 6 0.3392809508501069 6 0.5347296866529434 6 1 8
7 0 0  7 26 5  0 4.7342283954569329  0.02978828183935581 4.8187476118239889  0.057700152631221746 4.9064490919823758  0.083744875167226229 4.9975787380849379  0.10785536897800452 5.0923154842072655  0.12994936209769992 5.1908078320610107  0.14994212907836696 5.2932149015232524  0.17502329595276311 5.4435818960604632  0.18194657606801143 5.4880307048048724  0.18848296523444194 5.5331616457866133  0.19462153942645791 5.5789686963600165  0.20035059253990745 5.6254399902008032  0.20565786109203152 5.672555807672568  0.21322617159307461 5.7466861621806729  0.21578873590282713 5.773275750034176  0.21821612293887144 5.800046418504337  0.22050615777837149 5.8269914251825981  0.22265669860939477 5.8541030288279057  0.22466565223451687 5.8813721846020517  0.23020527262535273 5.9627915249109815  0.23332361592596709 6.0173833788669047  0.23586806130363419 6.0724574782515726  0.23782601354721253 6.1279150616307252  0.23918734212889239 6.1836563204864978  0.23994461416177426 6.2395650584789708  0.24009645859318685 6.295486618539841 
 0 8 0.47959602445382055 6 0.67650707142339317 6 0.78543573373176212 6 1 8
1 0 0.012301311360255886 1 0 
1 0 6.2954866185398419 1 0 
7 0 0  7 26 5  1.6975369585966293 4.6905495653124429  1.6677801299052695 4.7738352678537588  1.6398959642352855 4.8602528993195548  1.6138795658949419 4.9500448590049109  1.5898009859993405 5.0433881960144564  1.5677446728293822 5.1404271777173056  1.5477948391675378 5.2413142951044485  1.5228058738472003 5.3892384846413757  1.515928403083908 5.4328259503804261  1.5094339540145454 5.4770770458514217  1.503332761070705 5.5219858354846698  1.4976356796732522 5.5675407253591045  1.4923539493085138 5.6137226502394899  1.4847596376748324 5.6868960640678994  1.4821561202998783 5.7134810945230141  1.4796906441164666 5.7402496478795451  1.4773652855910657 5.7671948972414002  1.4751820720967921 5.7943090027289719  1.4731429661698496 5.8215828077998752  1.466954441622849 5.9112266477673501  1.4634078464437681 5.9742538823898554  1.460637744279716 6.0379066133744317  1.4586597075557983 6.1020272175774943  1.4574847770406463 6.1664626704907048  1.4571193707391497 6.2310330029074645  1.4575575257085116 6.295486618539841 
 0 8 0.46234814463643931 6 0.65135778658055321 6 0.75801007313067792 6 1 8
1 1.6975369585966293 0 0 1 
1 6.2954866185398419 0 -1 -0 
7 0 0  7 26 5  1.4575575257085112 0.012301311360255696  1.4579160137297082 0.065035733522968292  1.4588126035613738 0.11772108540113724  1.4602450235519913 0.17023104379600967  1.4622065071717423 0.2224689194115527  1.4646881365454159 0.27435126089847139  1.4676790337663237 0.32579650733247018  1.4730408473870038 0.4041341138629127  1.4750608950408748 0.43140190370364662  1.477222506958507 0.45851145641448093  1.4795235844131267 0.48545377622239189  1.481961981469508 0.51222117051671845  1.4845355205079798 0.53880694655007066  1.4921349416891658 0.61292913169331142  1.4974623314069908 0.6600393648605366  1.5032114466623909 0.70650368099549243  1.509370025549762 0.75230260674384186  1.5159263694940319 0.79742448759318219  1.5228695685526181 0.84186350078429328  1.5479571854662439 0.99182469821963359  1.567921293256642 1.0938638758627011  1.5899728058521414 1.1920133815136242  1.6140278890414714 1.2864313214180327  1.6400052055773098 1.3772652743504343  1.6678385586703159 1.4646927200964279  1.6975369585966293 1.548956911722652 
 0 8 0.20516840432030303 6 0.31562673011637116 6 0.51531926265236749 6 1 8
7 0 0  8 16 3  1.6049370532273928 -8.8817841970012523e-16  1.8012865940767548 0.70805649412590355  1.9976361349258436 1.4161131563657772  2.1939856757702487 2.0825717914853508  2.3903352166260334 2.6658425424393828  2.5866847574720251 3.1294404905244124  2.7830342983231908 3.4472144555281998  2.9793838391729297 3.6061021129105684  3.3720829208716534 3.6061021129105684  3.5684324617187273 3.4472144555265078  3.7647820025697802 3.1294404905346656  3.9611315434155263 2.6658425424259606  4.1574810842727672 2.0825717914951425  4.3538306251175278 1.416113156362611  4.5501801659678263 0.70805649412590577  4.7465297068171886 1.3322676295501878e-15 
 4.7123889803846897 9 6.2831853071795862 7 7.8539816339744828 9
Curves 9
2 22.350000000000016 105.54000000000002 207.42400009999997 0.75046705272672076 -0.010832389421210724 0.66081908425157976 0.6608578581378608 6.8165460039272999e-18 -0.75051108675184752 0.0081298283566320732 0.99994132794850887 0.0071586696714165459 3.1750000000000007
3 22.350000000000019 105.54000000000002 207.4240001 -1.360048801667319e-32 -1.1102230246251565e-16 1 0.9998958432509899 -0.014432693767688534 -1.6023508928251674e-18 0.014432693767688534 0.9998958432509899 1.1101073874042354e-16 4.8046433216980917 3.1750000000000007
7 0 0  7 26 5  26.575498538672345 105.50093907447975 207.4240001  26.574809430909056 105.3079036878988 207.4240001  26.557430434840956 105.11486907657022 207.4240001  26.523326417926196 104.9236580043755 207.4240001  26.472892147703718 104.7359131391806 207.4240001  26.406821233387884 104.55311236330878 207.4240001  26.326054480038064 104.37657045669467 207.4240001  26.187772451230277 104.1283978599127 207.4240001  26.1407841334889 104.0509654204988 207.4240001  26.090957486281511 103.97523527237091 207.4240001  26.038412949609601 103.90129856169065 207.4240001  25.983274940093654 103.8292331856115 207.4240001  25.925670171793278 103.75910483500242 207.4240001  25.757286790971481 103.56770841334776 207.4240001  25.64119338679447 103.45096781306231 207.4240001  25.518194253525653 103.34106024870638 207.4240001  25.389031776287904 103.23816949146148 207.4240001  25.25441880468972 103.14237491847486 207.4240001  25.115021046228396 103.05367224757768 207.4240001  24.629659806895969 102.77754064695803 207.4240001  24.264651901202509 102.62312978722214 207.4240001  23.88395697849872 102.50716450676532 207.4240001  23.493687540378673 102.42694527425488 207.42400009999997  23.098508047233011 102.37898202280203 207.42400009999997  22.701517675778373 102.35959539242711 207.42400009999997  22.304176197287578 102.36533069767812 207.42400009999997 
 0 8 0.23123866916326608 6 0.3392809508501069 6 0.5347296866529434 6 1 8
7 0 0  7 26 5  22.395823802712439 108.71466930232189 207.4240001  22.801866194724596 108.70880840636941 207.4240001  23.206788803589948 108.67626891264956 207.4240001  23.60884724446591 108.61351570276271 207.4240001  24.004534053348497 108.51684149200052 207.4240001  24.388679373375169 108.38283502153718 207.4240001  24.754602275904432 108.20902520006769 207.4240001  25.233563780000591 107.90604089463395 207.4240001  25.368448848861753 107.81099326800718 207.4240001  25.498197278859784 107.70905477008168 207.4240001  25.622145137771312 107.60026297272815 207.4240001  25.739587021649005 107.48474059390152 207.4240001  25.849794260259877 107.36271493216681 207.4240001  26.008599718501614 107.16363854755282 207.4240001  26.062723273363481 107.09085434607213 207.4240001  26.114285842252077 107.01625125904334 207.4240001  26.163164671836252 106.93990203646187 207.4240001  26.209239935074208 106.86189136610381 207.4240001  26.252396432962819 106.78231681693008 207.4240001  26.371569874021606 106.54168526863673 207.4240001  26.438895034473624 106.37638986802408 207.4240001  26.493616614907115 106.20632415132675 207.4240001  26.535039262787805 106.03252978144694 207.4240001  26.562645375460257 105.85616386805744 207.4240001  26.576132406490263 105.67850044556292 207.4240001  26.575498538672345 105.50093907447975 207.4240001 
 0 8 0.47959602445382055 6 0.67650707142339317 6 0.78543573373176212 6 1 8
2 15.633609243971016 105.37594956771046 215.04885997095451 -2.9807840869043256e-15 -0.99986567221115186 -0.016390165763086228 0.66090786254338785 0.012300279393923754 -0.75036624414692454 0.75046705272672076 -0.010832389421215369 0.66081908425157998 13.337130567179537
7 0 0  7 26 5  22.304176197287596 108.46466930232187 222.67500009999998  22.704292612629452 108.47044466155857 222.67500009999998  23.104050686978432 108.45074593236505 222.67500009999998  23.501965191266031 108.40204617834236 222.67500009999998  23.894860148747512 108.32058536181549 222.67500009999998  24.27794692737611 108.20280176334653 222.67500009999998  24.644947345809264 108.04595732349884 222.67500009999998  25.128411783475634 107.76773517676399 222.67500009999998  25.26464147979997 107.68025438372149 222.67500009999998  25.396235622666843 107.58596278836224 222.67500009999998  25.522565712806649 107.48486003427386 222.67500009999998  25.642960135085893 107.37702358078958 222.67500009999998  25.756720209048172 107.26262752623163 222.67500009999998  25.923191668913709 107.07388045830496 222.67500009999998  25.980904816979518 107.00380040324858 222.67500009999998  26.036153447126527 106.93178012803509 222.67500009999998  26.088810687860221 106.85788508174983 222.67500009999998  26.138751928740643 106.78219292874299 222.67500009999998  26.185856500142798 106.70479459511373 222.67500009999998  26.330190474151234 106.44654899438193 222.67500009999998  26.415240185591124 106.25894644514344 222.67500009999998  26.483687327597323 106.06436297170362 222.67500009999998  26.534426844417997 105.86438750080116 222.67500009999998  26.566670838712078 105.66080411080104 222.67500009999998  26.580012947446832 105.4555913114791 222.67500009999998  26.574606039269856 105.25093907447972 222.67500009999998 
 0 8 0.46234814463643931 6 0.65135778658055321 6 0.75801007313067792 6 1 8
2 22.350000000000012 105.28999999999996 222.67500009999998 0.75046705272672087 0.010832389421210894 -0.66081908425157987 0.66090786254338763 -0.012300279393927695 0.75036624414692465 -2.9796468294040846e-15 -0.99986567221115186 -0.016390165763086228 3.1750000000000007
7 0 0  7 26 5  26.574606039269856 105.2509390744797 222.67500009999998  26.570182235025474 105.08349745997006 222.67500009999998  26.553205362247812 104.91633821698984 222.67500009999998  26.523736028299169 104.75062350421976 222.67500009999998  26.48206518941516 104.58740906428299 222.67500009999998  26.428650918189444 104.42765193238944 222.67500009999998  26.364088974124346 104.27221263751746 222.67500009999998  26.248753948843348 104.04090085587019 222.67500009999998  26.205367429629092 103.96141004394357 222.67500009999998  26.159066952583096 103.88349036187323 222.67500009999998  26.109968102522178 103.80723886697579 222.67500009999998  26.058191015517913 103.73273972181472 222.67500009999998  26.003858678312813 103.66006514365053 222.67500009999998  25.844475193263293 103.46130055306016 222.67500009999998  25.733910841101626 103.33948980778663 222.67500009999998  25.616130932425303 103.22419711970018 222.67500009999998  25.491864569323056 103.11564692235949 222.67500009999998  25.361817096568004 103.01395931208376 222.67500009999998  25.226651982185761 102.9191694938804 222.67500009999998  24.747972707132739 102.61783161748821 222.67500009999998  24.382879509402457 102.44514561075677 222.67500009999998  23.999756356806245 102.31199347987476 222.67500009999998  23.605207936302293 102.21591727195121 222.67500009999998  23.204345984739312 102.15353497379338 222.67500009999998  22.800641019430245 102.12117390920876 222.67500009999998  22.395823802712425 102.11533069767808 222.67500009999998 
 0 8 0.20516840432030303 6 0.31562673011637116 6 0.51531926265236749 6 1 8
3 22.350000000000012 105.29000000000001 222.67500009999998 -1.3745269890683251e-32 -1.1102230246251565e-16 1 -0.9998958432509899 -0.014432693767688323 -1.6023508928251713e-18 0.014432693767688323 -0.9998958432509899 -1.1101073874042354e-16 4.8046433216980899 3.1749999999999994
Polygon3D 0
PolygonOnTriangulations 0
Surfaces 5
10 0 6.2831853071795862 0 12.700000000000001
2 12.81906843037066 105.6775713456494 199.03159773000493 0.75046705272672098 -0.010832389421210726 0.66081908425157976 0.66085785813786069 6.816546003927313e-18 -0.75051108675184752 0.008129828356632075 0.99994132794850887 0.0071586696714165459 3.1750000000000007
10 0 1.6975369585966293 0.012301311360255886 6.2954866185398419
5 15.633609243971016 105.41500000000001 215.04950009999999 -2.9801541673057073e-15 -0.99986567221115186 -0.016390165763086228 0.66090786254338763 0.012300279393923755 -0.75036624414692465 0.75046705272672076 -0.010832389421215366 0.66081908425157976 10.162370788239906 3.1750000000000007
10 0 6.2831853071795862 0 12.699999999999999
2 22.350000000000012 105.29000000000001 222.67500009999998 -0.75046705272672098 -0.010832389421210568 0.66081908425157965 0.66085785813786069 -0.024598697505227911 0.75010785585706652 0.0081298283566332979 0.99963871644733415 0.025619181689080971 3.1749999999999994
1 52.301000000000009 75.338999999999999 207.42400009999997 -1.3596310734468911e-32 -1.1102230246251565e-16 1 1.2246467991473532e-16 1 1.1102230246251565e-16 -1 1.2246467991473532e-16 0 
1 52.301000000000009 75.338999999999999 222.67500009999998 -1.3596310734468911e-32 -1.1102230246251565e-16 1 1.2246467991473532e-16 1 1.1102230246251565e-16 -1 1.2246467991473532e-16 0 
Triangulations 0

TShapes 28
Ve
1.00000002017554e-06
22.3958238027124 108.714669302322 207.4240001
0 0

0101101
*
Ve
1.00000002864289e-06
22.3041761972876 102.365330697678 207.4240001
0 0

0101101
*
Ed
 1e-07 1 1 0
1  1 0 1.56125822308291 4.7028508766727
2  1 1 0 1.56125822308291 4.7028508766727
2  2 2 0 1.56125822308291 4.7028508766727
4 G1 1 0 2 0
0

0101000
+28 2 -27 2 *
Ed
 1e-07 1 1 0
1  2 0 1.5707963267949 4.71238898038469
2  3 1 0 1.5707963267949 4.71238898038469
0

0101000
+28 2 -27 2 *
Wi

0101100
-26 0 +25 0 *
Fa
0  1e-07 1 0

0101000
+24 0 *
Ve
1.000001e-06
26.5754985386723 105.50093907448 207.4240001
0 0

0101101
*
Ed
 1e-06 1 1 0
1  3 0 0 1
2  4 2 0 0 1
0

0101000
+22 2 -27 2 *
Ed
 1e-06 1 1 0
1  4 0 0 1
2  5 2 0 0 1
0

0101000
+28 2 -22 2 *
Ve
1.000001e-06
26.5746060392699 105.25093907448 222.6750001
0 0

0101101
*
Ed
 1e-07 1 1 0
1  5 0 0.240096458593187 1.45755752570851
3  6 7G1 2 0 0.240096458593187 1.45755752570851
0

0101000
+22 2 -19 2 *
Ve
1.00000001464821e-06
22.3041761972876 108.464669302322 222.6750001
0 0

0101101
*
Ed
 1e-06 1 1 0
1  6 0 0 1
2  8 2 0 0 1
0

0101000
+17 2 -19 2 *
Ve
1e-06
22.3958238027124 102.115330697678 222.6750001
0 0

0101101
*
Ed
 1e-07 1 1 0
1  7 0 1.54895691172265 4.69054956531244
2  9 2 0 1.54895691172265 4.69054956531244
2  10 3 0 1.54895691172265 4.69054956531244
4 G1 2 0 3 0
0

0101000
+15 2 -17 2 *
Ed
 1e-06 1 1 0
1  8 0 0 1
2  11 2 0 0 1
0

0101000
+19 2 -15 2 *
Wi

0101100
-21 0 +26 0 -20 0 -18 0 +16 0 +14 0 +13 0 +18 0 *
Fa
0  1e-07 2 0

0101000
+12 0 *
Wi

0101100
-20 0 -21 0 +25 0 *
Fa
0  1e-07 4 0

0101000
+10 0 *
Ed
 1e-07 1 1 0
1  9 0 4.71238898038469 7.85398163397448
2  12 3 0 4.71238898038469 7.85398163397448
0

0101000
+17 2 -15 2 *
Wi

0101100
-13 0 +8 0 -16 0 *
Fa
0  1e-07 5 0

0101000
+7 0 *
Wi

0101100
-14 0 -8 0 *
Fa
0  1e-07 3 0

0101000
+5 0 *
Sh

0101100
+23 0 +11 0 -9 0 +6 0 +4 0 *
So

0100000
+3 0 *
Co

0100000
+2 0 *

+1 1 