<?xml version="1.0" encoding="UTF-8"?>
<svg xmlns="http://www.w3.org/2000/svg" viewBox="-561.740 -475.500 591.740 647.000" width="591.740mm" height="647.000mm">
  <line x1="0.000" y1="0.000" x2="-245.085" y2="141.500" stroke="black" stroke-width="1.5" fill="none" stroke-linecap="round" />
  <line x1="-245.085" y1="141.500" x2="-245.085" y2="-138.500" stroke="black" stroke-width="1.5" fill="none" stroke-linecap="round" />
  <line x1="-245.085" y1="-138.500" x2="0.000" y2="-280.000" stroke="black" stroke-width="1.5" fill="none" stroke-linecap="round" />
  <line x1="0.000" y1="-280.000" x2="0.000" y2="0.000" stroke="black" stroke-width="1.5" fill="none" stroke-linecap="round" />
  <line x1="-531.740" y1="-304.000" x2="-286.654" y2="-445.500" stroke="black" stroke-width="1.5" fill="none" stroke-linecap="round" />
  <line x1="0.000" y1="-280.000" x2="-286.654" y2="-445.500" stroke="black" stroke-width="1.5" fill="none" stroke-linecap="round" />
  <line x1="-245.085" y1="141.500" x2="-531.740" y2="-24.000" stroke="black" stroke-width="1.5" fill="none" stroke-linecap="round" />
  <line x1="-531.740" y1="-24.000" x2="-531.740" y2="-304.000" stroke="black" stroke-width="1.5" fill="none" stroke-linecap="round" />
  <line x1="-245.085" y1="-138.500" x2="-531.740" y2="-304.000" stroke="black" stroke-width="1.5" fill="none" stroke-linecap="round" />
  <path d="M -187.278,-107.875 L -187.211,-109.482 L -187.012,-111.150 L -186.681,-112.864 L -186.223,-114.607 L -185.642,-116.362 L -184.943,-118.112 L -184.133,-119.841 L -183.220,-121.532 L -182.212,-123.168 L -181.120,-124.734 L -179.953,-126.215 L -178.724,-127.596 L -177.444,-128.864 L -176.125,-130.007 L -174.780,-131.014 L -173.422,-131.875 L -172.063,-132.582 L -170.718,-133.128 L -169.399,-133.508 L -168.119,-133.719 L -166.890,-133.757 L -165.723,-133.623 L -164.631,-133.318 L -163.624,-132.846 L -162.710,-132.209 L -161.900,-131.416 L -161.201,-130.473 L -160.620,-129.389 L -160.162,-128.175 L -159.831,-126.843 L -159.632,-125.405 L -159.565,-123.875 L -159.632,-122.268 L -159.831,-120.600 L -160.162,-118.886 L -160.620,-117.143 L -161.201,-115.388 L -161.900,-113.638 L -162.710,-111.909 L -163.624,-110.218 L -164.631,-108.582 L -165.723,-107.016 L -166.890,-105.535 L -168.119,-104.154 L -169.399,-102.886 L -170.718,-101.743 L -172.063,-100.736 L -173.422,-99.875 L -174.780,-99.168 L -176.125,-98.622 L -177.444,-98.242 L -178.724,-98.031 L -179.953,-97.993 L -181.120,-98.127 L -182.212,-98.432 L -183.220,-98.904 L -184.133,-99.541 L -184.943,-100.334 L -185.642,-101.277 L -186.223,-102.361 L -186.681,-103.575 L -187.012,-104.907 L -187.211,-106.345 Z" stroke="black" stroke-width="1.5" fill="none" stroke-linecap="round" stroke-linejoin="round" />
  <line x1="-199.674" y1="-108.404" x2="-183.220" y2="-98.904" stroke="black" stroke-width="1.5" fill="none" stroke-linecap="round" />
  <line x1="-180.078" y1="-142.346" x2="-163.624" y2="-132.846" stroke="black" stroke-width="1.5" fill="none" stroke-linecap="round" />
  <path d="M -199.674,-108.404 L -200.587,-109.041 L -201.397,-109.834 L -202.096,-110.777 L -202.678,-111.861 L -203.136,-113.075 L -203.466,-114.407 L -203.666,-115.845 L -203.732,-117.375 L -203.666,-118.982 L -203.466,-120.650 L -203.136,-122.364 L -202.678,-124.107 L -202.096,-125.862 L -201.397,-127.612 L -200.587,-129.341 L -199.674,-131.032 L -198.666,-132.668 L -197.574,-134.234 L -196.408,-135.715 L -195.179,-137.096 L -193.898,-138.364 L -192.579,-139.507 L -191.234,-140.514 L -189.876,-141.375 L -188.518,-142.082 L -187.173,-142.628 L -185.854,-143.008 L -184.573,-143.219 L -183.344,-143.257 L -182.178,-143.123 L -181.086,-142.818 L -180.078,-142.346" stroke="black" stroke-width="1.5" fill="none" stroke-linecap="round" stroke-linejoin="round" />
  <path d="M -456.395,-308.000 L -471.984,-299.000 L -495.367,-312.500 L -479.778,-321.500 Z" stroke="black" stroke-width="1.5" fill="none" stroke-linecap="round" stroke-linejoin="round" />
  <path d="M -17.321,-280.000 L -143.327,-207.250 L -286.221,-289.750 L -160.215,-362.500 Z" stroke="black" stroke-width="1.5" fill="none" stroke-linecap="round" stroke-linejoin="round" />
  <path d="M -151.987,-202.250 L -245.085,-148.500 L -387.979,-231.000 L -294.882,-284.750 Z" stroke="black" stroke-width="1.5" fill="none" stroke-linecap="round" stroke-linejoin="round" />
</svg>
