<svg xmlns="http://www.w3.org/2000/svg" width="80mm" height="100mm" viewBox="0 0 80 100">
<rect width="100%" height="100%" fill="white"/>
<rect x="20" y="20" width="40" height="40" fill="none" stroke="#999" stroke-width=".15"/>
<polygon points="20.0,60.0 60.0,60.0 60.0,20.0 20.0,20.0" fill="none" stroke="black" stroke-width=".25"/>
<circle cx="24.0" cy="56.0" r="1.7" fill="none" stroke="black" stroke-width=".2"/>
<path d="M22.0,56.0h4 M24.0,54.0v4" stroke="#b33" stroke-width=".15"/>
<circle cx="24.0" cy="24.0" r="1.7" fill="none" stroke="black" stroke-width=".2"/>
<path d="M22.0,24.0h4 M24.0,22.0v4" stroke="#b33" stroke-width=".15"/>
<circle cx="56.0" cy="56.0" r="1.7" fill="none" stroke="black" stroke-width=".2"/>
<path d="M54.0,56.0h4 M56.0,54.0v4" stroke="#b33" stroke-width=".15"/>
<circle cx="56.0" cy="24.0" r="1.7" fill="none" stroke="black" stroke-width=".2"/>
<path d="M54.0,24.0h4 M56.0,22.0v4" stroke="#b33" stroke-width=".15"/>
<rect x="27.0" y="27.0" width="26" height="26" fill="none" stroke="black" stroke-width=".25"/>
<text x="20" y="71" font-family="sans-serif" font-size="4">crash-pod-shoulder: 40 x 40 x 6.35 mm - 100% scale</text>
<path d="M20,80h50 M20,77v6 M70,77v6" stroke="black" stroke-width=".25"/>
<text x="80" y="81" font-family="sans-serif" font-size="3.5">50 mm scale check; +X right / +Y up</text>
</svg>